<svg id="svg" version="1.1" xmlns="http://www.w3.org/2000/svg" xmlns:xlink="http://www.w3.org/1999/xlink" width="400" height="260.1980198019802" viewBox="0, 0, 400,260.1980198019802"><g id="svgg"><path id="path0" d="M135.050 27.723 L 135.050 47.129 166.337 47.129 L 197.624 47.129 197.624 27.723 L 197.624 8.317 166.337 8.317 L 135.050 8.317 135.050 27.723 M161.821 27.950 C 161.931 29.822,163.168 29.773,163.168 27.897 C 163.168 27.170,163.242 26.931,163.465 26.931 C 163.701 26.931,163.762 27.214,163.762 28.291 L 163.762 29.651 162.680 29.676 C 161.392 29.706,161.188 29.467,161.188 27.934 C 161.188 26.498,161.737 26.512,161.821 27.950 M166.337 27.207 C 166.337 27.392,166.129 27.474,165.714 27.455 C 164.804 27.412,164.816 27.808,165.737 28.170 C 167.065 28.691,166.691 29.789,165.227 29.666 C 164.241 29.583,164.101 29.154,165.071 29.185 C 166.074 29.217,166.114 28.851,165.154 28.418 C 163.903 27.854,164.170 26.931,165.584 26.931 C 166.096 26.931,166.337 27.019,166.337 27.207 M169.109 27.327 C 169.858 28.076,169.639 28.515,168.515 28.515 C 167.970 28.515,167.525 28.593,167.525 28.689 C 167.525 29.074,168.139 29.352,168.729 29.234 C 169.167 29.147,169.316 29.182,169.258 29.358 C 168.931 30.354,166.931 29.488,166.931 28.351 C 166.931 27.056,168.228 26.446,169.109 27.327 M171.881 27.093 C 171.881 27.174,171.614 27.341,171.287 27.464 C 170.734 27.673,170.693 27.758,170.693 28.696 C 170.693 29.459,170.621 29.703,170.396 29.703 C 170.161 29.703,170.099 29.420,170.099 28.342 L 170.099 26.981 170.990 26.963 C 171.480 26.953,171.881 27.011,171.881 27.093 M167.768 27.559 C 167.375 27.952,167.484 28.119,168.133 28.119 C 168.605 28.119,168.727 28.041,168.676 27.775 C 168.594 27.350,168.095 27.231,167.768 27.559 M8.317 194.059 L 8.317 213.465 39.604 213.465 L 70.891 213.465 70.891 194.059 L 70.891 174.653 39.604 174.653 L 8.317 174.653 8.317 194.059 M30.099 193.937 L 30.099 195.993 29.257 196.009 C 28.065 196.032,27.783 195.905,27.552 195.239 C 27.133 194.038,27.960 193.024,29.112 193.326 C 29.454 193.415,29.505 193.329,29.505 192.655 C 29.505 192.099,29.589 191.881,29.802 191.881 C 30.047 191.881,30.099 192.242,30.099 193.937 M40.000 193.960 C 40.000 195.677,39.948 196.040,39.703 196.040 C 39.458 196.040,39.406 195.677,39.406 193.960 C 39.406 192.244,39.458 191.881,39.703 191.881 C 39.948 191.881,40.000 192.244,40.000 193.960 M32.905 193.595 C 33.666 194.284,33.382 194.851,32.277 194.851 C 31.733 194.851,31.287 194.937,31.287 195.043 C 31.287 195.367,32.091 195.684,32.593 195.558 C 32.939 195.471,33.069 195.520,33.069 195.739 C 33.069 196.210,31.584 196.139,31.089 195.644 C 29.889 194.443,31.649 192.458,32.905 193.595 M34.065 193.515 C 34.067 193.651,34.231 194.119,34.427 194.554 L 34.784 195.347 35.131 194.307 C 35.332 193.704,35.595 193.267,35.758 193.267 C 36.136 193.267,36.118 193.403,35.564 194.768 C 34.881 196.451,34.499 196.427,33.836 194.657 C 33.346 193.350,33.337 193.267,33.687 193.267 C 33.892 193.267,34.062 193.379,34.065 193.515 M38.450 193.595 C 39.206 194.279,38.926 194.824,37.785 194.891 C 36.788 194.949,36.768 194.961,37.122 195.313 C 37.399 195.589,37.652 195.645,38.170 195.548 C 38.687 195.451,38.833 195.483,38.768 195.680 C 38.617 196.137,37.109 196.119,36.645 195.654 C 35.435 194.445,37.184 192.450,38.450 193.595 M43.004 193.595 C 43.462 194.009,43.482 195.188,43.039 195.677 C 42.253 196.546,40.594 195.851,40.594 194.653 C 40.594 193.476,42.129 192.803,43.004 193.595 M45.974 193.382 C 47.420 193.819,46.415 196.365,44.947 195.981 C 44.612 195.894,44.554 195.978,44.554 196.553 C 44.554 197.021,44.463 197.228,44.257 197.228 C 44.013 197.228,43.960 196.878,43.960 195.271 L 43.960 193.314 44.802 193.298 C 45.265 193.289,45.792 193.327,45.974 193.382 M49.307 193.663 C 50.056 194.413,49.837 194.851,48.713 194.851 C 48.168 194.851,47.723 194.930,47.723 195.025 C 47.723 195.411,48.337 195.689,48.927 195.571 C 49.365 195.483,49.514 195.518,49.456 195.695 C 49.129 196.690,47.129 195.825,47.129 194.688 C 47.129 193.393,48.426 192.783,49.307 193.663 M50.693 193.490 C 50.693 193.647,50.777 193.642,50.979 193.474 C 51.137 193.344,51.471 193.269,51.722 193.307 C 52.151 193.374,52.140 193.398,51.535 193.724 C 50.941 194.043,50.891 194.146,50.891 195.055 C 50.891 195.908,50.838 196.040,50.495 196.040 C 50.137 196.040,50.099 195.908,50.099 194.653 C 50.099 193.553,50.160 193.267,50.396 193.267 C 50.559 193.267,50.693 193.367,50.693 193.490 M28.356 193.901 C 27.635 194.623,28.449 196.076,29.217 195.438 C 29.767 194.981,29.466 193.663,28.812 193.663 C 28.692 193.663,28.487 193.770,28.356 193.901 M31.525 193.901 C 31.126 194.299,31.255 194.455,31.980 194.455 C 32.361 194.455,32.673 194.384,32.673 194.297 C 32.673 194.066,32.233 193.663,31.980 193.663 C 31.860 193.663,31.655 193.770,31.525 193.901 M37.030 194.059 C 36.836 194.421,36.879 194.455,37.518 194.455 C 38.250 194.455,38.379 194.300,37.980 193.901 C 37.630 193.551,37.270 193.611,37.030 194.059 M41.350 194.158 C 40.910 195.124,41.839 196.102,42.535 195.406 C 42.665 195.275,42.772 194.937,42.772 194.653 C 42.772 193.640,41.749 193.284,41.350 194.158 M44.792 193.901 C 44.454 194.239,44.498 195.152,44.868 195.459 C 45.297 195.815,45.823 195.466,45.905 194.770 C 46.010 193.887,45.334 193.359,44.792 193.901 M47.966 193.895 C 47.573 194.288,47.682 194.455,48.331 194.455 C 48.803 194.455,48.925 194.378,48.874 194.111 C 48.792 193.686,48.294 193.568,47.966 193.895 " stroke="none" fill="#84c4db" fill-rule="evenodd"></path><path id="path1" d="M134.257 27.723 L 134.257 47.921 150.076 47.921 C 165.728 47.921,165.895 47.917,165.998 47.525 C 166.101 47.131,166.004 47.129,150.576 47.129 L 135.050 47.129 135.050 27.723 L 135.050 8.317 166.337 8.317 L 197.624 8.317 197.624 27.723 L 197.624 47.129 182.098 47.129 C 166.669 47.129,166.572 47.131,166.675 47.525 C 166.778 47.917,166.945 47.921,182.597 47.921 L 198.416 47.921 198.416 27.723 L 198.416 7.525 166.337 7.525 L 134.257 7.525 134.257 27.723 M180.000 71.188 C 180.000 73.135,180.025 73.267,180.396 73.267 C 180.739 73.267,180.792 73.135,180.792 72.284 C 180.792 71.531,180.878 71.255,181.158 71.105 C 181.705 70.813,181.980 71.218,181.980 72.317 C 181.980 73.135,182.035 73.267,182.376 73.267 C 182.720 73.267,182.772 73.135,182.772 72.264 C 182.772 70.846,182.535 70.495,181.577 70.495 C 180.812 70.495,180.792 70.478,180.792 69.802 C 180.792 69.241,180.717 69.109,180.396 69.109 C 180.025 69.109,180.000 69.241,180.000 71.188 M149.505 69.802 C 149.505 69.987,149.692 70.099,150.000 70.099 C 150.308 70.099,150.495 69.987,150.495 69.802 C 150.495 69.617,150.308 69.505,150.000 69.505 C 149.692 69.505,149.505 69.617,149.505 69.802 M176.634 69.802 C 176.634 69.987,176.821 70.099,177.129 70.099 C 177.437 70.099,177.624 69.987,177.624 69.802 C 177.624 69.617,177.437 69.505,177.129 69.505 C 176.821 69.505,176.634 69.617,176.634 69.802 M154.171 70.336 C 153.925 70.623,153.876 70.797,154.028 70.848 C 154.155 70.890,154.257 71.308,154.257 71.782 C 154.257 73.040,154.397 73.267,155.170 73.267 C 155.643 73.267,155.842 73.177,155.842 72.962 C 155.842 72.780,155.701 72.680,155.495 72.714 C 155.212 72.762,155.137 72.600,155.088 71.832 C 155.034 70.995,155.073 70.891,155.435 70.891 C 155.658 70.891,155.842 70.802,155.842 70.693 C 155.842 70.584,155.663 70.495,155.446 70.495 C 155.226 70.495,155.050 70.363,155.050 70.198 C 155.050 69.764,154.600 69.835,154.171 70.336 M166.859 70.198 C 166.779 70.407,166.453 70.495,165.763 70.495 C 164.531 70.495,164.158 70.834,164.158 71.955 C 164.158 73.010,164.418 73.267,165.485 73.267 C 166.534 73.267,166.710 72.734,165.693 72.636 C 165.127 72.582,165.042 72.497,164.987 71.929 C 164.922 71.249,164.975 71.205,166.089 71.012 L 166.733 70.901 166.733 71.771 C 166.733 73.040,166.871 73.267,167.645 73.267 C 168.119 73.267,168.317 73.177,168.317 72.962 C 168.317 72.780,168.176 72.680,167.970 72.714 C 167.687 72.762,167.613 72.600,167.563 71.832 C 167.510 70.995,167.548 70.891,167.910 70.891 C 168.134 70.891,168.317 70.802,168.317 70.693 C 168.317 70.584,168.139 70.495,167.921 70.495 C 167.701 70.495,167.525 70.363,167.525 70.198 C 167.525 70.035,167.401 69.901,167.249 69.901 C 167.097 69.901,166.922 70.035,166.859 70.198 M178.049 70.324 C 177.874 70.603,177.854 70.789,177.990 70.872 C 178.102 70.942,178.222 71.487,178.255 72.084 L 178.317 73.168 179.059 73.230 C 179.634 73.277,179.802 73.220,179.802 72.974 C 179.802 72.781,179.666 72.679,179.455 72.714 C 179.172 72.762,179.098 72.600,179.049 71.832 C 178.995 70.995,179.033 70.891,179.395 70.891 C 179.619 70.891,179.802 70.802,179.802 70.693 C 179.802 70.584,179.624 70.495,179.406 70.495 C 179.186 70.495,179.010 70.363,179.010 70.198 C 179.010 69.754,178.351 69.840,178.049 70.324 M149.703 71.881 C 149.703 72.981,149.764 73.267,150.000 73.267 C 150.236 73.267,150.297 72.981,150.297 71.881 C 150.297 70.781,150.236 70.495,150.000 70.495 C 149.764 70.495,149.703 70.781,149.703 71.881 M151.089 71.872 C 151.089 73.607,151.572 73.897,151.730 72.256 C 151.899 70.498,152.871 70.450,152.871 72.199 C 152.871 73.143,152.918 73.267,153.276 73.267 C 153.650 73.267,153.677 73.164,153.623 71.931 L 153.564 70.594 152.327 70.535 L 151.089 70.476 151.089 71.872 M156.351 70.806 C 155.917 71.240,155.948 72.529,156.402 72.940 C 156.889 73.381,158.614 73.400,158.614 72.964 C 158.614 72.744,158.435 72.673,157.963 72.705 C 157.605 72.729,157.204 72.682,157.072 72.600 C 156.564 72.287,156.872 72.079,157.843 72.079 C 158.847 72.079,158.854 72.075,158.718 71.536 C 158.453 70.479,157.096 70.061,156.351 70.806 M159.208 71.907 C 159.208 72.984,159.270 73.267,159.505 73.267 C 159.713 73.267,159.802 73.057,159.802 72.561 C 159.802 71.667,160.107 71.089,160.580 71.089 C 160.782 71.089,160.998 70.957,161.060 70.796 C 161.151 70.559,160.982 70.507,160.190 70.525 L 159.208 70.547 159.208 71.907 M161.518 70.627 C 161.227 70.918,161.415 71.116,161.931 71.062 C 162.230 71.030,162.587 71.073,162.723 71.158 C 163.178 71.439,162.977 71.683,162.291 71.683 C 161.610 71.683,160.990 72.095,160.990 72.549 C 160.990 73.044,161.495 73.267,162.614 73.267 L 163.762 73.267 163.762 72.389 C 163.762 70.873,163.513 70.495,162.513 70.495 C 162.039 70.495,161.591 70.554,161.518 70.627 M168.762 70.626 C 168.194 70.856,168.494 71.695,169.257 72.011 C 169.666 72.180,170.042 72.359,170.093 72.408 C 170.303 72.608,169.584 72.838,169.069 72.735 C 168.644 72.650,168.515 72.699,168.515 72.946 C 168.515 73.199,168.721 73.267,169.481 73.267 C 171.079 73.267,171.416 72.277,170.039 71.629 C 169.186 71.227,169.229 70.846,170.107 71.021 C 170.564 71.113,170.693 71.068,170.693 70.817 C 170.693 70.497,169.398 70.370,168.762 70.626 M172.280 70.644 C 172.314 72.515,173.722 73.947,174.130 72.525 C 174.370 71.688,174.577 71.709,174.742 72.586 C 174.857 73.202,174.939 73.284,175.387 73.230 C 175.900 73.168,176.039 72.894,176.514 71.003 C 176.736 70.118,175.926 70.332,175.627 71.238 L 175.382 71.980 175.149 71.287 C 174.822 70.317,174.091 70.311,173.766 71.276 C 173.525 71.991,173.408 71.943,173.192 71.040 C 173.075 70.549,172.272 70.201,172.280 70.644 M176.832 71.881 C 176.832 72.981,176.893 73.267,177.129 73.267 C 177.364 73.267,177.426 72.981,177.426 71.881 C 177.426 70.781,177.364 70.495,177.129 70.495 C 176.893 70.495,176.832 70.781,176.832 71.881 M157.899 71.401 C 157.978 71.606,157.847 71.683,157.420 71.683 C 156.800 71.683,156.685 71.513,157.054 71.144 C 157.319 70.879,157.749 71.010,157.899 71.401 M162.970 72.164 C 162.970 72.211,162.834 72.385,162.668 72.552 C 162.279 72.940,161.664 72.757,161.999 72.353 C 162.204 72.106,162.970 71.957,162.970 72.164 M156.040 113.378 C 156.040 113.548,156.115 113.640,156.206 113.584 C 156.298 113.527,156.666 114.251,157.024 115.192 C 157.715 117.012,157.896 117.048,158.290 115.446 C 158.370 115.122,158.306 115.183,158.105 115.622 C 157.736 116.429,157.653 116.348,156.949 114.505 C 156.436 113.161,156.040 112.670,156.040 113.378 M158.927 113.395 C 158.859 113.574,158.849 113.767,158.906 113.824 C 158.963 113.881,159.010 113.809,159.010 113.663 C 159.010 113.518,159.068 113.457,159.138 113.528 C 159.209 113.598,159.248 114.371,159.225 115.244 C 159.198 116.260,159.259 116.832,159.393 116.832 C 159.527 116.832,159.604 116.148,159.604 114.950 C 159.604 113.109,159.303 112.417,158.927 113.395 M160.851 114.851 C 161.224 115.886,161.602 116.716,161.691 116.696 C 161.903 116.648,163.196 113.069,163.002 113.069 C 162.920 113.069,162.634 113.745,162.366 114.570 C 161.769 116.409,161.639 116.423,161.032 114.716 C 160.769 113.974,160.468 113.277,160.363 113.168 C 160.259 113.059,160.478 113.817,160.851 114.851 M164.634 113.352 C 163.934 113.657,163.762 113.985,163.762 115.022 C 163.762 116.302,164.936 117.205,165.884 116.654 C 166.175 116.484,166.106 116.447,165.495 116.442 C 163.325 116.424,163.422 113.487,165.594 113.451 C 166.246 113.441,166.346 113.399,166.040 113.267 C 165.498 113.035,165.341 113.044,164.634 113.352 M156.107 115.347 C 156.108 116.218,156.143 116.550,156.185 116.084 C 156.227 115.618,156.226 114.905,156.184 114.500 C 156.141 114.094,156.107 114.475,156.107 115.347 M168.924 114.245 C 168.716 114.377,168.822 114.442,169.318 114.490 C 170.361 114.589,170.328 115.143,169.266 115.366 C 168.627 115.501,168.401 115.648,168.357 115.958 C 168.271 116.561,168.806 116.943,169.361 116.675 C 169.794 116.466,169.792 116.462,169.269 116.449 C 168.179 116.422,168.339 115.748,169.491 115.518 C 170.129 115.390,170.153 115.407,170.056 115.910 C 170.001 116.199,170.033 116.436,170.126 116.436 C 170.220 116.436,170.297 115.993,170.297 115.453 C 170.297 114.264,169.710 113.748,168.924 114.245 M171.523 116.040 C 171.540 117.183,171.588 117.740,171.630 117.277 C 171.713 116.358,171.730 116.341,172.290 116.641 C 173.156 117.104,174.022 115.965,173.639 114.867 C 173.398 114.175,172.865 113.943,172.260 114.267 C 171.922 114.447,171.795 114.439,171.661 114.228 C 171.561 114.071,171.504 114.820,171.523 116.040 M174.656 115.990 C 174.654 117.342,174.727 118.020,174.872 118.020 C 175.008 118.020,175.062 117.719,175.015 117.223 C 174.953 116.569,174.993 116.449,175.242 116.553 C 175.982 116.860,176.227 116.843,176.615 116.454 C 177.643 115.427,176.639 113.619,175.407 114.278 C 175.094 114.446,174.960 114.434,174.829 114.228 C 174.728 114.069,174.658 114.784,174.656 115.990 M173.384 114.950 C 173.604 115.829,173.329 116.436,172.709 116.436 C 172.021 116.436,171.683 116.110,171.683 115.446 C 171.683 114.399,173.139 113.975,173.384 114.950 M176.670 114.950 C 177.039 115.761,176.604 116.477,175.791 116.399 C 175.136 116.335,174.819 115.539,175.128 114.734 C 175.319 114.237,176.415 114.391,176.670 114.950 M160.990 154.666 C 160.990 156.218,161.186 156.436,162.581 156.436 L 163.762 156.436 163.762 155.050 C 163.762 153.795,163.725 153.663,163.366 153.663 C 163.023 153.663,162.970 153.795,162.970 154.646 C 162.970 155.400,162.885 155.675,162.605 155.825 C 162.057 156.118,161.782 155.713,161.782 154.614 C 161.782 153.795,161.727 153.663,161.386 153.663 C 161.042 153.663,160.990 153.795,160.990 154.666 M164.396 153.901 C 163.918 154.379,164.132 154.873,164.956 155.197 C 165.920 155.575,165.877 155.963,164.880 155.883 C 164.337 155.839,164.158 155.900,164.158 156.130 C 164.158 156.546,165.986 156.561,166.329 156.148 C 166.702 155.699,166.489 155.177,165.800 154.852 C 164.992 154.471,164.982 154.158,165.777 154.158 C 166.119 154.158,166.437 154.047,166.483 153.911 C 166.596 153.581,164.725 153.572,164.396 153.901 M167.041 154.103 C 166.237 155.251,166.890 156.436,168.328 156.436 C 169.098 156.436,169.307 156.367,169.307 156.116 C 169.307 155.873,169.175 155.821,168.764 155.899 C 168.192 156.009,167.525 155.761,167.525 155.439 C 167.525 155.333,167.970 155.248,168.515 155.248 C 169.421 155.248,169.505 155.208,169.505 154.783 C 169.505 153.711,167.670 153.205,167.041 154.103 M169.950 153.795 C 169.382 154.024,169.682 154.863,170.446 155.179 C 170.854 155.349,171.230 155.527,171.281 155.576 C 171.492 155.777,170.772 156.006,170.257 155.903 C 169.832 155.818,169.703 155.867,169.703 156.114 C 169.703 156.367,169.909 156.436,170.669 156.436 C 172.267 156.436,172.604 155.445,171.227 154.797 C 170.374 154.395,170.417 154.014,171.295 154.190 C 171.752 154.281,171.881 154.236,171.881 153.985 C 171.881 153.666,170.586 153.538,169.950 153.795 M168.670 154.763 C 168.604 154.828,168.303 154.852,168.000 154.817 C 167.467 154.754,167.461 154.741,167.813 154.392 C 168.140 154.066,168.205 154.061,168.482 154.338 C 168.650 154.506,168.735 154.697,168.670 154.763 M7.525 194.059 L 7.525 214.257 39.604 214.257 L 71.683 214.257 71.683 204.380 C 71.683 194.668,71.676 194.500,71.287 194.398 C 70.895 194.296,70.891 194.392,70.891 203.880 L 70.891 213.465 39.604 213.465 L 8.317 213.465 8.317 194.059 L 8.317 174.653 39.604 174.653 L 70.891 174.653 70.891 184.239 C 70.891 193.727,70.895 193.823,71.287 193.721 C 71.676 193.619,71.683 193.451,71.683 183.739 L 71.683 173.861 39.604 173.861 L 7.525 173.861 7.525 194.059 M363.762 174.165 C 358.079 174.707,353.955 175.779,352.525 177.087 L 352.079 177.495 352.079 185.579 C 352.079 193.531,352.086 193.663,352.475 193.663 C 352.864 193.663,352.871 193.531,352.871 186.570 L 352.871 179.476 354.010 180.016 C 360.795 183.232,383.761 183.231,390.546 180.015 L 391.686 179.475 391.635 194.735 L 391.584 209.995 390.297 210.645 C 383.424 214.114,361.131 214.114,354.257 210.645 L 352.970 209.995 352.918 202.225 C 352.868 194.620,352.858 194.455,352.473 194.455 C 352.087 194.455,352.079 194.603,352.079 202.349 L 352.079 210.243 352.826 210.761 C 354.477 211.905,359.021 213.161,362.970 213.564 C 363.678 213.637,364.569 213.735,364.950 213.784 C 367.475 214.104,371.881 214.109,371.881 213.792 C 371.881 213.597,372.041 213.465,372.277 213.465 C 372.513 213.465,372.673 213.597,372.673 213.792 C 372.673 214.109,377.079 214.104,379.604 213.784 C 379.985 213.735,380.876 213.637,381.584 213.564 C 385.533 213.161,390.077 211.905,391.729 210.761 L 392.475 210.243 392.475 193.869 L 392.475 177.495 392.030 177.087 C 389.254 174.550,375.085 173.085,363.762 174.165 M379.742 174.866 C 387.332 175.504,392.470 177.111,391.564 178.564 C 388.902 182.835,355.652 182.835,352.990 178.564 C 351.387 175.993,367.172 173.811,379.742 174.866 M270.498 194.010 C 270.500 195.271,270.570 196.029,270.671 195.871 C 270.801 195.665,270.936 195.653,271.249 195.821 C 272.480 196.480,273.484 194.672,272.457 193.645 C 272.069 193.257,271.822 193.239,271.087 193.545 C 270.842 193.647,270.801 193.511,270.860 192.775 C 270.905 192.214,270.850 191.881,270.713 191.881 C 270.568 191.881,270.496 192.591,270.498 194.010 M285.619 193.960 C 285.619 195.158,285.652 195.623,285.691 194.993 C 285.731 194.363,285.730 193.382,285.690 192.815 C 285.650 192.247,285.618 192.762,285.619 193.960 M329.505 192.574 C 329.505 193.250,329.485 193.267,328.720 193.267 C 327.832 193.267,327.525 193.624,327.525 194.653 C 327.525 195.801,327.799 196.040,329.116 196.040 L 330.297 196.040 330.297 193.960 C 330.297 192.013,330.272 191.881,329.901 191.881 C 329.580 191.881,329.505 192.013,329.505 192.574 M154.693 193.788 C 154.648 195.624,154.827 195.921,155.982 195.921 C 156.999 195.921,157.236 195.479,157.188 193.675 L 157.149 192.178 157.080 193.655 C 157.000 195.352,156.833 195.644,155.941 195.644 C 155.048 195.644,154.881 195.352,154.801 193.655 L 154.732 192.178 154.693 193.788 M161.381 192.426 C 161.368 192.789,162.282 196.040,162.397 196.040 C 162.467 196.040,162.731 195.327,162.982 194.455 C 163.234 193.584,163.496 192.871,163.564 192.871 C 163.633 192.871,163.894 193.584,164.146 194.455 C 164.560 195.888,164.950 196.512,164.950 195.743 C 164.950 195.579,164.874 195.446,164.780 195.446 C 164.686 195.446,164.407 194.733,164.158 193.861 C 163.599 191.898,163.529 191.898,162.968 193.871 C 162.448 195.696,162.357 195.682,161.885 193.713 C 161.581 192.442,161.397 191.972,161.381 192.426 M165.248 193.663 C 165.058 194.436,164.948 195.113,165.002 195.167 C 165.057 195.222,165.256 194.634,165.446 193.861 C 165.635 193.089,165.745 192.412,165.691 192.357 C 165.636 192.303,165.437 192.891,165.248 193.663 M171.881 192.334 C 171.881 192.366,172.059 192.741,172.277 193.168 C 172.834 194.260,172.790 194.455,171.990 194.455 L 171.307 194.455 171.606 193.741 C 171.770 193.348,171.865 192.987,171.817 192.939 C 171.768 192.891,171.640 193.101,171.530 193.406 C 171.421 193.711,171.142 194.450,170.911 195.050 C 170.628 195.780,170.588 196.012,170.789 195.754 C 170.954 195.543,171.089 195.253,171.089 195.111 C 171.089 194.932,171.395 194.851,172.079 194.851 C 172.763 194.851,173.069 194.932,173.069 195.111 C 173.069 195.253,173.204 195.543,173.369 195.754 C 173.570 196.012,173.530 195.780,173.248 195.050 C 173.016 194.450,172.684 193.582,172.509 193.119 C 172.260 192.458,171.881 191.985,171.881 192.334 M174.489 194.208 C 174.507 195.270,174.556 195.813,174.599 195.416 C 174.667 194.770,174.747 194.680,175.359 194.565 C 177.194 194.221,176.836 192.277,174.938 192.277 C 174.457 192.277,174.456 192.285,174.489 194.208 M177.376 192.408 C 177.546 192.477,177.624 193.024,177.624 194.158 C 177.624 195.293,177.546 195.840,177.376 195.908 C 177.240 195.963,177.441 196.008,177.822 196.008 C 178.203 196.008,178.403 195.963,178.267 195.908 C 178.097 195.840,178.020 195.293,178.020 194.158 C 178.020 193.024,178.097 192.477,178.267 192.408 C 178.403 192.353,178.203 192.308,177.822 192.308 C 177.441 192.308,177.240 192.353,177.376 192.408 M176.204 193.345 C 176.278 193.995,175.996 194.250,175.198 194.254 C 174.693 194.257,174.653 194.199,174.653 193.453 L 174.653 192.649 175.396 192.711 C 176.051 192.765,176.146 192.840,176.204 193.345 M333.775 193.108 C 333.529 193.395,333.480 193.569,333.632 193.620 C 333.759 193.662,333.861 194.080,333.861 194.555 C 333.861 195.812,334.001 196.040,334.774 196.040 C 335.247 196.040,335.446 195.949,335.446 195.734 C 335.446 195.553,335.305 195.452,335.099 195.486 C 334.816 195.534,334.741 195.372,334.692 194.604 C 334.638 193.767,334.677 193.663,335.039 193.663 C 335.262 193.663,335.446 193.574,335.446 193.465 C 335.446 193.356,335.267 193.267,335.050 193.267 C 334.829 193.267,334.653 193.135,334.653 192.970 C 334.653 192.537,334.204 192.607,333.775 193.108 M97.624 194.270 C 97.624 195.822,97.820 196.040,99.215 196.040 L 100.396 196.040 100.396 194.653 C 100.396 193.399,100.358 193.267,100.000 193.267 C 99.657 193.267,99.604 193.399,99.604 194.250 C 99.604 195.004,99.518 195.279,99.238 195.429 C 98.691 195.722,98.416 195.317,98.416 194.218 C 98.416 193.399,98.361 193.267,98.020 193.267 C 97.676 193.267,97.624 193.399,97.624 194.270 M101.030 193.505 C 100.552 193.983,100.765 194.477,101.590 194.801 C 102.553 195.179,102.510 195.567,101.514 195.486 C 100.970 195.443,100.792 195.504,100.792 195.734 C 100.792 196.150,102.620 196.165,102.962 195.752 C 103.335 195.303,103.123 194.781,102.434 194.456 C 101.626 194.075,101.616 193.762,102.411 193.762 C 102.753 193.762,103.070 193.651,103.117 193.515 C 103.229 193.185,101.359 193.176,101.030 193.505 M103.675 193.707 C 102.871 194.855,103.524 196.040,104.962 196.040 C 105.731 196.040,105.941 195.971,105.941 195.719 C 105.941 195.477,105.808 195.425,105.398 195.503 C 104.826 195.612,104.158 195.365,104.158 195.043 C 104.158 194.937,104.604 194.851,105.149 194.851 C 106.055 194.851,106.139 194.812,106.139 194.387 C 106.139 193.315,104.304 192.809,103.675 193.707 M106.584 193.398 C 106.016 193.628,106.315 194.467,107.079 194.783 C 107.488 194.953,107.864 195.131,107.915 195.180 C 108.125 195.381,107.406 195.610,106.891 195.507 C 106.466 195.422,106.337 195.471,106.337 195.718 C 106.337 195.971,106.543 196.040,107.302 196.040 C 108.901 196.040,109.238 195.049,107.860 194.401 C 107.008 193.999,107.050 193.618,107.928 193.794 C 108.386 193.885,108.515 193.840,108.515 193.589 C 108.515 193.270,107.220 193.142,106.584 193.398 M158.455 194.653 C 158.480 195.811,158.504 195.921,158.563 195.154 C 158.654 193.972,158.874 193.663,159.624 193.663 C 160.236 193.663,160.328 193.849,160.458 195.347 C 160.512 195.965,160.535 195.893,160.561 195.014 C 160.606 193.500,160.127 192.974,159.170 193.486 C 158.856 193.654,158.722 193.642,158.592 193.436 C 158.490 193.276,158.435 193.764,158.455 194.653 M166.986 193.469 C 165.603 194.026,166.645 196.392,168.049 195.881 C 168.599 195.680,168.592 195.674,167.779 195.659 C 166.269 195.631,166.150 194.653,167.657 194.653 C 168.651 194.653,168.857 194.123,168.075 193.576 C 167.578 193.227,167.585 193.228,166.986 193.469 M216.436 194.270 C 216.436 195.822,216.631 196.040,218.027 196.040 L 219.208 196.040 219.208 194.653 C 219.208 193.399,219.170 193.267,218.812 193.267 C 218.469 193.267,218.416 193.399,218.416 194.250 C 218.416 195.004,218.330 195.279,218.050 195.429 C 217.503 195.722,217.228 195.317,217.228 194.218 C 217.228 193.399,217.173 193.267,216.832 193.267 C 216.488 193.267,216.436 193.399,216.436 194.270 M219.842 193.505 C 219.364 193.983,219.577 194.477,220.402 194.801 C 221.365 195.179,221.322 195.567,220.326 195.486 C 219.782 195.443,219.604 195.504,219.604 195.734 C 219.604 196.150,221.431 196.165,221.774 195.752 C 222.147 195.303,221.935 194.781,221.246 194.456 C 220.438 194.075,220.427 193.762,221.222 193.762 C 221.565 193.762,221.882 193.651,221.929 193.515 C 222.041 193.185,220.171 193.176,219.842 193.505 M222.486 193.707 C 221.682 194.855,222.336 196.040,223.774 196.040 C 224.543 196.040,224.752 195.971,224.752 195.719 C 224.752 195.477,224.620 195.425,224.210 195.503 C 223.638 195.612,222.970 195.365,222.970 195.043 C 222.970 194.937,223.416 194.851,223.960 194.851 C 224.867 194.851,224.950 194.812,224.950 194.387 C 224.950 193.315,223.116 192.809,222.486 193.707 M225.396 193.398 C 224.827 193.628,225.127 194.467,225.891 194.783 C 226.300 194.953,226.676 195.131,226.727 195.180 C 226.937 195.381,226.218 195.610,225.702 195.507 C 225.278 195.422,225.149 195.471,225.149 195.718 C 225.149 195.971,225.355 196.040,226.114 196.040 C 227.713 196.040,228.050 195.049,226.672 194.401 C 225.820 193.999,225.862 193.618,226.740 193.794 C 227.198 193.885,227.327 193.840,227.327 193.589 C 227.327 193.270,226.032 193.142,225.396 193.398 M263.189 193.419 C 263.155 193.837,263.817 196.040,263.977 196.040 C 264.059 196.040,264.278 195.572,264.464 195.000 C 264.902 193.651,265.077 193.483,265.246 194.252 C 265.322 194.597,265.429 194.835,265.484 194.780 C 265.620 194.644,265.155 193.267,264.973 193.267 C 264.894 193.267,264.645 193.824,264.420 194.505 C 263.991 195.807,263.977 195.802,263.498 194.158 C 263.339 193.614,263.200 193.281,263.189 193.419 M266.530 193.775 C 266.424 194.055,266.337 194.361,266.337 194.455 C 266.337 195.073,265.892 195.731,265.735 195.347 C 265.629 195.089,265.569 195.055,265.562 195.248 C 265.513 196.560,266.071 196.175,266.527 194.581 C 266.900 193.279,266.901 192.798,266.530 193.775 M267.965 193.576 C 266.846 194.359,267.755 196.309,269.058 195.920 C 269.595 195.760,269.592 195.756,268.876 195.689 C 267.414 195.553,267.380 194.653,268.837 194.653 C 269.670 194.653,269.721 194.624,269.597 194.208 C 269.334 193.323,268.685 193.071,267.965 193.576 M274.313 193.469 C 273.460 193.812,273.479 195.478,274.340 195.870 C 274.675 196.023,274.913 196.022,275.176 195.870 C 275.499 195.682,275.469 195.655,274.941 195.650 C 274.199 195.642,273.861 195.330,273.861 194.653 C 273.861 193.985,274.199 193.663,274.903 193.663 C 275.230 193.663,275.417 193.580,275.347 193.465 C 275.200 193.229,274.907 193.230,274.313 193.469 M276.494 194.653 C 276.503 195.713,276.529 195.856,276.583 195.154 C 276.668 194.057,276.897 193.663,277.450 193.663 C 277.654 193.663,277.822 193.574,277.822 193.465 C 277.822 193.186,277.583 193.219,277.088 193.565 C 276.703 193.835,276.655 193.831,276.572 193.516 C 276.522 193.325,276.487 193.837,276.494 194.653 M278.911 193.457 C 278.593 193.588,278.670 193.634,279.305 193.691 C 280.219 193.773,280.548 194.362,279.764 194.512 L 279.307 194.600 279.752 194.626 C 280.660 194.681,280.107 195.644,279.168 195.644 C 278.530 195.644,278.360 194.947,278.960 194.790 C 279.253 194.714,279.257 194.696,278.985 194.676 C 278.553 194.646,278.182 195.121,278.332 195.512 C 278.501 195.952,279.113 196.104,279.622 195.832 C 279.959 195.652,280.087 195.660,280.220 195.871 C 280.326 196.038,280.391 195.717,280.393 195.014 C 280.397 193.499,279.952 193.031,278.911 193.457 M281.440 194.653 C 281.662 195.416,281.919 196.040,282.011 196.040 C 282.236 196.040,282.224 195.695,281.994 195.553 C 281.892 195.490,281.700 194.950,281.566 194.353 C 281.432 193.756,281.258 193.267,281.179 193.267 C 281.100 193.267,281.218 193.891,281.440 194.653 M282.772 193.426 C 282.772 193.513,282.850 193.669,282.946 193.772 C 283.041 193.876,283.271 194.428,283.457 195.000 C 283.895 196.349,283.998 196.314,284.487 194.653 C 284.712 193.891,284.833 193.267,284.756 193.267 C 284.680 193.267,284.499 193.762,284.354 194.366 C 284.003 195.831,283.885 195.842,283.463 194.449 C 283.161 193.450,282.772 192.874,282.772 193.426 M287.464 193.487 C 286.172 194.239,287.052 196.339,288.484 195.919 C 288.962 195.779,288.928 195.754,288.119 195.655 C 286.693 195.479,286.681 194.653,288.105 194.653 C 289.196 194.653,289.217 194.636,288.881 193.997 C 288.493 193.259,288.100 193.118,287.464 193.487 M289.938 194.653 L 289.950 196.139 290.106 195.068 C 290.191 194.479,290.186 193.811,290.094 193.583 C 289.981 193.305,289.930 193.659,289.938 194.653 M290.706 193.549 C 290.514 193.780,290.546 193.811,290.880 193.724 C 291.104 193.665,291.287 193.538,291.287 193.442 C 291.287 193.175,290.967 193.234,290.706 193.549 M320.990 194.270 C 320.990 195.822,321.186 196.040,322.581 196.040 L 323.762 196.040 323.762 194.653 C 323.762 193.399,323.725 193.267,323.366 193.267 C 323.023 193.267,322.970 193.399,322.970 194.250 C 322.970 195.004,322.885 195.279,322.605 195.429 C 322.057 195.722,321.782 195.317,321.782 194.218 C 321.782 193.399,321.727 193.267,321.386 193.267 C 321.042 193.267,320.990 193.399,320.990 194.270 M324.356 195.248 C 324.356 197.096,324.383 197.228,324.752 197.228 C 325.061 197.228,325.149 197.096,325.149 196.634 C 325.149 196.078,325.197 196.040,325.901 196.040 C 326.882 196.040,327.129 195.761,327.129 194.653 C 327.129 193.470,326.892 193.267,325.505 193.267 L 324.356 193.267 324.356 195.248 M330.989 193.467 C 330.833 193.720,331.260 193.888,331.881 193.817 C 332.206 193.780,332.383 193.874,332.432 194.109 C 332.490 194.386,332.367 194.455,331.821 194.455 C 330.074 194.455,330.272 195.916,332.030 196.000 L 333.267 196.059 333.267 194.901 C 333.267 194.264,333.160 193.636,333.030 193.505 C 332.742 193.217,331.162 193.188,330.989 193.467 M335.955 193.579 C 334.992 194.542,335.775 196.040,337.242 196.040 C 337.986 196.040,338.218 195.968,338.218 195.736 C 338.218 195.517,338.038 195.445,337.567 195.477 C 337.209 195.501,336.808 195.454,336.676 195.372 C 336.187 195.071,336.461 194.851,337.327 194.851 C 338.171 194.851,338.218 194.822,338.218 194.297 C 338.218 193.300,336.711 192.822,335.955 193.579 M338.746 193.399 C 338.340 193.806,338.650 194.466,339.436 194.867 C 340.341 195.329,340.181 195.710,339.168 195.507 C 338.737 195.421,338.614 195.470,338.614 195.728 C 338.614 196.004,338.789 196.050,339.653 196.000 C 341.128 195.916,341.333 194.913,339.986 194.374 C 339.044 193.997,339.096 193.760,340.106 193.828 C 340.610 193.862,340.792 193.793,340.792 193.571 C 340.792 193.257,339.035 193.110,338.746 193.399 M105.303 194.367 C 105.238 194.432,104.937 194.456,104.634 194.421 C 104.101 194.358,104.095 194.345,104.446 193.996 C 104.774 193.670,104.839 193.665,105.116 193.942 C 105.284 194.110,105.369 194.301,105.303 194.367 M168.119 193.746 C 168.119 193.792,168.173 193.970,168.239 194.142 C 168.338 194.400,168.197 194.455,167.440 194.455 C 166.582 194.455,166.535 194.429,166.733 194.059 C 166.914 193.721,168.119 193.448,168.119 193.746 M224.115 194.367 C 224.050 194.432,223.749 194.456,223.446 194.421 C 222.912 194.358,222.907 194.345,223.258 193.996 C 223.586 193.670,223.651 193.665,223.927 193.942 C 224.096 194.110,224.180 194.301,224.115 194.367 M269.270 194.109 C 269.324 194.393,269.191 194.455,268.529 194.455 C 267.692 194.455,267.549 194.312,267.969 193.892 C 268.317 193.545,269.191 193.690,269.270 194.109 M272.547 194.098 C 272.951 194.745,272.471 195.545,271.678 195.545 C 270.970 195.545,270.643 194.794,270.975 193.929 C 271.126 193.535,272.271 193.659,272.547 194.098 M288.676 194.109 C 288.730 194.393,288.596 194.455,287.935 194.455 C 287.168 194.455,286.885 194.171,287.270 193.786 C 287.547 193.509,288.609 193.753,288.676 194.109 M326.337 194.638 C 326.337 195.348,325.988 195.683,325.514 195.429 C 325.038 195.175,325.024 194.149,325.493 193.886 C 325.958 193.626,326.337 193.963,326.337 194.638 M329.505 194.653 C 329.505 195.322,328.922 195.773,328.545 195.397 C 327.954 194.805,328.459 193.513,329.139 193.878 C 329.367 194.000,329.505 194.292,329.505 194.653 M337.426 194.180 C 337.426 194.342,337.222 194.455,336.931 194.455 C 336.397 194.455,336.304 194.270,336.658 193.916 C 336.934 193.640,337.426 193.809,337.426 194.180 M332.475 195.025 C 332.475 195.404,331.875 195.717,331.627 195.469 C 331.442 195.284,331.455 195.189,331.685 195.044 C 332.058 194.808,332.475 194.798,332.475 195.025 M272.079 247.228 C 272.079 247.413,272.266 247.525,272.574 247.525 C 272.882 247.525,273.069 247.413,273.069 247.228 C 273.069 247.043,272.882 246.931,272.574 246.931 C 272.266 246.931,272.079 247.043,272.079 247.228 M260.601 248.303 C 259.985 249.456,260.497 250.693,261.591 250.693 C 262.331 250.693,262.376 250.727,262.376 251.287 C 262.376 251.749,262.464 251.881,262.772 251.881 C 263.142 251.881,263.168 251.749,263.168 249.927 L 263.168 247.973 261.988 247.946 C 261.006 247.924,260.772 247.984,260.601 248.303 M263.762 249.069 C 263.762 249.701,263.869 250.325,264.000 250.455 C 264.131 250.586,264.754 250.693,265.386 250.693 L 266.535 250.693 266.535 249.307 C 266.535 248.053,266.497 247.921,266.139 247.921 C 265.802 247.921,265.743 248.053,265.743 248.798 C 265.743 249.739,265.338 250.357,264.846 250.168 C 264.639 250.089,264.554 249.746,264.554 248.989 C 264.554 248.053,264.505 247.921,264.158 247.921 C 263.808 247.921,263.762 248.053,263.762 249.069 M267.242 248.232 C 266.808 248.666,266.839 249.955,267.293 250.365 C 267.780 250.806,269.505 250.825,269.505 250.390 C 269.505 250.170,269.326 250.099,268.854 250.130 C 268.496 250.155,268.095 250.108,267.963 250.026 C 267.456 249.712,267.763 249.505,268.734 249.505 C 269.738 249.505,269.745 249.501,269.610 248.962 C 269.344 247.904,267.987 247.486,267.242 248.232 M270.099 249.333 C 270.099 250.410,270.161 250.693,270.396 250.693 C 270.605 250.693,270.693 250.483,270.693 249.987 C 270.693 249.093,270.998 248.515,271.471 248.515 C 271.673 248.515,271.889 248.383,271.951 248.222 C 272.042 247.985,271.873 247.933,271.081 247.950 L 270.099 247.973 270.099 249.333 M272.277 249.307 C 272.277 250.407,272.339 250.693,272.574 250.693 C 272.810 250.693,272.871 250.407,272.871 249.307 C 272.871 248.207,272.810 247.921,272.574 247.921 C 272.339 247.921,272.277 248.207,272.277 249.307 M273.777 248.232 C 272.813 249.195,273.597 250.693,275.064 250.693 C 275.808 250.693,276.040 250.621,276.040 250.390 C 276.040 250.170,275.860 250.099,275.389 250.130 C 275.030 250.155,274.629 250.108,274.497 250.026 C 274.009 249.724,274.283 249.505,275.149 249.505 C 275.992 249.505,276.040 249.476,276.040 248.950 C 276.040 247.954,274.533 247.475,273.777 248.232 M276.429 248.329 C 276.161 248.829,276.387 249.157,277.242 249.511 C 278.038 249.841,277.870 250.215,276.961 250.133 C 276.398 250.082,276.238 250.140,276.238 250.390 C 276.238 250.658,276.432 250.703,277.376 250.653 C 278.948 250.571,279.209 249.588,277.808 249.027 C 276.866 248.651,276.918 248.413,277.928 248.481 C 278.432 248.515,278.614 248.447,278.614 248.224 C 278.614 247.713,276.710 247.805,276.429 248.329 M262.376 249.307 C 262.376 249.975,261.793 250.427,261.416 250.050 C 260.825 249.459,261.330 248.167,262.011 248.531 C 262.238 248.653,262.376 248.946,262.376 249.307 M268.790 248.827 C 268.869 249.032,268.738 249.109,268.311 249.109 C 267.691 249.109,267.576 248.939,267.945 248.570 C 268.210 248.305,268.640 248.435,268.790 248.827 M275.248 248.833 C 275.248 248.995,275.044 249.109,274.752 249.109 C 274.219 249.109,274.126 248.924,274.480 248.570 C 274.756 248.294,275.248 248.462,275.248 248.833 " stroke="none" fill="#3e7385" fill-rule="evenodd"></path><path id="path2" d="M166.077 47.257 C 165.678 47.656,165.934 66.535,166.339 66.535 C 166.732 66.535,166.736 66.435,166.685 56.898 C 166.636 47.650,166.579 46.754,166.077 47.257 M165.941 85.347 L 165.941 94.653 150.099 94.653 L 134.257 94.653 134.257 114.851 L 134.257 135.050 150.099 135.050 L 165.941 135.050 165.941 142.376 C 165.941 149.571,165.948 149.703,166.337 149.703 C 166.726 149.703,166.733 149.571,166.733 142.376 L 166.733 135.050 182.574 135.050 L 198.416 135.050 198.416 114.851 L 198.416 94.653 182.574 94.653 L 166.733 94.653 166.733 85.347 C 166.733 76.172,166.727 76.040,166.337 76.040 C 165.946 76.040,165.941 76.172,165.941 85.347 M197.624 114.851 L 197.624 134.257 166.337 134.257 L 135.050 134.257 135.050 114.851 L 135.050 95.446 166.337 95.446 L 197.624 95.446 197.624 114.851 M155.895 114.950 C 155.919 116.747,155.928 116.790,155.988 115.414 C 156.034 114.393,156.150 113.818,156.345 113.657 C 156.504 113.525,156.631 113.316,156.628 113.194 C 156.624 113.071,156.521 113.145,156.397 113.358 C 156.174 113.742,156.171 113.742,156.021 113.358 C 155.937 113.144,155.881 113.860,155.895 114.950 M171.360 116.040 C 171.360 117.183,171.393 117.651,171.433 117.079 C 171.473 116.507,171.473 115.572,171.433 115.000 C 171.393 114.428,171.360 114.896,171.360 116.040 M163.614 114.950 C 163.616 115.386,163.657 115.541,163.704 115.295 C 163.752 115.048,163.750 114.692,163.700 114.503 C 163.651 114.313,163.612 114.515,163.614 114.950 M170.283 115.644 C 170.174 116.735,170.202 116.993,170.407 116.788 C 170.468 116.727,170.489 116.200,170.455 115.616 L 170.393 114.554 170.283 115.644 M171.729 115.446 C 171.729 115.827,171.770 115.983,171.820 115.792 C 171.869 115.601,171.869 115.290,171.820 115.099 C 171.770 114.908,171.729 115.064,171.729 115.446 M169.109 115.436 C 169.272 115.547,169.577 115.639,169.785 115.641 C 170.292 115.645,170.134 115.531,169.406 115.368 C 168.972 115.271,168.892 115.290,169.109 115.436 M157.384 115.861 C 157.303 116.073,157.403 116.158,157.731 116.158 C 157.985 116.158,158.147 116.086,158.092 115.997 C 158.037 115.908,157.917 115.882,157.825 115.939 C 157.733 115.996,157.622 115.935,157.578 115.803 C 157.524 115.641,157.462 115.660,157.384 115.861 M161.319 115.929 C 161.242 116.130,161.225 116.341,161.282 116.398 C 161.339 116.455,161.386 116.403,161.386 116.282 C 161.386 116.161,161.559 116.096,161.771 116.136 C 162.048 116.190,162.123 116.127,162.040 115.910 C 161.956 115.691,161.886 115.674,161.779 115.847 C 161.668 116.027,161.611 116.021,161.545 115.824 C 161.486 115.645,161.415 115.678,161.319 115.929 M171.761 116.716 C 171.702 116.870,171.686 117.249,171.725 117.558 C 171.783 118.016,171.814 117.964,171.893 117.277 C 171.993 116.411,171.950 116.225,171.761 116.716 M165.941 166.535 L 165.941 173.861 150.099 173.861 L 134.257 173.861 134.257 183.762 L 134.257 193.663 121.980 193.663 C 109.835 193.663,109.703 193.668,109.703 194.059 C 109.703 194.451,109.835 194.455,121.980 194.455 L 134.257 194.455 134.257 204.356 L 134.257 214.257 150.099 214.257 L 165.941 214.257 165.941 230.273 C 165.941 247.875,165.884 247.044,167.163 248.241 C 168.363 249.365,165.823 249.307,214.089 249.307 L 259.010 249.307 259.010 248.812 L 259.010 248.317 214.109 248.312 C 170.839 248.308,169.179 248.295,168.401 247.942 C 166.749 247.191,166.839 248.176,166.774 230.149 L 166.717 214.257 182.566 214.257 L 198.416 214.257 198.416 204.356 L 198.416 194.455 206.733 194.455 C 214.917 194.455,215.050 194.449,215.050 194.059 C 215.050 193.670,214.917 193.663,206.733 193.663 L 198.416 193.663 198.416 183.762 L 198.416 173.861 182.574 173.861 L 166.733 173.861 166.733 166.535 C 166.733 159.340,166.726 159.208,166.337 159.208 C 165.948 159.208,165.941 159.340,165.941 166.535 M245.149 183.762 L 245.149 193.663 236.832 193.663 C 228.647 193.663,228.515 193.670,228.515 194.059 C 228.515 194.449,228.647 194.455,236.832 194.455 L 245.149 194.455 245.149 204.356 L 245.149 214.257 277.228 214.257 L 309.307 214.257 309.307 204.356 L 309.307 194.455 314.455 194.455 C 319.472 194.455,319.604 194.445,319.604 194.059 C 319.604 193.674,319.472 193.663,314.455 193.663 L 309.307 193.663 309.307 183.762 L 309.307 173.861 277.228 173.861 L 245.149 173.861 245.149 183.762 M197.624 194.059 L 197.624 213.465 166.337 213.465 L 135.050 213.465 135.050 194.059 L 135.050 174.653 166.337 174.653 L 197.624 174.653 197.624 194.059 M308.515 194.059 L 308.515 213.465 277.228 213.465 L 245.941 213.465 245.941 194.059 L 245.941 174.653 277.228 174.653 L 308.515 174.653 308.515 194.059 M366.785 174.796 C 367.086 174.841,367.531 174.840,367.775 174.793 C 368.019 174.746,367.772 174.709,367.228 174.710 C 366.683 174.712,366.484 174.750,366.785 174.796 M376.884 174.796 C 377.185 174.841,377.630 174.840,377.874 174.793 C 378.118 174.746,377.871 174.709,377.327 174.710 C 376.782 174.712,376.583 174.750,376.884 174.796 M364.111 174.992 C 364.358 175.039,364.714 175.037,364.903 174.988 C 365.093 174.938,364.891 174.899,364.455 174.901 C 364.020 174.904,363.865 174.944,364.111 174.992 M379.755 174.992 C 380.001 175.039,380.358 175.037,380.547 174.988 C 380.736 174.938,380.535 174.899,380.099 174.901 C 379.663 174.904,379.508 174.944,379.755 174.992 M362.228 175.186 C 362.418 175.236,362.730 175.236,362.921 175.186 C 363.111 175.136,362.955 175.095,362.574 175.095 C 362.193 175.095,362.037 175.136,362.228 175.186 M381.634 175.186 C 381.824 175.236,382.136 175.236,382.327 175.186 C 382.517 175.136,382.361 175.095,381.980 175.095 C 381.599 175.095,381.443 175.136,381.634 175.186 M355.545 180.792 C 355.762 180.886,356.074 180.962,356.238 180.962 C 356.425 180.962,356.388 180.899,356.139 180.792 C 355.921 180.698,355.609 180.622,355.446 180.622 C 355.258 180.622,355.295 180.685,355.545 180.792 M388.416 180.792 C 388.166 180.899,388.130 180.962,388.317 180.962 C 388.480 180.962,388.792 180.886,389.010 180.792 C 389.260 180.685,389.296 180.622,389.109 180.622 C 388.946 180.622,388.634 180.698,388.416 180.792 M362.228 181.325 C 362.418 181.374,362.730 181.374,362.921 181.325 C 363.111 181.275,362.955 181.234,362.574 181.234 C 362.193 181.234,362.037 181.275,362.228 181.325 M381.634 181.325 C 381.824 181.374,382.136 181.374,382.327 181.325 C 382.517 181.275,382.361 181.234,381.980 181.234 C 381.599 181.234,381.443 181.275,381.634 181.325 M364.111 181.526 C 364.358 181.574,364.714 181.572,364.903 181.522 C 365.093 181.473,364.891 181.434,364.455 181.436 C 364.020 181.438,363.865 181.479,364.111 181.526 M379.755 181.526 C 380.001 181.574,380.358 181.572,380.547 181.522 C 380.736 181.473,380.535 181.434,380.099 181.436 C 379.663 181.438,379.508 181.479,379.755 181.526 M366.785 181.726 C 367.086 181.772,367.531 181.771,367.775 181.724 C 368.019 181.677,367.772 181.639,367.228 181.641 C 366.683 181.642,366.484 181.681,366.785 181.726 M376.884 181.726 C 377.185 181.772,377.630 181.771,377.874 181.724 C 378.118 181.677,377.871 181.639,377.327 181.641 C 376.782 181.642,376.583 181.681,376.884 181.726 M362.624 182.117 C 362.814 182.167,363.126 182.167,363.317 182.117 C 363.507 182.067,363.351 182.026,362.970 182.026 C 362.589 182.026,362.433 182.067,362.624 182.117 M381.238 182.117 C 381.428 182.167,381.740 182.167,381.931 182.117 C 382.121 182.067,381.965 182.026,381.584 182.026 C 381.203 182.026,381.047 182.067,381.238 182.117 M364.805 182.320 C 365.106 182.366,365.551 182.365,365.795 182.318 C 366.038 182.271,365.792 182.233,365.248 182.235 C 364.703 182.236,364.504 182.275,364.805 182.320 M378.864 182.320 C 379.165 182.366,379.611 182.365,379.854 182.318 C 380.098 182.271,379.851 182.233,379.307 182.235 C 378.762 182.236,378.563 182.275,378.864 182.320 M368.267 182.523 C 368.948 182.562,370.062 182.562,370.743 182.523 C 371.423 182.484,370.866 182.453,369.505 182.453 C 368.144 182.453,367.587 182.484,368.267 182.523 M373.812 182.523 C 374.493 182.562,375.606 182.562,376.287 182.523 C 376.968 182.484,376.411 182.453,375.050 182.453 C 373.688 182.453,373.131 182.484,373.812 182.523 M285.817 193.960 C 285.817 195.158,285.850 195.623,285.889 194.993 C 285.929 194.363,285.928 193.382,285.888 192.815 C 285.848 192.247,285.816 192.762,285.817 193.960 M154.523 193.762 C 154.524 194.634,154.559 194.965,154.601 194.500 C 154.643 194.034,154.642 193.321,154.599 192.916 C 154.557 192.510,154.523 192.891,154.523 193.762 M156.861 193.673 C 156.844 194.549,156.729 195.283,156.584 195.446 C 156.377 195.678,156.388 195.685,156.652 195.487 C 156.825 195.357,157.003 195.288,157.048 195.332 C 157.092 195.377,157.104 194.909,157.073 194.291 C 156.977 192.365,156.892 192.118,156.861 193.673 M157.294 193.663 C 157.294 194.480,157.329 194.814,157.372 194.406 C 157.415 193.998,157.415 193.329,157.372 192.921 C 157.329 192.512,157.294 192.847,157.294 193.663 M174.330 194.158 C 174.330 195.248,174.364 195.668,174.404 195.092 C 174.444 194.517,174.443 193.626,174.403 193.112 C 174.362 192.598,174.329 193.069,174.330 194.158 M163.171 192.600 C 163.166 193.022,163.703 193.312,163.838 192.959 C 164.021 192.484,163.980 192.337,163.759 192.673 C 163.586 192.937,163.543 192.937,163.369 192.673 C 163.262 192.510,163.173 192.477,163.171 192.600 M158.284 194.653 C 158.284 195.470,158.319 195.804,158.362 195.396 C 158.405 194.988,158.405 194.319,158.362 193.911 C 158.319 193.502,158.284 193.837,158.284 194.653 M276.304 194.653 C 276.304 195.470,276.339 195.804,276.382 195.396 C 276.425 194.988,276.425 194.319,276.382 193.911 C 276.339 193.502,276.304 193.837,276.304 194.653 M290.115 193.503 C 290.094 193.954,290.424 194.134,290.571 193.751 C 290.636 193.583,290.608 193.495,290.510 193.555 C 290.411 193.616,290.286 193.554,290.231 193.417 C 290.168 193.262,290.124 193.295,290.115 193.503 M282.574 193.618 C 282.574 193.906,283.132 194.081,283.281 193.840 C 283.350 193.728,283.353 193.584,283.287 193.518 C 283.222 193.453,283.168 193.514,283.168 193.655 C 283.168 193.859,283.109 193.861,282.871 193.663 C 282.700 193.521,282.574 193.502,282.574 193.618 M70.990 193.861 C 70.646 194.418,71.446 194.455,83.675 194.455 C 96.106 194.455,96.238 194.451,96.238 194.059 C 96.238 193.610,71.267 193.414,70.990 193.861 M341.782 194.059 C 341.782 194.446,341.914 194.455,347.327 194.455 C 352.739 194.455,352.871 194.446,352.871 194.059 C 352.871 193.673,352.739 193.663,347.327 193.663 C 341.914 193.663,341.782 193.673,341.782 194.059 M272.551 194.147 C 272.491 194.304,272.477 194.593,272.519 194.790 C 272.568 195.014,272.636 194.907,272.700 194.505 C 272.808 193.831,272.738 193.662,272.551 194.147 M273.762 194.656 C 273.762 195.072,273.799 195.376,273.843 195.332 C 273.888 195.287,274.066 195.357,274.239 195.487 C 274.503 195.685,274.514 195.678,274.307 195.446 C 274.171 195.293,274.059 194.924,274.059 194.626 C 274.059 194.327,273.993 194.041,273.911 193.991 C 273.829 193.941,273.762 194.240,273.762 194.656 M158.673 195.050 C 158.673 195.649,158.710 195.894,158.756 195.594 C 158.801 195.295,158.801 194.804,158.756 194.505 C 158.710 194.205,158.673 194.450,158.673 195.050 M160.257 195.050 C 160.257 195.649,160.294 195.894,160.340 195.594 C 160.385 195.295,160.385 194.804,160.340 194.505 C 160.294 194.205,160.257 194.450,160.257 195.050 M168.515 194.356 C 168.515 194.576,168.285 194.653,167.635 194.653 C 167.152 194.653,166.715 194.720,166.664 194.802 C 166.613 194.884,167.053 194.920,167.642 194.883 C 168.540 194.826,168.713 194.754,168.713 194.437 C 168.713 194.229,168.668 194.059,168.614 194.059 C 168.559 194.059,168.515 194.193,168.515 194.356 M267.373 194.653 C 267.373 195.035,267.413 195.191,267.463 195.000 C 267.513 194.809,267.513 194.498,267.463 194.307 C 267.413 194.116,267.373 194.272,267.373 194.653 M279.088 194.620 C 279.167 194.747,279.397 194.851,279.599 194.851 C 279.801 194.851,280.012 194.963,280.067 195.099 C 280.127 195.247,280.173 195.207,280.182 195.000 C 280.191 194.809,280.072 194.653,279.917 194.653 C 279.763 194.653,279.481 194.594,279.291 194.521 C 279.055 194.430,278.990 194.462,279.088 194.620 M290.153 195.248 C 290.153 195.738,290.192 195.938,290.239 195.693 C 290.286 195.448,290.286 195.047,290.239 194.802 C 290.192 194.557,290.153 194.757,290.153 195.248 M268.369 194.796 C 268.670 194.841,269.116 194.840,269.359 194.793 C 269.603 194.746,269.356 194.709,268.812 194.710 C 268.267 194.712,268.068 194.750,268.369 194.796 M287.574 194.795 C 287.874 194.841,288.364 194.841,288.663 194.795 C 288.963 194.750,288.718 194.713,288.119 194.713 C 287.520 194.713,287.275 194.750,287.574 194.795 M162.098 195.171 C 162.028 195.353,162.018 195.549,162.075 195.606 C 162.132 195.663,162.181 195.583,162.185 195.429 C 162.189 195.232,162.277 195.263,162.482 195.533 C 162.641 195.744,162.769 195.833,162.766 195.731 C 162.750 195.259,162.231 194.824,162.098 195.171 M164.583 195.275 C 164.443 195.499,164.380 195.733,164.442 195.795 C 164.504 195.857,164.554 195.794,164.554 195.655 C 164.554 195.513,164.683 195.453,164.851 195.517 C 165.175 195.641,165.229 195.483,164.990 195.107 C 164.881 194.935,164.766 194.983,164.583 195.275 M263.683 195.366 C 263.613 195.550,263.602 195.747,263.659 195.804 C 263.716 195.861,263.762 195.793,263.762 195.652 C 263.762 195.450,263.835 195.454,264.109 195.669 C 264.429 195.920,264.434 195.911,264.165 195.545 C 264.005 195.327,263.860 195.122,263.843 195.090 C 263.826 195.059,263.754 195.183,263.683 195.366 M283.805 195.451 C 283.673 195.663,283.567 195.904,283.570 195.987 C 283.574 196.071,283.673 195.972,283.792 195.768 C 283.965 195.469,284.040 195.450,284.179 195.669 C 284.273 195.819,284.350 195.851,284.350 195.743 C 284.350 195.239,284.041 195.073,283.805 195.451 M166.546 195.558 C 166.673 195.712,166.862 195.785,166.966 195.721 C 167.197 195.578,167.026 195.384,166.617 195.324 C 166.378 195.289,166.363 195.338,166.546 195.558 M281.681 195.448 C 281.606 195.570,281.598 195.723,281.663 195.789 C 281.729 195.854,281.782 195.793,281.782 195.652 C 281.782 195.451,281.851 195.454,282.111 195.669 C 282.392 195.901,282.427 195.899,282.347 195.656 C 282.223 195.283,281.855 195.168,281.681 195.448 M353.465 210.197 C 353.465 210.331,355.074 211.131,355.163 211.041 C 355.205 211.000,354.840 210.772,354.352 210.535 C 353.864 210.298,353.465 210.146,353.465 210.197 M390.099 210.594 C 389.609 210.856,389.278 211.075,389.364 211.080 C 389.575 211.092,391.089 210.314,391.089 210.194 C 391.089 210.063,391.097 210.059,390.099 210.594 M365.003 213.013 C 365.304 213.059,365.749 213.058,365.993 213.011 C 366.236 212.964,365.990 212.926,365.446 212.928 C 364.901 212.929,364.702 212.968,365.003 213.013 M378.666 213.013 C 378.967 213.059,379.413 213.058,379.656 213.011 C 379.900 212.964,379.653 212.926,379.109 212.928 C 378.564 212.929,378.365 212.968,378.666 213.013 M368.366 213.216 C 368.993 213.255,370.017 213.255,370.644 213.216 C 371.270 213.176,370.757 213.144,369.505 213.144 C 368.252 213.144,367.740 213.176,368.366 213.216 M373.911 213.216 C 374.537 213.255,375.562 213.255,376.188 213.216 C 376.814 213.176,376.302 213.144,375.050 213.144 C 373.797 213.144,373.285 213.176,373.911 213.216 M371.839 229.752 C 371.775 248.207,371.873 247.110,370.216 247.912 C 369.381 248.316,369.299 248.317,324.492 248.317 L 279.604 248.317 279.604 248.812 L 279.604 249.307 324.525 249.307 C 372.789 249.307,370.244 249.365,371.459 248.241 C 372.732 247.064,372.673 247.951,372.673 229.907 C 372.673 213.704,372.668 213.465,372.285 213.465 C 371.903 213.465,371.895 213.723,371.839 229.752 " stroke="none" fill="#7b7b7b" fill-rule="evenodd"></path><path id="path3" d="M161.188 27.934 C 161.188 29.467,161.392 29.706,162.680 29.676 L 163.762 29.651 163.762 28.291 C 163.762 27.214,163.701 26.931,163.465 26.931 C 163.242 26.931,163.168 27.170,163.168 27.897 C 163.168 29.773,161.931 29.822,161.821 27.950 C 161.737 26.512,161.188 26.498,161.188 27.934 M164.594 27.168 C 164.148 27.615,164.344 28.053,165.154 28.418 C 166.114 28.851,166.074 29.217,165.071 29.185 C 164.101 29.154,164.241 29.583,165.227 29.666 C 166.691 29.789,167.065 28.691,165.737 28.170 C 164.816 27.808,164.804 27.412,165.714 27.455 C 166.129 27.474,166.337 27.392,166.337 27.207 C 166.337 26.858,164.936 26.826,164.594 27.168 M167.258 27.293 C 166.808 27.791,166.835 28.961,167.307 29.388 C 167.739 29.779,169.127 29.758,169.258 29.358 C 169.316 29.182,169.167 29.147,168.729 29.234 C 168.139 29.352,167.525 29.074,167.525 28.689 C 167.525 28.593,167.970 28.515,168.515 28.515 C 169.373 28.515,169.505 28.462,169.505 28.119 C 169.505 27.122,167.935 26.545,167.258 27.293 M170.099 28.342 C 170.099 29.420,170.161 29.703,170.396 29.703 C 170.621 29.703,170.693 29.459,170.693 28.696 C 170.693 27.758,170.734 27.673,171.287 27.464 C 172.139 27.143,172.020 26.942,170.990 26.963 L 170.099 26.981 170.099 28.342 M168.676 27.775 C 168.727 28.041,168.605 28.119,168.133 28.119 C 167.484 28.119,167.375 27.952,167.768 27.559 C 168.095 27.231,168.594 27.350,168.676 27.775 M135.050 114.851 L 135.050 134.257 166.337 134.257 L 197.624 134.257 197.624 114.851 L 197.624 95.446 166.337 95.446 L 135.050 95.446 135.050 114.851 M157.135 114.472 C 157.736 116.043,157.779 116.038,158.409 114.307 C 159.145 112.286,159.604 112.533,159.604 114.950 C 159.604 117.157,159.253 117.515,159.167 115.396 L 159.109 113.960 158.533 115.396 C 158.216 116.186,157.845 116.832,157.709 116.832 C 157.572 116.832,157.208 116.186,156.898 115.396 L 156.337 113.960 156.278 115.396 C 156.193 117.515,155.842 117.157,155.842 114.950 C 155.842 112.456,156.300 112.287,157.135 114.472 M161.138 114.513 C 161.411 115.252,161.664 115.828,161.699 115.792 C 161.735 115.757,161.969 115.153,162.219 114.451 C 162.510 113.634,162.798 113.150,163.017 113.108 C 163.361 113.041,163.204 113.615,162.144 116.296 C 161.773 117.234,161.374 116.854,160.664 114.886 C 160.115 113.363,160.054 113.051,160.320 113.104 C 160.513 113.143,160.840 113.706,161.138 114.513 M166.220 113.189 C 166.771 113.400,166.329 113.680,165.647 113.552 C 164.776 113.389,164.158 113.969,164.158 114.950 C 164.158 115.940,164.775 116.513,165.662 116.346 C 166.193 116.247,166.337 116.285,166.337 116.526 C 166.337 117.067,164.638 116.933,164.050 116.346 C 162.562 114.857,164.233 112.426,166.220 113.189 M170.257 114.297 C 170.388 114.428,170.495 115.032,170.495 115.640 L 170.495 116.746 169.571 116.786 C 168.568 116.829,168.119 116.593,168.119 116.022 C 168.119 115.588,168.684 115.248,169.407 115.248 C 169.800 115.248,169.912 115.161,169.859 114.901 C 169.807 114.650,169.613 114.562,169.151 114.584 C 168.541 114.612,168.364 114.474,168.647 114.191 C 168.868 113.970,170.005 114.044,170.257 114.297 M173.554 114.374 C 174.414 115.234,173.705 116.926,172.542 116.790 C 171.911 116.717,171.881 116.742,171.881 117.366 C 171.881 117.815,171.788 118.020,171.584 118.020 C 171.340 118.020,171.287 117.671,171.287 116.065 L 171.287 114.111 172.267 114.089 C 172.913 114.075,173.351 114.172,173.554 114.374 M176.920 114.500 C 177.684 115.592,177.031 116.937,175.815 116.774 C 175.056 116.672,175.050 116.677,175.050 117.346 C 175.050 117.716,174.960 118.020,174.851 118.020 C 174.733 118.020,174.653 117.242,174.653 116.083 L 174.653 114.146 175.633 114.103 C 176.447 114.067,176.664 114.134,176.920 114.500 M172.119 114.693 C 171.791 115.021,171.821 115.941,172.169 116.230 C 172.713 116.681,173.267 116.290,173.267 115.453 C 173.267 114.537,172.670 114.141,172.119 114.693 M175.248 114.950 C 175.003 115.594,175.315 116.436,175.797 116.436 C 176.306 116.436,176.634 116.048,176.634 115.446 C 176.634 114.437,175.585 114.063,175.248 114.950 M168.801 115.859 C 168.615 116.160,168.994 116.487,169.432 116.402 C 170.025 116.288,170.025 115.644,169.432 115.644 C 169.158 115.644,168.874 115.740,168.801 115.859 M135.050 194.059 L 135.050 213.465 166.337 213.465 L 197.624 213.465 197.624 194.059 L 197.624 174.653 166.337 174.653 L 135.050 174.653 135.050 194.059 M245.941 194.059 L 245.941 213.465 277.228 213.465 L 308.515 213.465 308.515 194.059 L 308.515 174.653 277.228 174.653 L 245.941 174.653 245.941 194.059 M364.158 190.580 C 364.158 192.900,364.687 193.448,364.793 191.238 L 364.851 190.000 365.312 191.249 C 365.910 192.872,366.239 192.818,366.914 190.990 L 367.426 189.604 367.484 191.040 C 367.580 193.417,368.119 193.039,368.119 190.594 C 368.119 188.340,367.512 187.836,366.867 189.554 C 366.693 190.017,366.450 190.663,366.327 190.990 L 366.102 191.584 365.550 190.198 C 364.658 187.959,364.158 188.096,364.158 190.580 M371.732 188.942 C 371.161 189.513,371.436 190.278,372.376 190.735 C 373.772 191.413,373.467 192.246,371.928 191.957 C 371.388 191.856,371.256 191.888,371.327 192.102 C 371.442 192.453,372.915 192.572,373.469 192.275 C 374.226 191.870,373.931 190.868,372.921 190.412 C 372.376 190.165,372.079 189.903,372.079 189.669 C 372.079 189.301,372.186 189.253,373.069 189.224 C 373.342 189.215,373.609 189.119,373.663 189.010 C 373.812 188.712,372.024 188.649,371.732 188.942 M375.095 188.845 C 373.695 189.409,374.254 192.446,375.761 192.469 C 375.990 192.472,376.338 192.653,376.535 192.871 C 376.732 193.089,377.077 193.267,377.302 193.267 L 377.712 193.267 377.290 192.846 L 376.869 192.424 377.395 191.972 C 379.031 190.565,377.156 188.016,375.095 188.845 M378.614 190.594 L 378.614 192.475 379.703 192.475 C 380.302 192.475,380.792 192.386,380.792 192.277 C 380.792 192.168,380.436 192.079,380.000 192.079 L 379.208 192.079 379.208 190.396 C 379.208 189.032,379.152 188.713,378.911 188.713 C 378.668 188.713,378.614 189.054,378.614 190.594 M376.788 189.417 C 377.455 189.885,377.416 191.353,376.725 191.806 C 375.367 192.695,374.177 190.336,375.512 189.401 C 376.040 189.032,376.241 189.034,376.788 189.417 M368.919 191.108 C 369.542 192.620,369.479 193.267,368.706 193.267 C 368.492 193.267,368.317 193.356,368.317 193.465 C 368.317 193.753,369.419 193.708,369.667 193.410 C 369.881 193.151,371.089 190.134,371.089 189.856 C 371.089 189.307,370.483 189.876,370.158 190.729 L 369.768 191.755 369.400 190.729 C 369.147 190.026,368.922 189.703,368.685 189.703 C 368.378 189.703,368.404 189.860,368.919 191.108 M29.505 192.655 C 29.505 193.329,29.454 193.415,29.112 193.326 C 27.960 193.024,27.133 194.038,27.552 195.239 C 27.783 195.905,28.065 196.032,29.257 196.009 L 30.099 195.993 30.099 193.937 C 30.099 192.242,30.047 191.881,29.802 191.881 C 29.589 191.881,29.505 192.099,29.505 192.655 M39.406 193.960 C 39.406 195.677,39.458 196.040,39.703 196.040 C 39.948 196.040,40.000 195.677,40.000 193.960 C 40.000 192.244,39.948 191.881,39.703 191.881 C 39.458 191.881,39.406 192.244,39.406 193.960 M270.891 192.654 L 270.891 193.428 271.656 193.325 C 272.872 193.162,273.526 194.507,272.761 195.599 C 272.505 195.965,272.289 196.032,271.474 195.996 L 270.495 195.953 270.495 193.917 C 270.495 192.692,270.574 191.881,270.693 191.881 C 270.802 191.881,270.891 192.229,270.891 192.654 M285.941 193.960 C 285.941 195.677,285.889 196.040,285.644 196.040 C 285.398 196.040,285.347 195.677,285.347 193.960 C 285.347 192.244,285.398 191.881,285.644 191.881 C 285.889 191.881,285.941 192.244,285.941 193.960 M155.050 193.767 C 155.050 195.142,155.085 195.272,155.520 195.470 C 156.474 195.905,156.832 195.437,156.832 193.755 C 156.832 192.573,156.891 192.277,157.129 192.277 C 157.630 192.277,157.546 195.127,157.030 195.644 C 156.552 196.122,155.514 196.164,154.896 195.731 C 154.336 195.340,154.210 192.277,154.752 192.277 C 154.990 192.277,155.050 192.575,155.050 193.767 M161.986 193.317 C 162.370 194.958,162.478 194.990,162.860 193.579 C 163.126 192.596,163.298 192.277,163.564 192.277 C 163.830 192.277,164.003 192.596,164.269 193.579 C 164.650 194.989,164.749 194.960,165.161 193.317 C 165.309 192.724,165.533 192.277,165.681 192.277 C 166.024 192.277,166.022 192.299,165.504 194.307 C 164.935 196.516,164.561 196.631,164.052 194.752 C 163.860 194.045,163.641 193.465,163.564 193.465 C 163.488 193.465,163.268 194.045,163.077 194.752 C 162.568 196.631,162.195 196.515,161.630 194.307 C 161.108 192.266,161.109 192.277,161.465 192.277 C 161.637 192.277,161.835 192.673,161.986 193.317 M173.090 194.208 C 173.821 196.011,173.733 196.920,172.970 195.446 C 172.721 194.963,172.537 194.851,171.994 194.851 C 171.430 194.851,171.294 194.944,171.119 195.446 C 171.005 195.772,170.775 196.040,170.607 196.040 C 170.347 196.040,170.364 195.887,170.718 195.000 C 170.947 194.428,171.277 193.579,171.453 193.113 C 171.914 191.891,172.240 192.109,173.090 194.208 M176.279 192.525 C 177.151 193.210,176.576 194.653,175.431 194.653 C 174.901 194.653,174.851 194.712,174.851 195.347 C 174.851 195.831,174.762 196.040,174.554 196.040 C 174.311 196.040,174.257 195.699,174.257 194.158 L 174.257 192.277 175.111 192.277 C 175.580 192.277,176.106 192.389,176.279 192.525 M178.455 192.515 C 178.315 192.655,178.218 193.329,178.218 194.158 C 178.218 194.988,178.315 195.662,178.455 195.802 C 178.640 195.987,178.497 196.038,177.812 196.033 C 177.037 196.028,176.972 195.995,177.277 195.764 C 177.547 195.559,177.624 195.205,177.624 194.158 C 177.624 193.112,177.547 192.758,177.277 192.553 C 176.972 192.321,177.037 192.289,177.812 192.284 C 178.497 192.279,178.640 192.330,178.455 192.515 M174.851 193.465 C 174.851 194.271,175.026 194.406,175.726 194.137 C 176.474 193.850,175.997 192.673,175.132 192.673 C 174.937 192.673,174.851 192.914,174.851 193.465 M31.089 193.663 C 30.151 194.601,30.870 196.040,32.277 196.040 C 32.854 196.040,33.069 195.958,33.069 195.739 C 33.069 195.520,32.939 195.471,32.593 195.558 C 32.091 195.684,31.287 195.367,31.287 195.043 C 31.287 194.937,31.733 194.851,32.277 194.851 C 33.184 194.851,33.267 194.812,33.267 194.387 C 33.267 193.367,31.855 192.897,31.089 193.663 M33.836 194.657 C 34.499 196.427,34.881 196.451,35.564 194.768 C 36.118 193.403,36.136 193.267,35.758 193.267 C 35.595 193.267,35.332 193.704,35.131 194.307 L 34.784 195.347 34.427 194.554 C 34.231 194.119,34.067 193.651,34.065 193.515 C 34.062 193.379,33.892 193.267,33.687 193.267 C 33.337 193.267,33.346 193.350,33.836 194.657 M36.634 193.663 C 36.119 194.178,36.125 195.135,36.645 195.654 C 37.109 196.119,38.617 196.137,38.768 195.680 C 38.833 195.483,38.687 195.451,38.170 195.548 C 37.652 195.645,37.399 195.589,37.122 195.313 C 36.768 194.961,36.788 194.949,37.785 194.891 C 38.706 194.837,38.812 194.784,38.812 194.377 C 38.812 193.366,37.395 192.902,36.634 193.663 M40.990 193.663 C 40.104 194.549,40.768 196.040,42.049 196.040 C 42.889 196.040,43.366 195.525,43.366 194.619 C 43.366 193.367,41.883 192.770,40.990 193.663 M43.960 195.271 C 43.960 196.878,44.013 197.228,44.257 197.228 C 44.463 197.228,44.554 197.021,44.554 196.553 C 44.554 195.978,44.612 195.894,44.947 195.981 C 46.100 196.283,46.927 195.269,46.508 194.067 C 46.276 193.402,45.994 193.275,44.802 193.298 L 43.960 193.314 43.960 195.271 M47.456 193.629 C 47.006 194.127,47.033 195.298,47.505 195.725 C 47.937 196.116,49.325 196.095,49.456 195.695 C 49.514 195.518,49.365 195.483,48.927 195.571 C 48.337 195.689,47.723 195.411,47.723 195.025 C 47.723 194.930,48.168 194.851,48.713 194.851 C 49.571 194.851,49.703 194.799,49.703 194.455 C 49.703 193.459,48.133 192.881,47.456 193.629 M50.099 194.653 C 50.099 195.908,50.137 196.040,50.495 196.040 C 50.838 196.040,50.891 195.908,50.891 195.055 C 50.891 194.146,50.941 194.043,51.535 193.724 C 52.140 193.398,52.151 193.374,51.722 193.307 C 51.471 193.269,51.137 193.344,50.979 193.474 C 50.777 193.642,50.693 193.647,50.693 193.490 C 50.693 193.367,50.559 193.267,50.396 193.267 C 50.160 193.267,50.099 193.553,50.099 194.653 M160.588 193.651 C 160.919 194.271,160.851 196.040,160.495 196.040 C 160.267 196.040,160.198 195.786,160.198 194.944 C 160.198 193.080,158.961 193.149,158.851 195.020 C 158.753 196.696,158.218 196.408,158.218 194.680 L 158.218 193.319 159.301 193.294 C 160.183 193.274,160.421 193.340,160.588 193.651 M168.351 193.595 C 169.107 194.279,168.827 194.824,167.686 194.891 C 166.687 194.949,166.669 194.961,167.025 195.315 C 167.282 195.571,167.560 195.646,167.953 195.568 C 168.367 195.485,168.515 195.532,168.515 195.748 C 168.515 196.447,166.768 196.074,166.353 195.285 C 165.652 193.954,167.252 192.601,168.351 193.595 M171.713 193.861 C 171.514 194.431,171.529 194.455,172.072 194.455 C 172.620 194.455,172.631 194.435,172.415 193.861 C 172.291 193.535,172.130 193.267,172.055 193.267 C 171.981 193.267,171.827 193.535,171.713 193.861 M263.757 194.307 L 264.025 195.347 264.315 194.307 C 264.701 192.923,265.239 192.863,265.567 194.166 C 265.819 195.168,265.945 195.155,266.244 194.094 C 266.356 193.696,266.592 193.342,266.768 193.308 C 267.054 193.253,267.045 193.400,266.682 194.643 C 266.181 196.359,265.732 196.525,265.344 195.138 C 265.067 194.148,264.921 194.178,264.563 195.297 C 264.129 196.656,262.970 195.326,262.970 193.468 C 262.970 192.825,263.529 193.421,263.757 194.307 M269.357 193.515 C 270.228 194.180,270.015 194.851,268.932 194.851 C 268.376 194.851,267.921 194.930,267.921 195.025 C 267.921 195.411,268.535 195.689,269.125 195.571 C 269.563 195.483,269.712 195.518,269.654 195.695 C 269.339 196.655,267.327 195.807,267.327 194.714 C 267.327 193.493,268.456 192.826,269.357 193.515 M275.592 193.515 C 275.546 193.651,275.310 193.734,275.069 193.698 C 274.469 193.611,274.059 193.999,274.059 194.653 C 274.059 195.361,274.504 195.724,275.165 195.558 C 275.541 195.464,275.659 195.499,275.598 195.684 C 275.552 195.825,275.237 195.968,274.897 196.002 C 273.671 196.123,272.974 194.551,273.861 193.663 C 274.312 193.212,275.737 193.090,275.592 193.515 M276.634 193.505 C 276.634 193.690,276.686 193.690,276.871 193.505 C 277.134 193.242,278.020 193.178,278.020 193.422 C 278.020 193.507,277.752 193.677,277.426 193.801 C 276.873 194.009,276.832 194.095,276.832 195.032 C 276.832 195.796,276.760 196.040,276.535 196.040 C 276.299 196.040,276.238 195.754,276.238 194.653 C 276.238 193.861,276.322 193.267,276.436 193.267 C 276.545 193.267,276.634 193.374,276.634 193.505 M280.389 193.650 C 280.502 193.861,280.594 194.473,280.594 195.010 L 280.594 195.988 279.511 196.012 C 278.621 196.033,278.391 195.968,278.220 195.647 C 277.933 195.112,278.595 194.455,279.420 194.455 C 280.269 194.455,280.157 193.773,279.302 193.740 C 278.380 193.704,278.296 193.671,278.614 193.465 C 279.140 193.125,280.165 193.232,280.389 193.650 M281.683 194.058 C 281.869 195.162,282.087 195.192,282.377 194.155 C 282.550 193.539,282.731 193.267,282.970 193.267 C 283.209 193.267,283.391 193.539,283.563 194.155 C 283.854 195.192,284.071 195.162,284.258 194.058 C 284.375 193.363,284.950 192.873,284.950 193.468 C 284.950 195.326,283.792 196.656,283.358 195.297 C 283.000 194.178,282.854 194.148,282.577 195.138 C 282.190 196.522,281.740 196.359,281.242 194.653 C 280.858 193.337,280.856 193.267,281.193 193.267 C 281.454 193.267,281.585 193.479,281.683 194.058 M288.798 193.579 C 289.473 194.254,289.201 194.851,288.218 194.851 C 287.576 194.851,287.327 194.931,287.327 195.135 C 287.327 195.500,288.006 195.715,288.648 195.554 C 289.007 195.463,289.124 195.500,289.063 195.684 C 288.734 196.688,286.733 195.832,286.733 194.688 C 286.733 193.461,287.999 192.780,288.798 193.579 M290.297 193.505 C 290.297 193.690,290.350 193.690,290.535 193.505 C 290.822 193.217,291.485 193.190,291.485 193.465 C 291.485 193.574,291.358 193.663,291.202 193.663 C 290.661 193.663,290.297 194.267,290.297 195.163 C 290.297 195.810,290.219 196.040,290.000 196.040 C 289.764 196.040,289.703 195.754,289.703 194.653 C 289.703 193.553,289.764 193.267,290.000 193.267 C 290.163 193.267,290.297 193.374,290.297 193.505 M29.267 193.901 C 29.895 194.529,29.321 195.800,28.524 195.548 C 27.815 195.322,28.068 193.663,28.812 193.663 C 28.932 193.663,29.137 193.770,29.267 193.901 M32.436 193.901 C 32.834 194.299,32.706 194.455,31.980 194.455 C 31.599 194.455,31.287 194.384,31.287 194.297 C 31.287 194.066,31.727 193.663,31.980 193.663 C 32.100 193.663,32.305 193.770,32.436 193.901 M37.980 193.901 C 38.379 194.300,38.250 194.455,37.518 194.455 C 36.879 194.455,36.836 194.421,37.030 194.059 C 37.270 193.611,37.630 193.551,37.980 193.901 M42.535 193.901 C 42.665 194.032,42.772 194.370,42.772 194.653 C 42.772 195.667,41.749 196.023,41.350 195.149 C 40.910 194.183,41.839 193.205,42.535 193.901 M45.733 193.948 C 46.051 194.332,45.920 195.257,45.512 195.513 C 45.057 195.797,44.554 195.354,44.554 194.669 C 44.554 193.785,45.246 193.362,45.733 193.948 M48.874 194.111 C 48.925 194.378,48.803 194.455,48.331 194.455 C 47.682 194.455,47.573 194.288,47.966 193.895 C 48.294 193.568,48.792 193.686,48.874 194.111 M166.931 194.059 C 166.737 194.421,166.780 194.455,167.419 194.455 C 168.151 194.455,168.280 194.300,167.881 193.901 C 167.531 193.551,167.171 193.611,166.931 194.059 M268.158 193.901 C 267.759 194.300,267.889 194.455,268.621 194.455 C 269.260 194.455,269.302 194.421,269.109 194.059 C 268.869 193.611,268.508 193.551,268.158 193.901 M271.089 194.158 C 270.845 194.802,271.156 195.644,271.639 195.644 C 272.148 195.644,272.475 195.256,272.475 194.653 C 272.475 193.645,271.427 193.271,271.089 194.158 M287.574 193.792 C 287.070 194.000,287.318 194.455,287.935 194.455 C 288.407 194.455,288.529 194.378,288.478 194.111 C 288.409 193.756,288.007 193.614,287.574 193.792 M278.944 194.983 C 278.683 195.244,278.819 195.644,279.168 195.644 C 279.536 195.644,280.000 195.290,280.000 195.010 C 280.000 194.819,279.130 194.797,278.944 194.983 M363.168 196.198 C 363.168 196.934,363.154 196.949,362.507 196.873 C 361.634 196.771,361.188 197.226,361.188 198.218 C 361.188 199.267,361.581 199.601,362.783 199.574 L 363.762 199.552 363.762 197.499 C 363.762 195.806,363.710 195.446,363.465 195.446 C 363.253 195.446,363.168 195.661,363.168 196.198 M372.277 197.499 L 372.277 199.552 373.356 199.577 C 374.261 199.598,374.484 199.531,374.742 199.163 C 375.500 198.081,374.861 196.751,373.639 196.868 L 372.871 196.941 372.871 196.193 C 372.871 195.661,372.786 195.446,372.574 195.446 C 372.329 195.446,372.277 195.806,372.277 197.499 M367.438 196.673 C 367.192 196.960,367.144 197.134,367.295 197.184 C 367.426 197.228,367.525 197.663,367.525 198.195 C 367.525 199.229,367.772 199.604,368.455 199.604 C 369.015 199.604,369.056 199.292,368.515 199.151 C 368.191 199.066,368.119 198.880,368.119 198.137 C 368.119 197.360,368.176 197.228,368.515 197.228 C 368.733 197.228,368.911 197.139,368.911 197.030 C 368.911 196.921,368.733 196.832,368.515 196.832 C 368.295 196.832,368.119 196.700,368.119 196.535 C 368.119 196.116,367.872 196.166,367.438 196.673 M364.752 197.030 C 364.435 197.235,364.519 197.268,365.441 197.304 C 366.267 197.336,366.416 198.020,365.597 198.020 C 364.802 198.020,364.304 198.432,364.387 199.021 C 364.450 199.468,364.543 199.506,365.594 199.522 L 366.733 199.539 366.733 198.423 C 366.733 196.947,365.846 196.323,364.752 197.030 M369.637 196.964 C 369.322 197.278,369.552 197.447,370.124 197.321 C 370.551 197.227,370.795 197.268,370.913 197.454 C 371.204 197.913,371.112 198.020,370.427 198.020 C 369.552 198.020,368.985 198.607,369.298 199.190 C 369.482 199.535,369.692 199.598,370.600 199.577 L 371.683 199.552 371.683 198.429 C 371.683 197.044,370.444 196.156,369.637 196.964 M375.842 197.030 C 375.524 197.235,375.608 197.268,376.530 197.304 C 377.356 197.336,377.505 198.020,376.686 198.020 C 375.891 198.020,375.393 198.432,375.476 199.021 C 375.539 199.468,375.632 199.506,376.683 199.522 L 377.822 199.539 377.822 198.423 C 377.822 196.947,376.935 196.323,375.842 197.030 M378.653 197.069 C 378.207 197.516,378.404 197.954,379.214 198.319 C 380.170 198.751,380.134 199.117,379.138 199.086 C 378.649 199.071,378.416 199.151,378.416 199.334 C 378.416 199.679,380.017 199.706,380.356 199.366 C 380.829 198.894,380.619 198.397,379.804 198.055 C 378.889 197.670,378.873 197.314,379.774 197.356 C 380.188 197.375,380.396 197.293,380.396 197.108 C 380.396 196.759,378.996 196.727,378.653 197.069 M381.318 197.194 C 380.867 197.691,380.895 198.862,381.367 199.289 C 381.811 199.691,383.188 199.654,383.325 199.237 C 383.393 199.031,383.267 199.000,382.788 199.106 C 382.396 199.192,382.054 199.153,381.873 199.003 C 381.364 198.580,381.560 198.416,382.574 198.416 C 383.391 198.416,383.564 198.354,383.564 198.064 C 383.564 196.979,382.045 196.390,381.318 197.194 M362.960 197.513 C 363.279 197.896,363.148 198.822,362.739 199.077 C 362.285 199.362,361.782 198.918,361.782 198.233 C 361.782 197.349,362.474 196.927,362.960 197.513 M374.273 197.679 C 374.560 198.308,374.201 199.208,373.663 199.208 C 373.136 199.208,372.812 198.399,373.069 197.723 C 373.309 197.092,373.995 197.067,374.273 197.679 M382.735 197.676 C 382.786 197.942,382.664 198.020,382.193 198.020 C 381.543 198.020,381.435 197.853,381.828 197.460 C 382.155 197.132,382.653 197.251,382.735 197.676 M366.139 198.700 C 366.139 199.057,365.374 199.314,365.106 199.047 C 364.810 198.751,365.102 198.416,365.655 198.416 C 365.943 198.416,366.139 198.531,366.139 198.700 M371.089 198.574 C 371.089 198.854,370.625 199.208,370.257 199.208 C 369.908 199.208,369.772 198.809,370.033 198.548 C 370.219 198.361,371.089 198.383,371.089 198.574 M377.228 198.700 C 377.228 199.057,376.463 199.314,376.195 199.047 C 375.900 198.751,376.191 198.416,376.744 198.416 C 377.032 198.416,377.228 198.531,377.228 198.700 " stroke="none" fill="#fbfbfb" fill-rule="evenodd"></path><path id="path4" d="M367.426 174.769 C 366.990 174.810,365.520 174.943,364.158 175.064 C 358.816 175.537,354.589 176.548,353.406 177.636 L 352.772 178.218 353.406 178.800 C 357.587 182.643,386.968 182.643,391.149 178.800 L 391.782 178.218 391.149 177.636 C 389.094 175.747,374.980 174.041,367.426 174.769 M352.920 194.679 L 352.970 209.802 354.455 210.540 C 361.440 214.008,383.114 214.008,390.099 210.540 L 391.584 209.802 391.635 194.679 L 391.686 179.557 391.239 179.847 C 385.773 183.395,358.781 183.395,353.316 179.847 L 352.869 179.557 352.920 194.679 M365.550 190.198 L 366.102 191.584 366.327 190.990 C 366.450 190.663,366.693 190.017,366.867 189.554 C 367.512 187.836,368.119 188.340,368.119 190.594 C 368.119 193.039,367.580 193.417,367.484 191.040 L 367.426 189.604 366.914 190.990 C 366.239 192.818,365.910 192.872,365.312 191.249 L 364.851 190.000 364.793 191.238 C 364.687 193.448,364.158 192.900,364.158 190.580 C 364.158 188.096,364.658 187.959,365.550 190.198 M373.663 189.010 C 373.609 189.119,373.342 189.215,373.069 189.224 C 372.186 189.253,372.079 189.301,372.079 189.669 C 372.079 189.903,372.376 190.165,372.921 190.412 C 373.931 190.868,374.226 191.870,373.469 192.275 C 372.915 192.572,371.442 192.453,371.327 192.102 C 371.256 191.888,371.388 191.856,371.928 191.957 C 373.467 192.246,373.772 191.413,372.376 190.735 C 371.436 190.278,371.161 189.513,371.732 188.942 C 372.024 188.649,373.812 188.712,373.663 189.010 M377.441 189.224 C 378.142 189.970,378.119 191.349,377.395 191.972 L 376.869 192.424 377.290 192.846 L 377.712 193.267 377.302 193.267 C 377.077 193.267,376.732 193.089,376.535 192.871 C 376.338 192.653,375.990 192.472,375.761 192.469 C 374.552 192.451,373.880 190.810,374.550 189.513 C 375.059 188.529,376.639 188.371,377.441 189.224 M379.208 190.396 L 379.208 192.079 380.000 192.079 C 380.436 192.079,380.792 192.168,380.792 192.277 C 380.792 192.386,380.302 192.475,379.703 192.475 L 378.614 192.475 378.614 190.594 C 378.614 189.054,378.668 188.713,378.911 188.713 C 379.152 188.713,379.208 189.032,379.208 190.396 M375.512 189.401 C 374.177 190.336,375.367 192.695,376.725 191.806 C 377.416 191.353,377.455 189.885,376.788 189.417 C 376.241 189.034,376.040 189.032,375.512 189.401 M369.400 190.729 L 369.768 191.755 370.158 190.729 C 370.483 189.876,371.089 189.307,371.089 189.856 C 371.089 190.134,369.881 193.151,369.667 193.410 C 369.419 193.708,368.317 193.753,368.317 193.465 C 368.317 193.356,368.492 193.267,368.706 193.267 C 369.479 193.267,369.542 192.620,368.919 191.108 C 368.404 189.860,368.378 189.703,368.685 189.703 C 368.922 189.703,369.147 190.026,369.400 190.729 M285.421 193.960 C 285.421 195.158,285.454 195.623,285.493 194.993 C 285.533 194.363,285.532 193.382,285.492 192.815 C 285.452 192.247,285.420 192.762,285.421 193.960 M154.918 193.663 C 154.918 194.480,154.953 194.814,154.996 194.406 C 155.038 193.998,155.038 193.329,154.996 192.921 C 154.953 192.512,154.918 192.847,154.918 193.663 M174.707 193.465 C 174.707 193.955,174.746 194.156,174.793 193.911 C 174.840 193.666,174.840 193.265,174.793 193.020 C 174.746 192.775,174.707 192.975,174.707 193.465 M178.088 194.158 C 178.088 195.030,178.123 195.362,178.165 194.896 C 178.207 194.430,178.206 193.717,178.164 193.312 C 178.121 192.906,178.087 193.287,178.088 194.158 M289.770 194.653 C 289.770 195.470,289.804 195.804,289.847 195.396 C 289.890 194.988,289.890 194.319,289.847 193.911 C 289.804 193.502,289.770 193.837,289.770 194.653 M160.655 194.950 C 160.657 195.604,160.693 195.847,160.738 195.492 C 160.782 195.136,160.781 194.601,160.736 194.303 C 160.690 194.006,160.654 194.297,160.655 194.950 M280.457 194.950 C 280.459 195.604,280.495 195.847,280.540 195.492 C 280.584 195.136,280.583 194.601,280.538 194.303 C 280.492 194.006,280.456 194.297,280.457 194.950 M276.688 195.248 C 276.688 195.738,276.726 195.938,276.773 195.693 C 276.821 195.448,276.821 195.047,276.773 194.802 C 276.726 194.557,276.688 194.757,276.688 195.248 M174.703 195.347 C 174.706 195.782,174.746 195.937,174.794 195.691 C 174.841 195.444,174.839 195.088,174.790 194.899 C 174.740 194.709,174.701 194.911,174.703 195.347 M363.762 197.499 L 363.762 199.552 362.783 199.574 C 361.581 199.601,361.188 199.267,361.188 198.218 C 361.188 197.226,361.634 196.771,362.507 196.873 C 363.154 196.949,363.168 196.934,363.168 196.198 C 363.168 195.661,363.253 195.446,363.465 195.446 C 363.710 195.446,363.762 195.806,363.762 197.499 M372.871 196.193 L 372.871 196.941 373.639 196.868 C 374.861 196.751,375.500 198.081,374.742 199.163 C 374.484 199.531,374.261 199.598,373.356 199.577 L 372.277 199.552 372.277 197.499 C 372.277 195.806,372.329 195.446,372.574 195.446 C 372.786 195.446,372.871 195.661,372.871 196.193 M368.119 196.535 C 368.119 196.700,368.295 196.832,368.515 196.832 C 368.733 196.832,368.911 196.921,368.911 197.030 C 368.911 197.139,368.733 197.228,368.515 197.228 C 368.176 197.228,368.119 197.360,368.119 198.137 C 368.119 198.880,368.191 199.066,368.515 199.151 C 369.056 199.292,369.015 199.604,368.455 199.604 C 367.772 199.604,367.525 199.229,367.525 198.195 C 367.525 197.663,367.426 197.228,367.295 197.184 C 367.144 197.134,367.192 196.960,367.438 196.673 C 367.872 196.166,368.119 196.116,368.119 196.535 M366.495 197.069 C 366.626 197.200,366.733 197.809,366.733 198.423 L 366.733 199.539 365.594 199.522 C 364.543 199.506,364.450 199.468,364.387 199.021 C 364.304 198.432,364.802 198.020,365.597 198.020 C 366.416 198.020,366.267 197.336,365.441 197.304 C 364.519 197.268,364.435 197.235,364.752 197.030 C 365.168 196.761,366.211 196.785,366.495 197.069 M371.446 197.069 C 371.576 197.200,371.683 197.812,371.683 198.429 L 371.683 199.552 370.600 199.577 C 369.692 199.598,369.482 199.535,369.298 199.190 C 368.985 198.607,369.552 198.020,370.427 198.020 C 371.112 198.020,371.204 197.913,370.913 197.454 C 370.795 197.268,370.551 197.227,370.124 197.321 C 369.552 197.447,369.322 197.278,369.637 196.964 C 369.861 196.740,371.194 196.818,371.446 197.069 M377.584 197.069 C 377.715 197.200,377.822 197.809,377.822 198.423 L 377.822 199.539 376.683 199.522 C 375.632 199.506,375.539 199.468,375.476 199.021 C 375.393 198.432,375.891 198.020,376.686 198.020 C 377.505 198.020,377.356 197.336,376.530 197.304 C 375.608 197.268,375.524 197.235,375.842 197.030 C 376.257 196.761,377.300 196.785,377.584 197.069 M380.396 197.108 C 380.396 197.293,380.188 197.375,379.774 197.356 C 378.873 197.314,378.889 197.670,379.804 198.055 C 380.619 198.397,380.829 198.894,380.356 199.366 C 380.017 199.706,378.416 199.679,378.416 199.334 C 378.416 199.151,378.649 199.071,379.138 199.086 C 380.134 199.117,380.170 198.751,379.214 198.319 C 377.963 197.755,378.230 196.832,379.644 196.832 C 380.156 196.832,380.396 196.920,380.396 197.108 M383.256 197.272 C 383.849 198.119,383.672 198.416,382.574 198.416 C 381.560 198.416,381.364 198.580,381.873 199.003 C 382.054 199.153,382.396 199.192,382.788 199.106 C 383.267 199.000,383.393 199.031,383.325 199.237 C 382.992 200.250,380.990 199.406,380.990 198.252 C 380.990 196.926,382.543 196.254,383.256 197.272 M362.020 197.465 C 361.681 197.804,361.726 198.717,362.096 199.024 C 362.525 199.380,363.050 199.031,363.133 198.334 C 363.238 197.452,362.562 196.924,362.020 197.465 M373.069 197.723 C 372.812 198.399,373.136 199.208,373.663 199.208 C 374.201 199.208,374.560 198.308,374.273 197.679 C 373.995 197.067,373.309 197.092,373.069 197.723 M381.828 197.460 C 381.435 197.853,381.543 198.020,382.193 198.020 C 382.664 198.020,382.786 197.942,382.735 197.676 C 382.653 197.251,382.155 197.132,381.828 197.460 M365.039 198.631 C 364.834 198.963,365.258 199.263,365.723 199.115 C 366.304 198.931,366.254 198.416,365.655 198.416 C 365.389 198.416,365.112 198.513,365.039 198.631 M370.033 198.548 C 369.772 198.809,369.908 199.208,370.257 199.208 C 370.625 199.208,371.089 198.854,371.089 198.574 C 371.089 198.383,370.219 198.361,370.033 198.548 M376.128 198.631 C 375.923 198.963,376.347 199.263,376.812 199.115 C 377.393 198.931,377.343 198.416,376.744 198.416 C 376.479 198.416,376.201 198.513,376.128 198.631 " stroke="none" fill="#bbb3b3" fill-rule="evenodd"></path></g></svg>