<svg id="svg" version="1.1" xmlns="http://www.w3.org/2000/svg" xmlns:xlink="http://www.w3.org/1999/xlink" width="400" height="353.22976287816846" viewBox="0, 0, 400,353.22976287816846"><g id="svgg"><path id="path0" d="M119.379 55.636 L 119.379 97.535 124.366 97.418 C 133.354 97.206,132.904 98.197,133.116 78.168 C 133.293 61.526,133.279 61.661,135.048 59.992 C 136.939 58.207,135.558 58.269,173.875 58.242 L 209.565 58.217 209.768 56.991 C 211.776 44.898,237.265 36.284,262.796 39.071 C 296.634 42.764,307.498 63.171,281.474 74.154 C 261.605 82.541,227.495 79.940,215.525 69.126 L 214.292 68.012 180.817 68.102 C 147.821 68.192,147.326 68.202,146.209 68.859 C 143.616 70.383,143.757 68.957,143.651 94.723 L 143.556 117.656 149.538 117.535 C 152.828 117.468,167.682 117.323,182.548 117.212 L 209.577 117.010 209.775 115.823 C 211.489 105.505,230.324 97.478,252.821 97.478 C 292.512 97.478,311.090 120.527,281.474 133.026 C 261.603 141.413,227.495 138.811,215.524 127.996 L 214.289 126.880 185.722 126.973 C 157.663 127.063,157.134 127.076,156.021 127.730 C 153.414 129.262,153.577 127.490,153.393 156.337 C 153.221 183.410,153.257 182.818,151.663 184.528 C 149.912 186.407,149.728 186.427,133.893 186.427 L 119.379 186.427 119.379 192.641 C 119.379 198.600,119.405 198.855,120.021 198.855 C 120.861 198.855,121.341 197.911,121.341 196.260 C 121.341 195.296,121.476 194.930,121.832 194.930 C 122.221 194.930,122.322 195.405,122.322 197.241 C 122.322 199.245,122.246 199.543,121.750 199.492 C 121.435 199.460,120.773 199.451,120.278 199.472 L 119.379 199.509 119.379 239.661 L 119.379 279.812 120.114 280.135 C 121.058 280.549,121.442 284.546,120.539 284.546 C 120.144 284.546,120.033 284.155,120.033 282.767 C 120.033 281.788,119.886 280.896,119.706 280.785 C 119.489 280.651,119.379 290.484,119.379 310.038 L 119.379 339.493 252.821 339.493 L 386.263 339.493 386.263 176.615 L 386.263 13.737 252.821 13.737 L 119.379 13.737 119.379 55.636 M250.400 25.492 C 251.657 28.612,251.691 28.782,251.054 28.782 C 250.802 28.782,250.442 28.340,250.253 27.800 C 249.963 26.967,249.742 26.819,248.789 26.819 C 247.851 26.819,247.601 26.980,247.261 27.800 C 247.037 28.340,246.651 28.782,246.403 28.782 C 245.805 28.782,245.782 28.884,247.138 25.497 C 248.602 21.839,248.927 21.838,250.400 25.492 M255.905 23.081 C 257.203 24.380,256.059 26.492,254.056 26.492 C 253.236 26.492,253.148 26.603,253.148 27.637 C 253.148 28.436,253.000 28.782,252.657 28.782 C 252.256 28.782,252.167 28.218,252.167 25.675 L 252.167 22.567 253.779 22.567 C 254.808 22.567,255.576 22.753,255.905 23.081 M259.362 22.895 C 259.362 23.074,259.215 23.222,259.035 23.222 C 258.846 23.222,258.708 24.257,258.708 25.675 C 258.708 27.092,258.846 28.128,259.035 28.128 C 259.215 28.128,259.362 28.275,259.362 28.455 C 259.362 28.635,258.847 28.782,258.217 28.782 C 257.588 28.782,257.073 28.635,257.073 28.455 C 257.073 28.275,257.220 28.128,257.400 28.128 C 257.589 28.128,257.727 27.092,257.727 25.675 C 257.727 24.257,257.589 23.222,257.400 23.222 C 257.220 23.222,257.073 23.074,257.073 22.895 C 257.073 22.715,257.588 22.567,258.217 22.567 C 258.847 22.567,259.362 22.715,259.362 22.895 M253.148 24.530 C 253.148 25.927,253.558 26.167,254.805 25.500 C 256.017 24.851,255.369 23.222,253.900 23.222 C 253.241 23.222,253.148 23.383,253.148 24.530 M248.491 24.411 C 248.395 24.746,248.210 25.278,248.081 25.593 C 247.891 26.054,248.015 26.165,248.720 26.165 C 249.475 26.165,249.564 26.065,249.369 25.429 C 248.947 24.048,248.682 23.741,248.491 24.411 M242.215 58.077 C 240.416 59.876,242.284 63.161,244.367 61.860 C 244.917 61.516,244.971 61.600,244.971 62.794 C 244.971 63.515,245.119 64.105,245.298 64.105 C 245.495 64.105,245.626 62.796,245.626 60.834 C 245.626 58.872,245.495 57.563,245.298 57.563 C 245.119 57.563,244.971 57.740,244.971 57.956 C 244.971 58.261,244.884 58.261,244.579 57.956 C 244.029 57.406,242.825 57.467,242.215 58.077 M247.327 59.574 C 247.443 61.964,247.963 62.514,249.542 61.918 C 250.086 61.713,250.531 61.679,250.531 61.844 C 250.531 62.008,250.679 62.142,250.859 62.142 C 251.045 62.142,251.186 61.161,251.186 59.853 C 251.186 56.827,250.294 56.478,250.139 59.444 C 250.042 61.294,250.025 61.325,249.060 61.325 C 248.095 61.325,248.077 61.294,247.980 59.444 C 247.926 58.410,247.735 57.563,247.556 57.563 C 247.364 57.563,247.270 58.389,247.327 59.574 M252.821 58.217 C 250.988 60.050,253.092 62.896,255.574 61.944 C 256.559 61.566,256.086 61.224,254.816 61.394 C 253.751 61.537,253.478 61.451,253.169 60.873 C 252.814 60.210,252.869 60.180,254.445 60.180 C 255.954 60.180,256.092 60.116,256.092 59.413 C 256.092 57.755,254.035 57.003,252.821 58.217 M257.400 59.853 C 257.400 61.161,257.540 62.142,257.727 62.142 C 257.907 62.142,258.054 61.570,258.054 60.870 C 258.054 57.686,260.207 57.173,261.391 60.075 C 262.345 62.414,262.221 63.451,260.986 63.451 C 260.633 63.451,260.343 63.598,260.343 63.778 C 260.343 64.168,261.319 64.202,261.902 63.832 C 262.298 63.580,264.595 58.491,264.595 57.865 C 264.595 57.031,263.929 57.743,263.424 59.117 C 262.599 61.357,262.485 61.375,261.804 59.371 C 261.155 57.463,259.885 56.885,258.733 57.972 C 258.386 58.299,258.269 58.299,258.149 57.972 C 257.755 56.897,257.400 57.788,257.400 59.853 M244.633 58.850 C 245.445 60.368,244.656 61.726,243.177 61.355 C 242.508 61.187,242.355 60.949,242.355 60.076 C 242.355 58.323,243.905 57.490,244.633 58.850 M255.045 58.610 C 255.703 59.268,255.491 59.526,254.293 59.526 C 253.557 59.526,253.148 59.370,253.148 59.090 C 253.148 58.180,254.319 57.884,255.045 58.610 M138.438 59.843 C 134.585 60.759,134.615 60.614,134.422 78.823 C 134.246 95.465,134.260 95.330,132.491 96.999 C 130.920 98.482,129.809 98.721,124.366 98.749 L 119.379 98.774 119.379 108.258 L 119.379 117.743 130.826 117.743 L 142.273 117.743 142.273 94.725 C 142.273 69.572,142.223 70.262,144.168 68.460 C 146.123 66.647,144.607 66.721,179.925 66.721 C 197.892 66.721,212.592 66.632,212.592 66.523 C 212.592 66.414,212.235 65.901,211.800 65.383 C 210.949 64.372,209.648 61.219,209.648 60.168 C 209.648 59.494,141.222 59.182,138.438 59.843 M26.492 97.533 L 26.492 123.767 33.029 113.314 L 39.565 102.862 39.570 97.547 L 39.575 92.232 33.688 92.232 C 28.019 92.232,27.800 92.208,27.800 91.578 C 27.800 90.948,28.019 90.924,33.688 90.924 L 39.575 90.924 39.575 88.369 L 39.575 85.815 37.991 85.409 C 31.758 83.811,31.362 73.804,37.449 71.692 C 38.200 71.431,37.033 71.346,32.461 71.326 L 26.492 71.300 26.492 97.533 M43.009 71.692 C 49.095 73.804,48.700 83.811,42.467 85.409 L 40.883 85.815 40.883 88.369 L 40.883 90.924 46.770 90.924 C 52.439 90.924,52.657 90.948,52.657 91.578 C 52.657 92.208,52.439 92.232,46.770 92.232 L 40.883 92.232 40.888 97.547 L 40.893 102.862 47.429 113.314 L 53.966 123.767 53.966 97.533 L 53.966 71.300 47.997 71.326 C 43.425 71.346,42.257 71.431,43.009 71.692 M33.909 115.033 L 27.825 124.775 34.027 124.864 C 37.438 124.913,43.020 124.913,46.431 124.864 L 52.634 124.775 46.610 115.132 C 43.297 109.828,40.453 105.444,40.289 105.389 C 40.126 105.335,37.255 109.674,33.909 115.033 M242.682 115.290 C 242.682 115.560,242.829 115.781,243.009 115.781 C 243.189 115.781,243.336 115.560,243.336 115.290 C 243.336 115.020,243.189 114.800,243.009 114.800 C 242.829 114.800,242.682 115.020,242.682 115.290 M238.603 116.878 C 237.771 117.487,238.150 118.272,239.561 118.861 C 241.261 119.571,241.150 120.504,239.394 120.268 C 238.468 120.144,238.105 120.205,238.193 120.470 C 238.262 120.679,238.652 120.899,239.061 120.959 C 241.612 121.333,242.305 119.540,240.054 118.391 C 238.533 117.615,238.619 117.089,240.268 117.089 C 240.947 117.089,241.330 116.956,241.210 116.762 C 240.918 116.289,239.311 116.361,238.603 116.878 M242.682 118.724 C 242.682 120.033,242.822 121.014,243.009 121.014 C 243.196 121.014,243.336 120.033,243.336 118.724 C 243.336 117.416,243.196 116.435,243.009 116.435 C 242.822 116.435,242.682 117.416,242.682 118.724 M245.153 117.162 C 243.882 118.977,244.973 121.202,246.977 120.881 C 248.330 120.665,248.502 120.861,247.800 121.820 C 247.454 122.294,247.098 122.381,246.144 122.226 C 245.276 122.086,244.965 122.141,245.057 122.421 C 245.292 123.137,247.483 123.081,248.223 122.341 C 248.959 121.606,249.261 116.435,248.569 116.435 C 248.389 116.435,248.242 116.587,248.242 116.774 C 248.242 117.007,248.045 117.007,247.609 116.774 C 246.603 116.235,245.703 116.377,245.153 117.162 M250.204 118.724 C 250.204 120.033,250.345 121.014,250.531 121.014 C 250.711 121.014,250.859 120.508,250.859 119.890 C 250.859 116.471,253.234 115.766,253.410 119.133 C 253.464 120.168,253.655 121.014,253.834 121.014 C 254.026 121.014,254.120 120.188,254.063 119.004 C 253.947 116.614,253.427 116.063,251.848 116.659 C 251.304 116.864,250.859 116.898,250.859 116.734 C 250.859 116.569,250.711 116.435,250.531 116.435 C 250.345 116.435,250.204 117.416,250.204 118.724 M258.120 118.445 C 258.236 120.835,258.756 121.386,260.335 120.790 C 260.879 120.585,261.325 120.551,261.325 120.715 C 261.325 120.880,261.472 121.014,261.652 121.014 C 261.839 121.014,261.979 120.033,261.979 118.724 C 261.979 115.698,261.087 115.350,260.932 118.316 C 260.836 120.165,260.818 120.196,259.853 120.196 C 258.888 120.196,258.870 120.165,258.774 118.316 C 258.720 117.281,258.529 116.435,258.349 116.435 C 258.157 116.435,258.063 117.261,258.120 118.445 M263.287 119.706 C 263.287 121.668,263.418 122.976,263.614 122.976 C 263.794 122.976,263.941 122.391,263.941 121.675 C 263.941 120.406,263.961 120.383,264.759 120.746 C 266.483 121.532,268.037 119.766,267.341 117.813 C 266.904 116.588,266.117 116.211,264.931 116.659 C 264.386 116.864,263.941 116.898,263.941 116.734 C 263.941 116.569,263.794 116.435,263.614 116.435 C 263.418 116.435,263.287 117.743,263.287 119.706 M247.943 117.979 C 248.417 119.227,247.859 120.360,246.770 120.360 C 245.681 120.360,245.123 119.227,245.598 117.979 C 245.844 117.332,246.164 117.089,246.770 117.089 C 247.377 117.089,247.696 117.332,247.943 117.979 M266.558 117.907 C 267.023 119.132,266.450 120.360,265.413 120.360 C 264.824 120.360,264.488 120.119,264.268 119.542 C 263.803 118.317,264.376 117.089,265.413 117.089 C 266.001 117.089,266.338 117.330,266.558 117.907 M180.213 118.742 C 168.790 118.861,155.875 118.980,151.513 119.005 L 143.581 119.052 143.581 145.013 C 143.581 179.001,145.015 175.961,128.987 175.961 L 119.379 175.961 119.379 180.558 L 119.379 185.156 133.851 185.055 C 150.078 184.943,149.790 184.985,151.256 182.490 C 151.906 181.383,151.925 180.764,152.085 155.683 C 152.260 128.180,152.208 128.974,153.959 127.351 C 155.925 125.529,154.800 125.593,184.831 125.593 C 200.100 125.593,212.592 125.504,212.592 125.395 C 212.592 125.286,212.235 124.773,211.800 124.255 C 210.949 123.244,209.648 120.091,209.648 119.039 C 209.648 118.431,209.425 118.401,205.315 118.462 C 202.931 118.497,191.635 118.623,180.213 118.742 M123.385 119.296 L 119.379 119.399 119.379 147.052 L 119.379 174.704 128.945 174.597 C 143.673 174.431,142.084 177.981,142.203 144.971 L 142.296 119.052 134.844 119.122 C 130.745 119.161,125.589 119.239,123.385 119.296 M26.492 195.653 L 26.492 221.886 33.029 211.434 L 39.565 200.981 39.570 195.666 L 39.575 190.352 33.688 190.352 C 28.019 190.352,27.800 190.327,27.800 189.697 C 27.800 189.068,28.019 189.043,33.688 189.043 L 39.575 189.043 39.575 186.489 L 39.575 183.934 37.991 183.528 C 31.758 181.931,31.362 171.923,37.449 169.812 C 38.200 169.551,37.033 169.465,32.461 169.445 L 26.492 169.419 26.492 195.653 M43.009 169.812 C 49.095 171.923,48.700 181.931,42.467 183.528 L 40.883 183.934 40.883 186.489 L 40.883 189.043 46.770 189.043 C 52.439 189.043,52.657 189.068,52.657 189.697 C 52.657 190.327,52.439 190.352,46.770 190.352 L 40.883 190.352 40.888 195.666 L 40.893 200.981 47.429 211.434 L 53.966 221.886 53.966 195.653 L 53.966 169.419 47.997 169.445 C 43.425 169.465,42.257 169.551,43.009 169.812 M262.796 176.438 C 296.634 180.131,307.498 200.538,281.474 211.522 C 255.526 222.473,212.475 214.427,209.768 198.119 L 209.565 196.893 183.769 196.893 C 158.190 196.893,157.972 196.887,157.972 196.239 C 157.972 195.590,158.190 195.585,183.769 195.585 L 209.565 195.585 209.768 194.358 C 211.774 182.274,237.285 173.653,262.796 176.438 M143.908 194.665 L 143.908 196.688 144.826 195.809 C 146.185 194.507,147.295 194.596,146.039 195.906 L 145.105 196.882 145.981 198.113 C 147.088 199.670,146.459 200.025,145.163 198.575 C 144.028 197.304,143.908 197.300,143.908 198.528 C 143.908 199.182,143.745 199.509,143.418 199.509 C 143.013 199.509,142.927 198.910,142.927 196.075 C 142.927 193.241,143.013 192.641,143.418 192.641 C 143.801 192.641,143.908 193.084,143.908 194.665 M228.029 193.034 C 227.814 193.249,227.637 193.711,227.637 194.060 C 227.637 194.409,227.379 194.890,227.065 195.129 C 226.519 195.543,226.519 195.564,227.065 195.574 C 227.545 195.583,227.637 195.900,227.637 197.547 C 227.637 198.637,227.782 199.509,227.964 199.509 C 228.146 199.509,228.291 198.637,228.291 197.547 C 228.291 196.021,228.400 195.585,228.782 195.585 C 229.052 195.585,229.272 195.437,229.272 195.258 C 229.272 195.078,229.041 194.930,228.759 194.930 C 227.918 194.930,228.316 193.478,229.191 193.354 C 229.595 193.297,229.926 193.113,229.926 192.945 C 229.926 192.505,228.492 192.571,228.029 193.034 M243.009 196.075 C 243.009 198.147,243.139 199.509,243.336 199.509 C 243.516 199.509,243.663 198.803,243.663 197.939 C 243.663 196.286,244.069 195.585,245.025 195.585 C 245.803 195.585,246.280 196.570,246.280 198.180 C 246.280 198.911,246.427 199.509,246.607 199.509 C 246.787 199.509,246.934 198.710,246.934 197.734 C 246.934 195.523,246.334 194.783,244.751 195.040 C 243.673 195.215,243.663 195.205,243.663 193.929 C 243.663 193.221,243.516 192.641,243.336 192.641 C 243.139 192.641,243.009 194.004,243.009 196.075 M253.802 193.941 C 253.802 195.214,253.781 195.237,252.812 195.043 C 251.440 194.769,250.531 195.636,250.531 197.220 C 250.531 198.875,251.280 199.481,253.231 199.406 L 254.783 199.346 254.783 195.993 C 254.783 193.232,254.697 192.641,254.293 192.641 C 253.939 192.641,253.802 193.004,253.802 193.941 M268.847 196.075 C 268.847 198.147,268.977 199.509,269.174 199.509 C 269.354 199.509,269.501 199.357,269.501 199.171 C 269.501 198.937,269.698 198.937,270.134 199.171 C 272.282 200.320,274.049 197.741,272.565 195.622 C 272.129 194.999,271.828 194.892,270.929 195.038 C 269.835 195.215,269.828 195.208,269.828 193.929 C 269.828 193.002,269.691 192.641,269.338 192.641 C 268.933 192.641,268.847 193.241,268.847 196.075 M128.635 193.781 C 128.671 193.959,128.442 194.153,128.128 194.214 C 127.770 194.283,127.555 194.123,127.555 193.786 C 127.555 193.217,128.522 193.213,128.635 193.781 M260.883 194.631 C 260.502 195.079,260.403 195.419,260.617 195.551 C 260.803 195.667,261.002 196.479,261.058 197.356 C 261.170 199.098,261.789 199.794,262.834 199.353 C 263.393 199.117,263.374 199.072,262.633 198.879 C 261.494 198.582,261.180 195.585,262.288 195.585 C 262.658 195.585,262.960 195.437,262.960 195.258 C 262.960 195.078,262.676 194.930,262.330 194.930 C 261.983 194.930,261.652 194.703,261.594 194.426 C 261.508 194.017,261.372 194.057,260.883 194.631 M126.501 195.524 C 126.609 195.852,126.362 195.902,125.464 195.733 C 124.064 195.470,123.709 196.409,125.078 196.753 C 127.824 197.442,126.977 199.791,124.104 199.453 C 122.602 199.277,122.729 198.554,124.248 198.628 C 125.897 198.708,126.082 198.197,124.649 197.521 C 123.208 196.840,122.814 196.121,123.506 195.429 C 124.136 194.799,126.285 194.867,126.501 195.524 M128.536 197.220 C 128.536 199.037,128.435 199.509,128.046 199.509 C 127.656 199.509,127.555 199.037,127.555 197.220 C 127.555 195.403,127.656 194.930,128.046 194.930 C 128.435 194.930,128.536 195.403,128.536 197.220 M133.675 195.315 C 134.296 195.831,134.250 199.509,133.622 199.509 C 133.274 199.509,133.122 199.009,133.050 197.632 C 132.888 194.529,130.826 194.963,130.826 198.100 C 130.826 199.135,130.695 199.509,130.335 199.509 C 129.947 199.509,129.845 199.043,129.845 197.276 L 129.845 195.042 131.549 195.003 C 132.486 194.982,133.443 195.122,133.675 195.315 M139.330 197.758 C 139.330 200.989,138.958 201.557,136.944 201.407 C 136.215 201.353,135.559 201.126,135.486 200.902 C 135.390 200.611,135.636 200.553,136.359 200.698 C 137.397 200.905,138.348 200.423,138.348 199.690 C 138.348 199.437,137.992 199.348,137.354 199.442 C 135.996 199.641,135.078 198.768,135.078 197.277 C 135.078 195.564,135.832 194.921,137.743 195.004 L 139.330 195.073 139.330 197.758 M150.833 195.472 C 152.082 196.602,151.620 197.502,149.734 197.612 C 148.100 197.707,148.060 197.732,148.629 198.299 C 148.987 198.656,149.584 198.848,150.147 198.789 C 150.657 198.736,151.118 198.839,151.171 199.019 C 151.373 199.704,148.558 199.580,147.851 198.873 C 145.853 196.875,148.742 193.580,150.833 195.472 M153.342 196.648 C 153.876 198.064,154.032 198.250,154.230 197.711 C 155.032 195.530,155.376 194.930,155.825 194.930 C 156.256 194.930,156.233 195.174,155.662 196.648 C 154.248 200.293,153.612 201.302,152.657 201.412 C 151.626 201.530,151.429 200.980,152.410 200.723 C 153.467 200.447,153.516 199.641,152.611 197.380 C 151.614 194.891,151.620 194.930,152.226 194.930 C 152.490 194.930,152.976 195.679,153.342 196.648 M218.806 197.220 C 218.806 198.528,218.946 199.509,219.133 199.509 C 219.313 199.509,219.460 198.953,219.460 198.274 C 219.460 196.926,220.204 195.585,220.951 195.585 C 221.210 195.585,221.423 195.437,221.423 195.258 C 221.423 194.801,220.658 194.849,220.139 195.339 C 219.792 195.666,219.676 195.666,219.556 195.339 C 219.161 194.264,218.806 195.155,218.806 197.220 M222.731 195.585 C 220.898 197.417,223.002 200.264,225.484 199.311 C 226.469 198.933,225.996 198.591,224.726 198.762 C 223.661 198.904,223.388 198.818,223.079 198.240 C 222.724 197.577,222.779 197.547,224.355 197.547 C 225.864 197.547,226.002 197.483,226.002 196.780 C 226.002 195.122,223.945 194.371,222.731 195.585 M230.253 197.220 C 230.253 198.528,230.394 199.509,230.581 199.509 C 230.760 199.509,230.908 198.953,230.908 198.274 C 230.908 196.926,231.651 195.585,232.398 195.585 C 232.658 195.585,232.870 195.437,232.870 195.258 C 232.870 194.801,232.106 194.849,231.586 195.339 C 231.240 195.666,231.123 195.666,231.003 195.339 C 230.609 194.264,230.253 195.155,230.253 197.220 M234.178 195.585 C 232.346 197.417,234.449 200.264,236.932 199.311 C 237.916 198.933,237.444 198.591,236.173 198.762 C 235.108 198.904,234.835 198.818,234.526 198.240 C 234.171 197.577,234.226 197.547,235.802 197.547 C 237.312 197.547,237.449 197.483,237.449 196.780 C 237.449 195.122,235.392 194.371,234.178 195.585 M238.774 195.400 C 238.169 196.130,238.581 196.853,239.920 197.412 C 241.374 198.020,241.220 198.692,239.626 198.692 C 238.166 198.692,238.229 199.305,239.703 199.450 C 241.881 199.664,242.452 197.915,240.511 196.977 C 239.191 196.340,239.136 195.760,240.392 195.727 C 241.685 195.692,241.663 195.105,240.364 194.996 C 239.609 194.932,239.043 195.077,238.774 195.400 M256.637 195.149 C 256.202 195.583,256.439 195.754,257.473 195.751 C 258.218 195.749,258.562 195.916,258.642 196.321 C 258.728 196.750,258.540 196.893,257.893 196.893 C 256.698 196.893,255.765 197.454,255.765 198.173 C 255.765 199.096,256.504 199.510,258.000 199.424 L 259.359 199.346 259.361 197.531 C 259.363 195.306,257.824 193.961,256.637 195.149 M264.595 195.258 C 264.083 195.589,264.144 195.612,265.734 195.696 C 267.037 195.766,267.353 196.893,266.070 196.893 C 264.770 196.893,263.941 197.468,263.941 198.370 C 263.941 199.325,265.317 199.829,266.280 199.227 C 266.655 198.993,266.885 198.975,266.885 199.180 C 266.885 199.361,267.032 199.509,267.212 199.509 C 267.677 199.509,267.619 195.796,267.146 195.323 C 266.676 194.852,265.278 194.817,264.595 195.258 M274.952 195.149 C 274.517 195.583,274.755 195.754,275.789 195.751 C 276.534 195.749,276.877 195.916,276.958 196.321 C 277.043 196.750,276.856 196.893,276.209 196.893 C 275.014 196.893,274.080 197.454,274.080 198.173 C 274.080 199.096,274.820 199.510,276.315 199.424 L 277.674 199.346 277.676 197.531 C 277.678 195.306,276.140 193.961,274.952 195.149 M279.330 195.400 C 278.725 196.130,279.137 196.853,280.476 197.412 C 281.930 198.020,281.776 198.692,280.182 198.692 C 278.722 198.692,278.785 199.305,280.259 199.450 C 282.437 199.664,283.008 197.915,281.067 196.977 C 279.747 196.340,279.692 195.760,280.948 195.727 C 282.241 195.692,282.219 195.105,280.920 194.996 C 280.165 194.932,279.599 195.077,279.330 195.400 M283.892 195.585 C 282.426 197.051,283.577 199.648,285.603 199.447 C 286.163 199.391,286.672 199.191,286.734 199.002 C 286.803 198.791,286.415 198.709,285.725 198.789 C 284.841 198.892,284.526 198.775,284.236 198.234 C 283.886 197.578,283.944 197.547,285.516 197.547 C 287.025 197.547,287.163 197.483,287.163 196.780 C 287.163 195.122,285.106 194.371,283.892 195.585 M136.451 195.977 C 135.892 196.536,135.966 198.044,136.577 198.551 C 137.286 199.139,138.153 198.562,138.290 197.412 C 138.464 195.954,137.346 195.082,136.451 195.977 M148.487 196.239 C 148.168 196.836,148.239 196.893,149.293 196.893 C 150.503 196.893,150.717 196.636,150.057 195.977 C 149.479 195.399,148.884 195.498,148.487 196.239 M224.955 195.977 C 225.613 196.635,225.401 196.893,224.203 196.893 C 223.467 196.893,223.058 196.737,223.058 196.457 C 223.058 195.547,224.229 195.251,224.955 195.977 M236.402 195.977 C 237.060 196.635,236.848 196.893,235.650 196.893 C 234.914 196.893,234.505 196.737,234.505 196.457 C 234.505 195.547,235.676 195.251,236.402 195.977 M253.639 197.220 C 253.639 199.054,252.173 199.619,251.463 198.059 C 250.881 196.781,251.555 195.508,252.742 195.645 C 253.571 195.740,253.639 195.859,253.639 197.220 M272.177 196.402 C 272.750 197.658,272.064 198.930,270.888 198.795 C 269.975 198.690,269.492 197.261,269.959 196.044 C 270.264 195.249,271.762 195.491,272.177 196.402 M286.116 195.977 C 286.793 196.654,286.552 196.893,285.189 196.893 C 283.970 196.893,283.896 196.843,284.219 196.239 C 284.611 195.507,285.520 195.381,286.116 195.977 M258.647 198.119 C 258.524 198.764,257.170 199.083,256.671 198.584 C 256.151 198.064,256.699 197.547,257.770 197.547 C 258.533 197.547,258.731 197.677,258.647 198.119 M266.885 198.031 C 266.885 198.629,265.328 199.065,264.861 198.598 C 264.333 198.070,264.861 197.547,265.923 197.547 C 266.554 197.547,266.885 197.713,266.885 198.031 M276.963 198.119 C 276.840 198.764,275.485 199.083,274.987 198.584 C 274.467 198.064,275.015 197.547,276.086 197.547 C 276.848 197.547,277.047 197.677,276.963 198.119 M33.909 213.152 L 27.825 222.895 34.027 222.983 C 37.438 223.032,43.020 223.032,46.431 222.983 L 52.634 222.895 46.610 213.251 C 43.297 207.947,40.453 203.563,40.289 203.509 C 40.126 203.454,37.255 207.794,33.909 213.152 M26.492 280.690 L 26.492 306.923 33.029 296.470 L 39.565 286.018 39.570 280.703 L 39.575 275.388 33.688 275.388 C 28.019 275.388,27.800 275.364,27.800 274.734 C 27.800 274.104,28.019 274.080,33.688 274.080 L 39.575 274.080 39.575 271.525 L 39.575 268.971 37.991 268.565 C 31.758 266.967,31.362 256.960,37.449 254.848 C 38.200 254.588,37.033 254.502,32.461 254.482 L 26.492 254.456 26.492 280.690 M43.009 254.848 C 49.095 256.960,48.700 266.967,42.467 268.565 L 40.883 268.971 40.883 271.525 L 40.883 274.080 46.770 274.080 C 52.439 274.080,52.657 274.104,52.657 274.734 C 52.657 275.364,52.439 275.388,46.770 275.388 L 40.883 275.388 40.888 280.703 L 40.893 286.018 47.429 296.470 L 53.966 306.923 53.966 280.690 L 53.966 254.456 47.997 254.482 C 43.425 254.502,42.257 254.588,43.009 254.848 M262.796 261.475 C 296.634 265.168,307.498 285.575,281.474 296.558 C 255.526 307.510,212.475 299.463,209.768 283.156 L 209.565 281.930 190.310 281.930 C 171.273 281.930,171.055 281.922,171.055 281.276 C 171.055 280.629,171.273 280.621,190.310 280.621 L 209.565 280.621 209.768 279.395 C 211.774 267.311,237.285 258.690,262.796 261.475 M168.111 281.041 L 168.111 284.404 166.494 284.474 C 165.148 284.533,164.791 284.423,164.368 283.819 C 163.105 282.015,164.185 279.793,166.193 280.063 L 167.457 280.232 167.457 278.955 C 167.457 278.253,167.604 277.678,167.784 277.678 C 167.981 277.678,168.111 279.017,168.111 281.041 M250.531 281.112 C 250.531 283.183,250.661 284.546,250.859 284.546 C 251.056 284.546,251.186 283.183,251.186 281.112 C 251.186 279.041,251.056 277.678,250.859 277.678 C 250.661 277.678,250.531 279.041,250.531 281.112 M252.494 281.112 C 252.494 283.947,252.580 284.546,252.984 284.546 C 253.389 284.546,253.475 283.947,253.475 281.112 C 253.475 278.277,253.389 277.678,252.984 277.678 C 252.580 277.678,252.494 278.277,252.494 281.112 M265.576 281.112 C 265.576 283.183,265.706 284.546,265.904 284.546 C 266.083 284.546,266.231 284.187,266.231 283.748 C 266.231 282.478,266.900 282.382,267.834 283.518 C 268.301 284.087,268.874 284.551,269.108 284.549 C 269.352 284.547,269.085 283.989,268.478 283.234 L 267.423 281.922 268.360 280.945 C 269.053 280.222,269.160 279.967,268.774 279.967 C 268.486 279.967,267.880 280.409,267.425 280.948 C 266.296 282.291,266.231 282.229,266.231 279.804 C 266.231 278.605,266.088 277.678,265.904 277.678 C 265.706 277.678,265.576 279.041,265.576 281.112 M239.951 279.668 C 239.570 280.116,239.471 280.456,239.684 280.588 C 239.871 280.703,240.070 281.516,240.126 282.393 C 240.238 284.135,240.857 284.831,241.902 284.390 C 242.461 284.153,242.442 284.109,241.701 283.916 C 240.562 283.618,240.248 280.621,241.356 280.621 C 241.725 280.621,242.028 280.474,242.028 280.294 C 242.028 280.114,241.744 279.967,241.398 279.967 C 241.051 279.967,240.720 279.740,240.662 279.462 C 240.576 279.054,240.440 279.094,239.951 279.668 M257.400 279.449 C 257.400 279.704,257.216 279.987,256.991 280.079 C 256.678 280.206,256.673 280.309,256.971 280.522 C 257.185 280.674,257.406 281.606,257.462 282.591 C 257.557 284.273,257.618 284.389,258.463 284.486 C 258.957 284.543,259.362 284.433,259.362 284.241 C 259.362 284.049,259.068 283.892,258.708 283.892 C 258.141 283.892,258.054 283.674,258.054 282.257 C 258.054 280.839,258.141 280.621,258.708 280.621 C 259.068 280.621,259.362 280.474,259.362 280.294 C 259.362 280.114,259.068 279.967,258.708 279.967 C 258.345 279.967,258.054 279.749,258.054 279.477 C 258.054 279.207,257.907 278.986,257.727 278.986 C 257.547 278.986,257.400 279.195,257.400 279.449 M126.247 282.768 C 126.247 284.965,126.139 285.524,125.625 285.989 C 124.891 286.653,122.617 286.592,122.391 285.902 C 122.284 285.578,122.438 285.520,122.961 285.686 C 124.025 286.024,125.266 285.613,125.266 284.924 C 125.266 284.451,125.066 284.362,124.272 284.478 C 122.913 284.678,121.995 283.805,121.995 282.314 C 121.995 280.601,122.750 279.957,124.660 280.041 L 126.247 280.110 126.247 282.768 M133.589 280.488 C 135.009 281.908,133.745 284.761,131.820 284.478 C 130.882 284.341,130.826 284.394,130.826 285.421 C 130.826 286.170,130.673 286.509,130.335 286.509 C 129.932 286.509,129.845 285.932,129.845 283.281 L 129.845 280.053 131.463 280.016 C 132.530 279.992,133.254 280.153,133.589 280.488 M138.326 280.273 C 138.614 280.456,138.847 281.310,138.933 282.499 L 139.073 284.429 137.244 284.477 C 135.708 284.517,135.359 284.418,135.057 283.854 C 134.547 282.900,135.489 281.930,136.927 281.930 C 138.059 281.930,138.210 281.753,137.730 280.995 C 137.536 280.689,137.133 280.621,136.427 280.776 C 135.482 280.983,135.103 280.705,135.623 280.185 C 135.940 279.868,137.780 279.928,138.326 280.273 M142.927 280.458 C 142.837 280.638,142.372 280.741,141.894 280.686 C 140.488 280.527,140.510 281.197,141.934 281.924 C 144.061 283.009,143.511 284.689,141.095 284.486 C 139.373 284.341,139.219 283.581,140.929 283.664 C 142.577 283.745,142.762 283.234,141.330 282.558 C 139.888 281.877,139.494 281.157,140.186 280.466 C 140.766 279.885,143.217 279.878,142.927 280.458 M147.179 280.424 C 147.179 280.729,146.836 280.865,146.151 280.833 C 144.648 280.763,144.668 281.416,146.188 282.014 C 148.383 282.875,147.765 284.689,145.347 284.486 C 143.717 284.349,143.486 283.639,145.088 283.690 C 146.694 283.741,146.864 283.061,145.398 282.449 C 144.069 281.894,143.647 281.167,144.239 280.454 C 144.770 279.814,147.179 279.790,147.179 280.424 M149.219 281.684 L 149.707 283.401 150.194 281.766 C 150.866 279.509,151.542 279.477,152.270 281.667 C 152.588 282.621,152.888 283.254,152.939 283.074 C 152.990 282.895,153.192 282.122,153.388 281.357 C 153.618 280.465,153.929 279.967,154.259 279.967 C 154.541 279.967,154.702 280.151,154.617 280.376 C 154.533 280.601,154.216 281.641,153.913 282.687 C 153.225 285.064,152.541 285.083,151.752 282.747 L 151.199 281.112 150.732 282.747 C 149.916 285.602,149.085 285.005,148.031 280.806 C 147.603 279.099,148.718 279.923,149.219 281.684 M158.953 280.621 C 160.369 282.037,159.323 284.546,157.318 284.546 C 156.059 284.546,155.029 283.516,155.029 282.257 C 155.029 280.998,156.059 279.967,157.318 279.967 C 157.863 279.967,158.590 280.258,158.953 280.621 M163.532 280.252 C 163.532 280.376,163.091 280.645,162.551 280.848 C 161.638 281.193,161.570 281.334,161.570 282.882 C 161.570 284.143,161.451 284.546,161.079 284.546 C 160.691 284.546,160.589 284.080,160.589 282.309 L 160.589 280.071 162.061 280.049 C 162.870 280.036,163.532 280.128,163.532 280.252 M222.404 282.257 C 222.404 283.565,222.544 284.546,222.731 284.546 C 222.911 284.546,223.058 283.990,223.058 283.311 C 223.058 281.963,223.801 280.621,224.548 280.621 C 224.808 280.621,225.020 280.474,225.020 280.294 C 225.020 279.837,224.256 279.886,223.737 280.376 C 223.390 280.703,223.273 280.703,223.153 280.376 C 222.759 279.301,222.404 280.192,222.404 282.257 M226.329 280.621 C 224.496 282.454,226.599 285.300,229.082 284.348 C 230.066 283.970,229.594 283.628,228.323 283.798 C 227.259 283.941,226.986 283.855,226.676 283.277 C 226.322 282.614,226.376 282.584,227.953 282.584 C 229.462 282.584,229.599 282.520,229.599 281.817 C 229.599 280.159,227.543 279.407,226.329 280.621 M230.925 280.437 C 230.320 281.166,230.731 281.889,232.070 282.449 C 233.525 283.057,233.370 283.729,231.776 283.729 C 230.317 283.729,230.379 284.342,231.854 284.487 C 234.031 284.701,234.602 282.952,232.661 282.014 C 231.341 281.377,231.287 280.797,232.543 280.763 C 233.836 280.729,233.813 280.141,232.515 280.033 C 231.760 279.969,231.194 280.113,230.925 280.437 M235.487 280.621 C 234.021 282.087,235.171 284.685,237.198 284.484 C 237.758 284.428,238.267 284.228,238.329 284.039 C 238.398 283.827,238.009 283.745,237.320 283.826 C 236.436 283.929,236.121 283.812,235.831 283.270 C 235.480 282.615,235.539 282.584,237.110 282.584 C 238.620 282.584,238.757 282.520,238.757 281.817 C 238.757 280.159,236.701 279.407,235.487 280.621 M245.953 280.294 C 245.440 280.625,245.501 280.649,247.091 280.733 C 248.394 280.802,248.710 281.930,247.427 281.930 C 246.127 281.930,245.298 282.505,245.298 283.407 C 245.298 284.361,246.674 284.866,247.637 284.264 C 248.012 284.030,248.242 284.012,248.242 284.216 C 248.242 284.398,248.389 284.546,248.569 284.546 C 249.034 284.546,248.976 280.832,248.504 280.360 C 248.033 279.889,246.635 279.853,245.953 280.294 M260.670 280.621 C 259.349 281.942,260.278 284.546,262.069 284.546 C 263.418 284.546,264.268 283.660,264.268 282.257 C 264.268 280.186,262.094 279.198,260.670 280.621 M270.506 280.829 C 269.648 281.920,269.651 282.597,270.520 283.702 C 271.239 284.616,273.389 284.841,273.655 284.029 C 273.727 283.808,273.399 283.730,272.778 283.821 C 271.824 283.961,270.809 283.471,270.809 282.871 C 270.809 282.713,271.561 282.584,272.480 282.584 C 274.137 282.584,274.149 282.577,273.934 281.684 C 273.493 279.855,271.637 279.392,270.506 280.829 M275.061 282.257 C 275.061 283.565,275.201 284.546,275.388 284.546 C 275.568 284.546,275.715 284.041,275.715 283.423 C 275.715 280.003,278.091 279.298,278.267 282.666 C 278.320 283.700,278.511 284.546,278.691 284.546 C 278.883 284.546,278.977 283.720,278.920 282.536 C 278.804 280.146,278.284 279.595,276.705 280.191 C 276.161 280.397,275.715 280.430,275.715 280.266 C 275.715 280.102,275.568 279.967,275.388 279.967 C 275.201 279.967,275.061 280.948,275.061 282.257 M280.702 280.345 C 279.950 281.097,280.265 281.817,281.612 282.424 C 283.192 283.137,283.136 283.729,281.490 283.729 C 280.143 283.729,280.045 284.328,281.366 284.485 C 283.688 284.760,284.377 282.850,282.257 282.017 C 280.574 281.356,280.472 280.494,282.099 280.684 C 282.810 280.767,283.206 280.687,283.137 280.475 C 282.971 279.968,281.174 279.872,280.702 280.345 M123.369 281.014 C 122.272 282.110,123.071 284.103,124.467 283.753 C 125.762 283.428,125.452 280.621,124.121 280.621 C 123.923 280.621,123.585 280.798,123.369 281.014 M131.218 281.014 C 130.676 281.556,130.726 283.075,131.301 283.552 C 132.200 284.298,133.115 283.651,133.115 282.270 C 133.115 280.756,132.129 280.103,131.218 281.014 M156.353 281.092 C 155.372 282.275,156.664 284.462,157.890 283.694 C 159.084 282.946,158.651 280.621,157.318 280.621 C 157.002 280.621,156.568 280.833,156.353 281.092 M165.233 281.014 C 165.017 281.230,164.841 281.789,164.841 282.257 C 164.841 283.881,166.527 284.529,167.156 283.147 C 167.881 281.558,166.367 279.880,165.233 281.014 M228.553 281.014 C 229.211 281.672,228.999 281.930,227.800 281.930 C 227.065 281.930,226.656 281.774,226.656 281.494 C 226.656 280.584,227.826 280.288,228.553 281.014 M237.711 281.014 C 238.388 281.691,238.146 281.930,236.783 281.930 C 235.565 281.930,235.490 281.879,235.814 281.276 C 236.205 280.544,237.115 280.418,237.711 281.014 M263.222 281.014 C 263.437 281.230,263.614 281.789,263.614 282.257 C 263.614 284.021,261.576 284.595,260.970 283.002 C 260.309 281.263,261.988 279.781,263.222 281.014 M273.038 281.357 C 273.125 281.816,272.915 281.930,271.978 281.930 C 270.751 281.930,270.541 281.675,271.214 281.001 C 271.774 280.442,272.905 280.663,273.038 281.357 M135.895 282.911 C 135.604 283.382,136.005 283.892,136.667 283.892 C 137.257 283.892,138.021 283.302,138.021 282.845 C 138.021 282.466,136.135 282.524,135.895 282.911 M248.242 283.068 C 248.242 283.665,246.685 284.101,246.219 283.635 C 245.691 283.107,246.219 282.584,247.280 282.584 C 247.912 282.584,248.242 282.750,248.242 283.068 M33.909 298.189 L 27.825 307.931 34.027 308.020 C 37.438 308.069,43.020 308.069,46.431 308.020 L 52.634 307.931 46.610 298.288 C 43.297 292.984,40.453 288.600,40.289 288.546 C 40.126 288.491,37.255 292.831,33.909 298.189 " stroke="none" fill="#fbfbfb" fill-rule="evenodd"></path><path id="path1" d="M257.839 25.675 C 257.840 27.114,257.898 27.662,257.967 26.892 C 258.036 26.123,258.035 24.946,257.965 24.276 C 257.894 23.606,257.838 24.235,257.839 25.675 M248.078 38.792 C 227.867 39.994,212.551 47.058,210.195 56.266 L 209.737 58.054 173.798 58.217 L 137.858 58.381 136.386 59.199 C 135.299 59.803,134.700 60.444,134.096 61.652 L 133.279 63.287 133.115 78.823 C 132.953 94.242,132.946 94.366,132.222 95.381 C 130.647 97.589,132.803 97.465,95.862 97.465 C 62.538 97.465,62.469 97.467,62.469 98.128 C 62.469 98.791,62.508 98.791,95.912 98.701 L 129.354 98.610 130.989 97.792 C 132.197 97.189,132.839 96.590,133.442 95.503 L 134.260 94.031 134.424 78.332 C 134.586 62.743,134.592 62.626,135.317 61.610 C 136.902 59.387,134.455 59.514,174.014 59.606 L 209.737 59.689 210.195 61.488 C 210.898 64.250,212.667 66.721,213.942 66.721 C 214.854 66.721,214.941 66.806,214.799 67.553 C 214.662 68.270,214.915 68.577,216.641 69.787 C 239.702 85.949,291.814 79.805,295.698 60.465 C 298.184 48.085,274.336 37.231,248.078 38.792 M245.953 60.877 C 245.953 63.887,245.908 64.105,245.298 64.105 C 244.790 64.105,244.644 63.887,244.644 63.123 C 244.644 62.240,244.542 62.142,243.607 62.142 C 242.194 62.142,241.374 61.322,241.374 59.910 C 241.374 58.166,242.117 57.561,244.202 57.609 L 245.953 57.649 245.953 60.877 M247.915 58.893 C 247.915 60.424,248.385 61.488,249.060 61.488 C 249.735 61.488,250.204 60.424,250.204 58.893 C 250.204 57.929,250.339 57.563,250.695 57.563 C 251.083 57.563,251.186 58.031,251.186 59.810 L 251.186 62.057 249.496 62.095 C 248.567 62.116,247.611 61.970,247.370 61.770 C 246.723 61.233,246.770 57.563,247.424 57.563 C 247.780 57.563,247.915 57.929,247.915 58.893 M255.909 58.290 C 256.889 59.689,256.597 60.180,254.783 60.180 C 253.884 60.180,253.148 60.322,253.148 60.495 C 253.148 61.038,254.405 61.513,255.267 61.297 C 255.901 61.138,256.092 61.216,256.092 61.634 C 256.092 62.078,255.811 62.160,254.571 62.078 C 252.083 61.915,251.044 59.715,252.681 58.077 C 253.463 57.296,255.298 57.417,255.909 58.290 M261.979 59.199 L 262.555 60.670 263.085 59.404 C 263.376 58.708,263.614 58.008,263.614 57.850 C 263.614 57.693,263.924 57.563,264.303 57.563 C 264.723 57.563,264.929 57.723,264.830 57.972 C 264.741 58.197,264.261 59.411,263.764 60.670 C 263.266 61.930,262.638 63.217,262.368 63.532 C 261.845 64.143,260.343 64.325,260.343 63.778 C 260.343 63.598,260.559 63.451,260.823 63.451 C 261.873 63.451,262.024 62.255,261.224 60.274 C 260.096 57.479,258.397 57.766,258.386 60.752 C 258.382 61.768,258.249 62.142,257.890 62.142 C 257.502 62.142,257.400 61.673,257.400 59.880 L 257.400 57.618 259.402 57.672 L 261.404 57.727 261.979 59.199 M243.135 58.468 C 242.199 59.084,242.267 60.932,243.239 61.305 C 244.383 61.744,245.203 59.561,244.252 58.610 C 243.799 58.157,243.637 58.137,243.135 58.468 M253.540 58.610 C 252.904 59.246,253.084 59.526,254.129 59.526 C 255.187 59.526,255.504 58.766,254.593 58.416 C 253.934 58.163,253.999 58.151,253.540 58.610 M37.122 71.921 C 31.193 74.672,31.848 83.760,38.095 85.431 L 39.575 85.827 39.575 88.375 L 39.575 90.924 33.688 90.924 C 28.019 90.924,27.800 90.948,27.800 91.578 C 27.800 92.208,28.019 92.232,33.688 92.232 L 39.575 92.232 39.570 97.547 L 39.565 102.862 33.029 113.314 C 26.548 123.678,25.906 124.939,27.110 124.939 C 27.565 124.939,29.334 122.363,33.851 115.127 C 37.219 109.730,40.089 105.315,40.229 105.315 C 40.368 105.315,43.238 109.730,46.607 115.127 C 51.123 122.363,52.893 124.939,53.348 124.939 C 54.552 124.939,53.910 123.678,47.429 113.314 L 40.893 102.862 40.888 97.547 L 40.883 92.232 46.770 92.232 C 52.439 92.232,52.657 92.208,52.657 91.578 C 52.657 90.948,52.439 90.924,46.770 90.924 L 40.883 90.924 40.883 88.369 L 40.883 85.815 42.469 85.408 C 47.492 84.121,49.153 76.850,45.258 73.198 C 43.221 71.288,39.684 70.733,37.122 71.921 M248.078 97.664 C 227.866 98.866,212.545 105.933,210.196 115.137 L 209.740 116.926 206.832 117.136 C 205.233 117.252,198.626 117.363,192.150 117.382 C 161.895 117.472,143.581 117.830,143.581 118.331 C 143.581 118.751,147.726 118.796,176.658 118.686 L 209.736 118.561 210.194 120.360 C 210.898 123.123,212.667 125.593,213.942 125.593 C 214.854 125.593,214.941 125.678,214.799 126.424 C 214.662 127.142,214.915 127.449,216.641 128.659 C 239.702 144.821,291.814 138.676,295.698 119.337 C 298.184 106.957,274.336 96.103,248.078 97.664 M243.663 115.290 C 243.663 115.563,243.372 115.781,243.009 115.781 C 242.646 115.781,242.355 115.563,242.355 115.290 C 242.355 115.018,242.646 114.800,243.009 114.800 C 243.372 114.800,243.663 115.018,243.663 115.290 M241.438 116.926 C 241.383 117.105,240.913 117.216,240.393 117.172 C 238.929 117.047,238.923 117.648,240.381 118.391 C 242.526 119.486,242.018 121.014,239.509 121.014 C 238.490 121.014,238.103 120.882,238.103 120.533 C 238.103 120.194,238.416 120.073,239.166 120.124 C 240.648 120.225,240.711 119.652,239.293 118.967 C 238.068 118.375,237.613 117.023,238.512 116.644 C 239.201 116.353,241.543 116.578,241.438 116.926 M243.663 118.724 C 243.663 120.796,243.601 121.014,243.009 121.014 C 242.417 121.014,242.355 120.796,242.355 118.724 C 242.355 116.653,242.417 116.435,243.009 116.435 C 243.601 116.435,243.663 116.653,243.663 118.724 M248.896 119.356 C 248.896 121.125,248.749 122.339,248.504 122.584 C 247.887 123.200,244.971 123.098,244.971 122.460 C 244.971 122.054,245.185 121.990,245.966 122.162 C 247.008 122.390,247.915 121.928,247.915 121.168 C 247.915 120.910,247.664 120.814,247.266 120.918 C 245.512 121.377,244.026 119.929,244.463 118.188 C 244.786 116.903,245.543 116.445,247.278 116.484 L 248.896 116.520 248.896 119.356 M254.119 117.069 C 254.767 118.281,254.548 121.014,253.802 121.014 C 253.227 121.014,253.148 120.796,253.148 119.205 C 253.148 117.892,253.012 117.344,252.653 117.206 C 251.761 116.863,251.186 117.731,251.186 119.419 C 251.186 120.619,251.064 121.014,250.695 121.014 C 250.307 121.014,250.204 120.546,250.204 118.767 L 250.204 116.521 251.993 116.480 C 253.450 116.446,253.844 116.555,254.119 117.069 M258.708 117.765 C 258.708 119.295,259.178 120.360,259.853 120.360 C 260.528 120.360,260.998 119.295,260.998 117.765 C 260.998 116.801,261.133 116.435,261.488 116.435 C 261.877 116.435,261.979 116.903,261.979 118.682 L 261.979 120.928 260.290 120.966 C 259.360 120.987,258.404 120.841,258.164 120.642 C 257.516 120.104,257.563 116.435,258.217 116.435 C 258.573 116.435,258.708 116.801,258.708 117.765 M266.887 116.763 C 268.952 117.869,267.221 121.520,264.917 120.918 C 264.364 120.773,264.268 120.912,264.268 121.862 C 264.268 122.634,264.118 122.976,263.778 122.976 C 263.375 122.976,263.287 122.399,263.287 119.747 L 263.287 116.518 264.801 116.488 C 265.634 116.471,266.572 116.595,266.887 116.763 M246.018 117.482 C 245.459 118.041,245.533 119.548,246.144 120.055 C 246.852 120.644,247.720 120.067,247.857 118.917 C 248.030 117.459,246.913 116.587,246.018 117.482 M264.661 117.482 C 264.102 118.041,264.175 119.548,264.786 120.055 C 265.495 120.644,266.363 120.067,266.500 118.917 C 266.673 117.459,265.556 116.587,264.661 117.482 M81.439 118.077 C 71.096 118.171,62.596 118.281,62.551 118.322 C 62.506 118.364,62.469 118.714,62.469 119.100 L 62.469 119.803 86.427 119.593 C 135.192 119.165,142.273 119.016,142.273 118.419 C 142.273 117.828,121.748 117.712,81.439 118.077 M31.398 137.062 C 31.398 139.624,31.722 139.984,34.026 139.984 L 35.977 139.984 35.977 137.694 C 35.977 135.623,35.915 135.405,35.323 135.405 C 34.757 135.405,34.669 135.623,34.669 137.029 C 34.669 138.273,34.528 138.728,34.065 138.976 C 33.161 139.459,32.706 138.790,32.706 136.975 C 32.706 135.623,32.616 135.405,32.052 135.405 C 31.484 135.405,31.398 135.623,31.398 137.062 M37.024 135.797 C 36.234 136.587,36.587 137.402,37.949 137.937 C 39.540 138.562,39.469 139.203,37.823 139.070 C 36.925 138.998,36.631 139.099,36.631 139.479 C 36.631 140.166,39.650 140.191,40.216 139.509 C 40.832 138.766,40.481 137.906,39.343 137.368 C 38.009 136.738,37.991 136.222,39.305 136.222 C 39.869 136.222,40.394 136.038,40.471 135.814 C 40.657 135.268,37.567 135.254,37.024 135.797 M41.392 136.132 C 40.064 138.028,41.144 139.984,43.518 139.984 C 44.789 139.984,45.135 139.871,45.135 139.455 C 45.135 139.055,44.917 138.968,44.239 139.097 C 43.294 139.278,42.191 138.869,42.191 138.337 C 42.191 138.163,42.927 138.021,43.827 138.021 C 45.324 138.021,45.462 137.957,45.462 137.254 C 45.462 135.483,42.432 134.647,41.392 136.132 M46.116 137.737 C 46.116 140.752,47.319 141.216,47.489 138.267 C 47.581 136.665,47.648 136.543,48.487 136.446 C 50.177 136.252,49.555 135.413,47.751 135.453 L 46.116 135.490 46.116 137.737 M44.082 137.220 C 43.975 137.328,43.477 137.368,42.977 137.310 C 42.096 137.207,42.086 137.185,42.667 136.608 C 43.208 136.070,43.315 136.061,43.772 136.518 C 44.051 136.797,44.190 137.113,44.082 137.220 M248.078 176.159 C 227.458 177.386,212.143 184.634,210.032 194.167 C 209.766 195.367,209.803 195.549,210.343 195.690 C 210.681 195.778,210.957 196.025,210.957 196.239 C 210.957 196.452,210.681 196.699,210.343 196.787 C 209.060 197.123,210.685 201.353,213.152 204.096 C 227.846 220.440,277.796 220.440,292.490 204.096 C 305.170 189.993,280.148 174.252,248.078 176.159 M229.926 193.101 C 229.926 193.400,229.697 193.501,229.272 193.390 C 228.913 193.296,228.618 193.371,228.618 193.557 C 228.618 193.743,228.529 194.129,228.420 194.413 C 228.277 194.784,228.416 194.930,228.910 194.930 C 229.289 194.930,229.599 195.078,229.599 195.258 C 229.599 195.437,229.305 195.585,228.945 195.585 C 228.364 195.585,228.291 195.803,228.291 197.547 C 228.291 199.073,228.182 199.509,227.800 199.509 C 227.419 199.509,227.310 199.073,227.310 197.547 C 227.310 195.900,227.218 195.583,226.738 195.574 C 226.192 195.564,226.192 195.543,226.738 195.129 C 227.052 194.890,227.310 194.409,227.310 194.060 C 227.310 193.711,227.487 193.249,227.702 193.034 C 228.257 192.478,229.926 192.529,229.926 193.101 M243.990 193.786 C 243.990 194.863,244.054 194.930,245.070 194.930 C 246.582 194.930,246.934 195.436,246.934 197.612 C 246.934 199.081,246.823 199.509,246.443 199.509 C 246.068 199.509,245.953 199.095,245.953 197.746 C 245.953 196.479,245.814 195.929,245.462 195.793 C 244.398 195.385,243.990 195.927,243.990 197.746 C 243.990 199.291,243.909 199.509,243.336 199.509 C 242.723 199.509,242.682 199.291,242.682 196.075 C 242.682 192.859,242.723 192.641,243.336 192.641 C 243.866 192.641,243.990 192.859,243.990 193.786 M254.783 196.032 L 254.783 199.423 253.002 199.464 C 251.506 199.499,251.138 199.389,250.712 198.781 C 249.461 196.994,250.516 194.798,252.534 194.990 L 253.802 195.111 253.802 193.876 C 253.802 192.996,253.943 192.641,254.293 192.641 C 254.697 192.641,254.783 193.236,254.783 196.032 M269.828 193.876 L 269.828 195.111 271.108 194.989 C 272.741 194.834,273.621 195.917,273.290 197.676 C 273.007 199.188,272.516 199.507,270.536 199.462 L 268.847 199.424 268.847 196.032 C 268.847 193.236,268.933 192.641,269.338 192.641 C 269.687 192.641,269.828 192.996,269.828 193.876 M261.979 194.440 C 261.979 194.712,262.269 194.930,262.633 194.930 C 262.993 194.930,263.287 195.078,263.287 195.258 C 263.287 195.437,262.993 195.585,262.633 195.585 C 262.074 195.585,261.979 195.803,261.979 197.087 C 261.979 198.314,262.098 198.621,262.633 198.761 C 263.623 199.019,263.416 199.509,262.317 199.509 C 261.142 199.509,260.670 198.766,260.670 196.914 C 260.670 196.183,260.516 195.585,260.328 195.585 C 259.842 195.585,261.074 193.972,261.570 193.960 C 261.795 193.954,261.979 194.170,261.979 194.440 M221.664 195.351 C 221.592 195.569,221.250 195.802,220.905 195.868 C 220.034 196.034,219.798 196.510,219.792 198.119 C 219.789 199.135,219.655 199.509,219.297 199.509 C 218.908 199.509,218.806 199.042,218.806 197.261 L 218.806 195.013 220.301 194.983 C 221.339 194.963,221.756 195.075,221.664 195.351 M225.820 195.657 C 226.799 197.056,226.507 197.547,224.693 197.547 C 223.794 197.547,223.058 197.689,223.058 197.863 C 223.058 198.405,224.315 198.881,225.177 198.664 C 225.811 198.505,226.002 198.583,226.002 199.001 C 226.002 199.445,225.721 199.527,224.481 199.446 C 221.993 199.282,220.954 197.082,222.591 195.444 C 223.373 194.663,225.208 194.784,225.820 195.657 M233.112 195.351 C 233.039 195.569,232.697 195.802,232.352 195.868 C 231.481 196.034,231.245 196.510,231.240 198.119 C 231.236 199.135,231.102 199.509,230.744 199.509 C 230.356 199.509,230.253 199.042,230.253 197.261 L 230.253 195.013 231.749 194.983 C 232.787 194.963,233.203 195.075,233.112 195.351 M237.267 195.657 C 238.247 197.056,237.954 197.547,236.141 197.547 C 235.241 197.547,234.505 197.689,234.505 197.863 C 234.505 198.405,235.762 198.881,236.625 198.664 C 237.258 198.505,237.449 198.583,237.449 199.001 C 237.449 199.445,237.168 199.527,235.928 199.446 C 233.440 199.282,232.401 197.082,234.039 195.444 C 234.820 194.663,236.655 194.784,237.267 195.657 M241.701 195.422 C 241.701 195.773,241.406 195.890,240.673 195.831 C 239.251 195.716,239.164 196.345,240.534 196.840 C 241.786 197.293,242.302 198.294,241.675 199.050 C 241.168 199.661,238.387 199.556,238.177 198.919 C 238.074 198.607,238.368 198.519,239.262 198.592 C 240.897 198.725,241.090 198.038,239.593 197.412 C 237.370 196.483,237.793 194.930,240.269 194.930 C 241.325 194.930,241.701 195.059,241.701 195.422 M259.297 195.323 C 259.513 195.539,259.689 196.550,259.689 197.570 L 259.689 199.424 258.000 199.462 C 256.292 199.500,255.437 199.129,255.437 198.348 C 255.437 197.573,256.447 196.893,257.598 196.893 C 258.642 196.893,258.703 196.839,258.370 196.218 C 258.082 195.681,257.812 195.586,257.050 195.753 C 256.159 195.949,255.801 195.657,256.310 195.149 C 256.679 194.779,258.882 194.908,259.297 195.323 M267.473 195.323 C 267.689 195.539,267.866 196.550,267.866 197.570 L 267.866 199.424 266.177 199.462 C 264.359 199.503,263.614 199.128,263.614 198.173 C 263.614 197.454,264.548 196.893,265.742 196.893 C 266.392 196.893,266.576 196.751,266.487 196.321 C 266.399 195.896,266.097 195.770,265.318 195.831 C 264.328 195.909,263.997 195.638,264.486 195.149 C 264.856 194.779,267.058 194.908,267.473 195.323 M277.612 195.323 C 277.828 195.539,278.005 196.550,278.005 197.570 L 278.005 199.424 276.316 199.462 C 274.608 199.500,273.753 199.129,273.753 198.348 C 273.753 197.573,274.763 196.893,275.914 196.893 C 276.957 196.893,277.018 196.839,276.685 196.218 C 276.398 195.681,276.128 195.586,275.366 195.753 C 274.475 195.949,274.117 195.657,274.625 195.149 C 274.995 194.779,277.197 194.908,277.612 195.323 M282.257 195.422 C 282.257 195.773,281.963 195.890,281.229 195.831 C 279.807 195.716,279.720 196.345,281.090 196.840 C 282.342 197.293,282.858 198.294,282.231 199.050 C 281.724 199.661,278.943 199.556,278.733 198.919 C 278.630 198.607,278.924 198.519,279.818 198.592 C 281.453 198.725,281.646 198.038,280.149 197.412 C 277.926 196.483,278.349 194.930,280.825 194.930 C 281.881 194.930,282.257 195.059,282.257 195.422 M286.981 195.657 C 287.960 197.056,287.668 197.547,285.854 197.547 C 284.955 197.547,284.219 197.689,284.219 197.863 C 284.219 198.405,285.476 198.881,286.338 198.664 C 286.964 198.507,287.163 198.584,287.163 198.983 C 287.163 200.197,283.973 199.608,283.265 198.264 C 282.025 195.909,285.466 193.495,286.981 195.657 M223.451 195.977 C 222.814 196.613,222.994 196.893,224.039 196.893 C 225.097 196.893,225.414 196.133,224.503 195.783 C 223.844 195.530,223.909 195.518,223.451 195.977 M234.898 195.977 C 234.262 196.613,234.441 196.893,235.487 196.893 C 236.544 196.893,236.862 196.133,235.950 195.783 C 235.292 195.530,235.356 195.518,234.898 195.977 M251.905 195.977 C 251.054 196.828,251.635 198.855,252.730 198.855 C 253.467 198.855,253.963 197.343,253.535 196.402 C 253.131 195.515,252.525 195.357,251.905 195.977 M270.096 196.402 C 269.817 197.014,269.817 197.426,270.096 198.038 C 270.727 199.423,272.118 198.861,272.118 197.220 C 272.118 195.579,270.727 195.017,270.096 196.402 M284.612 195.977 C 283.975 196.613,284.155 196.893,285.200 196.893 C 285.740 196.893,286.182 196.775,286.182 196.631 C 286.182 196.326,285.487 195.585,285.200 195.585 C 285.092 195.585,284.827 195.761,284.612 195.977 M256.909 197.874 C 256.798 198.054,256.798 198.348,256.909 198.528 C 257.243 199.068,258.008 198.898,258.381 198.201 C 258.763 197.488,257.343 197.172,256.909 197.874 M265.035 198.052 C 264.929 198.329,264.922 198.637,265.021 198.736 C 265.346 199.061,266.558 198.493,266.558 198.016 C 266.558 197.385,265.279 197.416,265.035 198.052 M275.225 197.874 C 275.114 198.054,275.114 198.348,275.225 198.528 C 275.559 199.068,276.324 198.898,276.697 198.201 C 277.079 197.488,275.659 197.172,275.225 197.874 M248.078 261.196 C 227.458 262.422,212.143 269.671,210.032 279.204 C 209.766 280.404,209.803 280.586,210.343 280.727 C 210.681 280.815,210.957 281.062,210.957 281.276 C 210.957 281.489,210.681 281.736,210.343 281.824 C 209.060 282.160,210.685 286.390,213.152 289.133 C 227.846 305.477,277.796 305.477,292.490 289.133 C 305.170 275.030,280.148 259.289,248.078 261.196 M251.513 281.112 C 251.513 284.328,251.471 284.546,250.859 284.546 C 250.246 284.546,250.204 284.328,250.204 281.112 C 250.204 277.896,250.246 277.678,250.859 277.678 C 251.471 277.678,251.513 277.896,251.513 281.112 M253.475 281.112 C 253.475 283.947,253.389 284.546,252.984 284.546 C 252.580 284.546,252.494 283.947,252.494 281.112 C 252.494 278.277,252.580 277.678,252.984 277.678 C 253.389 277.678,253.475 278.277,253.475 281.112 M266.558 279.701 L 266.558 281.725 267.475 280.846 C 268.835 279.544,269.945 279.632,268.689 280.943 L 267.754 281.919 268.633 283.151 C 269.399 284.223,269.441 284.398,268.956 284.500 C 268.639 284.567,268.134 284.251,267.779 283.764 C 266.996 282.689,266.558 282.677,266.558 283.729 C 266.558 284.237,266.372 284.546,266.067 284.546 C 265.662 284.546,265.576 283.947,265.576 281.112 C 265.576 278.277,265.662 277.678,266.067 277.678 C 266.450 277.678,266.558 278.121,266.558 279.701 M241.047 279.477 C 241.047 279.749,241.337 279.967,241.701 279.967 C 242.061 279.967,242.355 280.114,242.355 280.294 C 242.355 280.474,242.061 280.621,241.701 280.621 C 241.142 280.621,241.047 280.839,241.047 282.124 C 241.047 283.351,241.166 283.658,241.701 283.797 C 242.690 284.056,242.484 284.546,241.385 284.546 C 240.210 284.546,239.738 283.803,239.738 281.951 C 239.738 281.220,239.584 280.621,239.396 280.621 C 238.910 280.621,240.142 279.009,240.638 278.996 C 240.863 278.991,241.047 279.207,241.047 279.477 M258.054 279.477 C 258.054 279.782,258.363 279.967,258.872 279.967 C 259.321 279.967,259.689 280.114,259.689 280.294 C 259.689 280.474,259.321 280.621,258.872 280.621 C 258.159 280.621,258.054 280.765,258.054 281.739 C 258.054 283.281,258.343 283.892,259.070 283.892 C 259.411 283.892,259.689 284.039,259.689 284.219 C 259.689 284.679,257.939 284.628,257.465 284.154 C 257.249 283.938,257.073 283.067,257.073 282.219 C 257.073 281.340,256.910 280.622,256.694 280.550 C 256.444 280.466,256.524 280.179,256.930 279.705 C 257.647 278.867,258.054 278.785,258.054 279.477 M225.262 280.388 C 225.189 280.606,224.848 280.839,224.503 280.905 C 223.631 281.071,223.396 281.547,223.390 283.156 C 223.386 284.171,223.253 284.546,222.895 284.546 C 222.506 284.546,222.404 284.078,222.404 282.298 L 222.404 280.050 223.899 280.020 C 224.937 279.999,225.354 280.112,225.262 280.388 M229.417 280.694 C 230.397 282.093,230.104 282.584,228.291 282.584 C 227.392 282.584,226.656 282.726,226.656 282.899 C 226.656 283.442,227.913 283.917,228.775 283.701 C 229.409 283.542,229.599 283.620,229.599 284.038 C 229.599 284.482,229.319 284.564,228.079 284.482 C 225.591 284.319,224.551 282.118,226.189 280.481 C 226.970 279.699,228.806 279.821,229.417 280.694 M233.851 280.459 C 233.851 280.810,233.557 280.927,232.824 280.868 C 231.401 280.753,231.314 281.382,232.684 281.877 C 233.936 282.330,234.453 283.331,233.825 284.087 C 233.319 284.697,230.537 284.593,230.327 283.956 C 230.225 283.644,230.519 283.555,231.412 283.628 C 233.048 283.762,233.241 283.075,231.743 282.449 C 229.521 281.520,229.944 279.967,232.419 279.967 C 233.476 279.967,233.851 280.096,233.851 280.459 M238.575 280.694 C 239.555 282.093,239.262 282.584,237.449 282.584 C 236.549 282.584,235.814 282.726,235.814 282.899 C 235.814 283.442,237.071 283.917,237.933 283.701 C 238.558 283.544,238.757 283.621,238.757 284.020 C 238.757 285.234,235.568 284.645,234.860 283.301 C 233.619 280.946,237.061 278.532,238.575 280.694 M248.831 280.360 C 249.047 280.576,249.223 281.587,249.223 282.606 L 249.223 284.461 247.534 284.499 C 245.716 284.540,244.971 284.165,244.971 283.209 C 244.971 282.491,245.905 281.930,247.100 281.930 C 247.749 281.930,247.934 281.788,247.844 281.357 C 247.757 280.933,247.455 280.806,246.676 280.868 C 245.685 280.946,245.354 280.675,245.844 280.185 C 246.213 279.816,248.415 279.944,248.831 280.360 M263.941 280.621 C 265.472 282.153,264.256 284.669,262.074 284.483 C 259.925 284.300,259.031 281.981,260.531 280.481 C 261.261 279.750,263.148 279.828,263.941 280.621 M273.482 280.509 C 274.731 281.639,274.269 282.539,272.384 282.648 C 270.757 282.743,270.711 282.771,271.271 283.328 C 271.714 283.769,272.134 283.857,273.010 283.693 C 273.912 283.524,274.132 283.575,274.015 283.930 C 273.449 285.649,269.828 284.251,269.828 282.314 C 269.828 280.237,271.998 279.165,273.482 280.509 M278.976 280.602 C 279.624 281.813,279.405 284.546,278.659 284.546 C 278.084 284.546,278.005 284.328,278.005 282.737 C 278.005 281.424,277.869 280.876,277.510 280.738 C 276.618 280.396,276.043 281.263,276.043 282.951 C 276.043 284.151,275.921 284.546,275.552 284.546 C 275.163 284.546,275.061 284.079,275.061 282.300 L 275.061 280.053 276.850 280.012 C 278.307 279.979,278.700 280.088,278.976 280.602 M283.565 280.473 C 283.565 280.873,283.327 280.934,282.420 280.763 C 280.857 280.470,280.834 281.406,282.391 281.920 C 284.929 282.758,283.890 284.818,281.095 284.490 C 279.650 284.320,279.684 283.564,281.133 283.654 C 282.736 283.752,282.885 283.176,281.435 282.484 C 279.252 281.443,279.661 279.967,282.133 279.967 C 283.207 279.967,283.565 280.094,283.565 280.473 M227.048 281.014 C 226.412 281.650,226.592 281.930,227.637 281.930 C 228.695 281.930,229.012 281.170,228.101 280.820 C 227.442 280.567,227.507 280.555,227.048 281.014 M236.206 281.014 C 235.570 281.650,235.750 281.930,236.795 281.930 C 237.334 281.930,237.776 281.812,237.776 281.668 C 237.776 281.363,237.081 280.621,236.795 280.621 C 236.687 280.621,236.422 280.798,236.206 281.014 M261.390 281.014 C 260.831 281.573,260.905 283.081,261.516 283.588 C 262.224 284.176,263.092 283.599,263.229 282.449 C 263.402 280.991,262.285 280.119,261.390 281.014 M271.545 280.838 C 270.717 281.172,271.122 281.930,272.129 281.930 C 273.021 281.930,273.086 281.863,272.772 281.276 C 272.414 280.606,272.258 280.550,271.545 280.838 M246.393 283.089 C 246.286 283.366,246.280 283.674,246.378 283.773 C 246.704 284.098,247.915 283.530,247.915 283.052 C 247.915 282.422,246.637 282.452,246.393 283.089 " stroke="none" fill="#55c4ae" fill-rule="evenodd"></path><path id="path2" d="M248.095 23.630 C 246.422 27.662,246.038 28.782,246.331 28.782 C 246.514 28.782,246.830 28.340,247.034 27.800 C 247.364 26.926,247.553 26.819,248.772 26.819 C 249.998 26.819,250.176 26.921,250.482 27.800 C 250.671 28.340,250.977 28.782,251.164 28.782 C 251.354 28.782,251.202 28.028,250.817 27.065 C 250.440 26.120,249.895 24.722,249.606 23.957 C 248.977 22.289,248.678 22.225,248.095 23.630 M252.494 25.675 C 252.494 27.528,252.626 28.782,252.821 28.782 C 253.001 28.782,253.148 28.267,253.148 27.637 C 253.148 26.719,253.275 26.492,253.787 26.492 C 255.277 26.492,256.389 25.488,256.414 24.121 C 256.427 23.406,255.016 22.567,253.802 22.567 L 252.494 22.567 252.494 25.675 M257.482 23.023 C 257.928 23.361,258.054 23.946,258.054 25.675 C 258.054 27.403,257.928 27.988,257.482 28.326 C 256.975 28.711,257.057 28.762,258.201 28.771 C 259.206 28.779,259.406 28.694,259.101 28.389 C 258.869 28.158,258.708 27.045,258.708 25.675 C 258.708 24.305,258.869 23.191,259.101 22.960 C 259.406 22.655,259.206 22.570,258.201 22.578 C 257.057 22.587,256.975 22.638,257.482 23.023 M255.437 23.876 C 255.968 24.868,255.316 25.838,254.118 25.838 C 253.204 25.838,253.148 25.762,253.148 24.530 C 253.148 23.001,254.728 22.550,255.437 23.876 M249.014 26.108 C 247.876 26.254,247.786 26.075,248.265 24.634 L 248.679 23.385 249.263 24.693 L 249.846 26.002 249.014 26.108 M146.763 67.155 C 146.085 67.366,145.023 67.946,144.403 68.443 C 142.153 70.250,142.273 67.258,142.273 121.624 C 142.273 170.328,142.270 170.527,141.599 171.913 C 140.169 174.869,143.427 174.652,100.306 174.652 C 62.687 174.652,62.469 174.656,62.469 175.307 C 62.469 175.957,62.687 175.961,100.022 175.961 C 141.920 175.961,140.027 176.059,141.899 173.788 C 143.627 171.692,143.581 173.132,143.581 120.972 C 143.581 72.354,143.584 72.155,144.255 70.769 C 145.677 67.832,143.003 68.029,181.297 68.029 C 214.663 68.029,214.881 68.025,214.881 67.375 C 214.881 66.581,149.290 66.369,146.763 67.155 M156.575 126.027 C 151.964 127.461,152.085 126.644,152.085 156.293 C 152.085 184.500,152.226 183.050,149.346 184.445 C 147.962 185.115,147.701 185.119,105.212 185.119 C 62.687 185.119,62.469 185.122,62.469 185.773 C 62.469 186.668,146.067 186.819,149.064 185.929 C 153.451 184.626,153.393 185.030,153.393 155.641 C 153.393 127.531,153.253 128.969,156.133 127.575 C 157.506 126.910,157.914 126.901,186.203 126.901 C 214.663 126.901,214.881 126.896,214.881 126.247 C 214.881 125.453,159.096 125.243,156.575 126.027 M37.122 170.041 C 31.253 172.764,31.845 181.953,37.991 183.528 L 39.575 183.934 39.575 186.489 L 39.575 189.043 33.688 189.043 C 28.019 189.043,27.800 189.068,27.800 189.697 C 27.800 190.327,28.019 190.352,33.688 190.352 L 39.575 190.352 39.570 195.666 L 39.565 200.981 33.029 211.434 C 26.548 221.797,25.906 223.058,27.110 223.058 C 27.565 223.058,29.334 220.483,33.851 213.246 C 37.219 207.850,40.089 203.434,40.229 203.434 C 40.368 203.434,43.238 207.850,46.607 213.246 C 51.123 220.483,52.893 223.058,53.348 223.058 C 54.552 223.058,53.910 221.797,47.429 211.434 L 40.893 200.981 40.888 195.666 L 40.883 190.352 46.770 190.352 C 52.439 190.352,52.657 190.327,52.657 189.697 C 52.657 189.068,52.439 189.043,46.770 189.043 L 40.883 189.043 40.883 186.489 L 40.883 183.934 42.467 183.528 C 47.497 182.239,49.183 175.137,45.336 171.449 C 43.152 169.356,39.827 168.786,37.122 170.041 M142.927 196.075 C 142.927 198.910,143.013 199.509,143.418 199.509 C 143.745 199.509,143.908 199.182,143.908 198.528 C 143.908 197.989,144.051 197.547,144.226 197.547 C 144.400 197.547,144.869 197.989,145.268 198.528 C 145.667 199.068,146.199 199.509,146.450 199.509 C 146.743 199.509,146.530 199.034,145.856 198.182 L 144.804 196.854 145.726 195.892 C 146.233 195.363,146.500 194.930,146.320 194.930 C 146.140 194.930,145.570 195.372,145.053 195.912 C 143.776 197.244,143.729 197.199,143.855 194.768 C 143.946 192.998,143.877 192.641,143.446 192.641 C 143.005 192.641,142.927 193.159,142.927 196.075 M127.882 193.786 C 127.882 194.056,128.029 194.276,128.209 194.276 C 128.389 194.276,128.536 194.056,128.536 193.786 C 128.536 193.516,128.389 193.295,128.209 193.295 C 128.029 193.295,127.882 193.516,127.882 193.786 M117.743 196.609 C 117.743 198.951,119.634 200.431,120.948 199.117 C 121.254 198.812,121.341 198.812,121.341 199.117 C 121.341 199.333,121.488 199.509,121.668 199.509 C 121.855 199.509,121.995 198.528,121.995 197.220 C 121.995 195.912,121.855 194.930,121.668 194.930 C 121.488 194.930,121.341 195.637,121.341 196.500 C 121.341 198.154,120.935 198.855,119.979 198.855 C 119.201 198.855,118.724 197.870,118.724 196.260 C 118.724 195.296,118.589 194.930,118.234 194.930 C 117.861 194.930,117.743 195.335,117.743 196.609 M123.803 195.374 C 122.963 195.988,123.365 196.815,124.793 197.412 C 126.248 198.020,126.093 198.692,124.499 198.692 C 123.152 198.692,123.054 199.291,124.375 199.448 C 126.612 199.713,127.342 197.923,125.384 196.977 C 124.064 196.340,124.012 195.776,125.266 195.696 C 126.692 195.606,126.748 195.581,126.247 195.258 C 125.550 194.807,124.511 194.857,123.803 195.374 M127.882 197.220 C 127.882 198.528,128.022 199.509,128.209 199.509 C 128.396 199.509,128.536 198.528,128.536 197.220 C 128.536 195.912,128.396 194.930,128.209 194.930 C 128.022 194.930,127.882 195.912,127.882 197.220 M130.172 197.220 C 130.172 198.528,130.312 199.509,130.499 199.509 C 130.679 199.509,130.826 198.803,130.826 197.939 C 130.826 196.219,131.231 195.585,132.328 195.585 C 133.190 195.585,133.442 196.146,133.442 198.064 C 133.442 198.859,133.590 199.509,133.769 199.509 C 134.322 199.509,134.161 196.023,133.583 195.444 C 132.973 194.834,131.769 194.773,131.218 195.323 C 130.913 195.628,130.826 195.628,130.826 195.323 C 130.826 195.107,130.679 194.930,130.499 194.930 C 130.312 194.930,130.172 195.912,130.172 197.220 M135.732 195.585 C 134.190 197.126,135.464 199.755,137.561 199.362 C 138.760 199.137,138.926 199.368,138.240 200.307 C 137.916 200.751,137.499 200.866,136.605 200.762 C 135.381 200.619,134.987 200.914,135.922 201.273 C 138.232 202.160,139.330 200.959,139.330 197.547 C 139.330 196.021,139.193 194.930,139.002 194.930 C 138.823 194.930,138.675 195.083,138.675 195.269 C 138.675 195.502,138.479 195.502,138.043 195.269 C 137.104 194.767,136.462 194.854,135.732 195.585 M148.047 195.529 C 147.200 196.465,147.341 198.405,148.303 199.035 C 149.160 199.597,150.816 199.570,151.006 198.992 C 151.078 198.771,150.749 198.694,150.128 198.785 C 149.175 198.925,148.160 198.435,148.160 197.834 C 148.160 197.676,148.896 197.547,149.796 197.547 C 151.213 197.547,151.431 197.460,151.431 196.893 C 151.431 195.280,149.117 194.347,148.047 195.529 M152.051 195.638 C 152.215 196.058,152.657 197.112,153.033 197.980 C 153.795 199.736,153.554 200.818,152.401 200.818 C 152.047 200.818,151.758 200.965,151.758 201.145 C 151.758 201.534,152.733 201.570,153.312 201.202 C 153.651 200.987,156.010 195.650,156.010 195.099 C 156.010 194.614,155.369 195.029,155.175 195.638 C 155.052 196.027,154.731 196.870,154.463 197.512 L 153.976 198.678 153.265 196.910 C 152.874 195.937,152.374 195.081,152.154 195.008 C 151.860 194.910,151.832 195.078,152.051 195.638 M62.469 196.239 C 62.469 196.888,62.687 196.893,88.962 196.893 C 115.236 196.893,115.454 196.888,115.454 196.239 C 115.454 195.590,115.236 195.585,88.962 195.585 C 62.687 195.585,62.469 195.590,62.469 196.239 M138.408 196.402 C 138.942 197.575,138.314 198.855,137.204 198.855 C 136.093 198.855,135.465 197.575,135.999 196.402 C 136.255 195.842,136.634 195.585,137.204 195.585 C 137.773 195.585,138.153 195.842,138.408 196.402 M150.389 196.321 C 150.476 196.779,150.266 196.893,149.329 196.893 C 148.101 196.893,147.892 196.638,148.565 195.965 C 149.125 195.405,150.256 195.626,150.389 196.321 M158.299 196.239 C 158.299 196.893,158.438 196.896,184.546 196.813 C 207.622 196.739,210.793 196.670,210.793 196.239 C 210.793 195.807,207.622 195.738,184.546 195.664 C 158.438 195.581,158.299 195.584,158.299 196.239 M46.443 234.669 C 46.443 237.885,46.485 238.103,47.097 238.103 C 47.653 238.103,47.751 237.885,47.751 236.655 C 47.751 235.100,48.419 234.079,49.233 234.391 C 49.574 234.522,49.714 235.088,49.714 236.339 C 49.714 237.885,49.795 238.103,50.368 238.103 C 50.947 238.103,51.022 237.885,51.022 236.206 C 51.022 233.981,50.677 233.524,48.994 233.524 C 47.792 233.524,47.751 233.487,47.751 232.379 C 47.751 231.453,47.627 231.235,47.097 231.235 C 46.485 231.235,46.443 231.453,46.443 234.669 M54.293 234.669 C 54.293 237.885,54.334 238.103,54.947 238.103 C 55.440 238.103,55.604 237.881,55.613 237.204 L 55.625 236.304 56.384 237.232 C 57.676 238.811,58.842 238.338,57.677 236.708 L 56.797 235.476 57.732 234.500 L 58.667 233.524 57.891 233.524 C 57.464 233.524,56.774 233.844,56.358 234.235 L 55.601 234.946 55.601 233.091 C 55.601 231.453,55.524 231.235,54.947 231.235 C 54.334 231.235,54.293 231.453,54.293 234.669 M41.210 232.379 C 41.210 232.652,41.501 232.870,41.864 232.870 C 42.228 232.870,42.518 232.652,42.518 232.379 C 42.518 232.107,42.228 231.889,41.864 231.889 C 41.501 231.889,41.210 232.107,41.210 232.379 M43.221 233.241 C 42.932 233.703,42.899 234.009,43.123 234.147 C 43.308 234.262,43.506 235.162,43.562 236.148 L 43.663 237.939 44.890 238.041 C 45.839 238.120,46.116 238.024,46.116 237.618 C 46.116 237.300,45.891 237.131,45.544 237.189 C 45.076 237.268,44.953 237.001,44.872 235.732 C 44.783 234.350,44.846 234.178,45.444 234.178 C 45.814 234.178,46.116 234.031,46.116 233.851 C 46.116 233.671,45.822 233.524,45.462 233.524 C 45.099 233.524,44.808 233.306,44.808 233.034 C 44.808 232.300,43.720 232.442,43.221 233.241 M13.737 235.181 C 13.737 237.744,14.060 238.103,16.365 238.103 L 18.316 238.103 18.316 235.814 C 18.316 233.742,18.253 233.524,17.661 233.524 C 17.095 233.524,17.007 233.742,17.007 235.148 C 17.007 236.392,16.866 236.847,16.403 237.095 C 15.500 237.579,15.045 236.909,15.045 235.094 C 15.045 233.742,14.954 233.524,14.391 233.524 C 13.823 233.524,13.737 233.742,13.737 235.181 M19.362 233.917 C 18.573 234.706,18.925 235.522,20.287 236.057 C 21.879 236.682,21.808 237.322,20.162 237.189 C 19.264 237.117,18.970 237.218,18.970 237.598 C 18.970 238.285,21.988 238.310,22.554 237.628 C 23.170 236.886,22.819 236.025,21.681 235.488 C 20.347 234.858,20.330 234.342,21.643 234.342 C 22.208 234.342,22.733 234.158,22.810 233.933 C 22.995 233.388,19.906 233.373,19.362 233.917 M23.731 234.251 C 22.403 236.147,23.482 238.103,25.857 238.103 C 27.128 238.103,27.473 237.990,27.473 237.574 C 27.473 237.174,27.255 237.087,26.577 237.217 C 25.632 237.398,24.530 236.988,24.530 236.456 C 24.530 236.283,25.266 236.141,26.165 236.141 C 27.663 236.141,27.800 236.076,27.800 235.374 C 27.800 233.603,24.770 232.767,23.731 234.251 M28.455 235.856 C 28.455 238.871,29.658 239.336,29.828 236.386 C 29.920 234.784,29.987 234.662,30.826 234.565 C 32.516 234.371,31.894 233.532,30.090 233.573 L 28.455 233.610 28.455 235.856 M33.692 233.769 C 33.748 236.860,36.074 239.225,36.748 236.877 C 37.144 235.495,37.486 235.529,37.758 236.978 C 37.949 237.995,38.084 238.130,38.823 238.041 C 39.672 237.939,39.901 237.486,40.685 234.363 C 41.052 232.901,39.715 233.254,39.221 234.751 L 38.816 235.977 38.430 234.832 C 37.890 233.230,36.684 233.220,36.147 234.814 C 35.749 235.995,35.555 235.915,35.198 234.424 C 35.005 233.614,33.679 233.038,33.692 233.769 M41.210 235.814 C 41.210 237.885,41.272 238.103,41.864 238.103 C 42.456 238.103,42.518 237.885,42.518 235.814 C 42.518 233.742,42.456 233.524,41.864 233.524 C 41.272 233.524,41.210 233.742,41.210 235.814 M59.059 234.038 C 58.342 234.754,58.393 236.883,59.143 237.562 C 59.948 238.290,62.796 238.322,62.796 237.602 C 62.796 237.239,62.500 237.121,61.721 237.174 C 61.130 237.214,60.467 237.136,60.249 237.001 C 59.411 236.483,59.919 236.141,61.524 236.141 C 63.182 236.141,63.193 236.134,62.969 235.243 C 62.531 233.497,60.290 232.807,59.059 234.038 M63.782 235.824 C 64.779 238.243,64.773 238.932,63.747 239.257 C 62.802 239.557,63.001 240.065,64.065 240.065 C 65.259 240.065,65.455 239.810,66.686 236.631 C 67.883 233.539,67.885 233.524,67.061 233.524 C 66.597 233.524,66.312 233.884,66.028 234.832 C 65.813 235.552,65.536 236.141,65.413 236.141 C 65.291 236.141,64.996 235.552,64.759 234.832 C 64.423 233.814,64.161 233.524,63.580 233.524 L 62.834 233.524 63.782 235.824 M26.421 235.340 C 26.313 235.448,25.816 235.488,25.315 235.429 C 24.434 235.326,24.425 235.304,25.005 234.727 C 25.546 234.190,25.654 234.181,26.111 234.638 C 26.389 234.916,26.529 235.232,26.421 235.340 M61.616 235.021 C 61.746 235.359,61.529 235.487,60.824 235.487 C 59.801 235.487,59.610 235.206,60.220 234.596 C 60.658 234.158,61.368 234.374,61.616 235.021 M37.449 254.910 C 31.263 257.613,31.718 266.882,38.121 268.594 L 39.575 268.983 39.575 271.531 L 39.575 274.080 33.688 274.080 C 28.019 274.080,27.800 274.104,27.800 274.734 C 27.800 275.364,28.019 275.388,33.688 275.388 L 39.575 275.388 39.572 280.703 L 39.570 286.018 33.034 296.484 C 26.534 306.891,25.920 308.095,27.110 308.095 C 27.568 308.095,29.331 305.506,33.897 298.131 C 37.290 292.650,40.139 288.166,40.229 288.166 C 40.319 288.166,43.168 292.650,46.561 298.131 C 51.127 305.506,52.890 308.095,53.348 308.095 C 54.538 308.095,53.924 306.891,47.424 296.484 L 40.888 286.018 40.885 280.703 L 40.883 275.388 46.770 275.388 C 52.439 275.388,52.657 275.364,52.657 274.734 C 52.657 274.104,52.439 274.080,46.770 274.080 L 40.883 274.080 40.883 271.531 L 40.883 268.983 42.336 268.594 C 48.684 266.896,49.211 257.516,43.101 254.964 C 41.631 254.350,38.793 254.323,37.449 254.910 M42.611 256.215 C 46.444 257.855,47.340 263.100,44.276 265.964 C 40.491 269.503,34.342 266.834,34.342 261.652 C 34.342 257.392,38.686 254.535,42.611 256.215 M35.650 317.416 C 35.650 318.532,35.617 318.561,34.353 318.561 C 32.887 318.561,32.379 319.150,32.379 320.850 C 32.379 322.745,32.832 323.140,35.007 323.140 L 36.958 323.140 36.958 319.706 C 36.958 316.490,36.917 316.271,36.304 316.271 C 35.775 316.271,35.650 316.490,35.650 317.416 M46.116 317.416 C 46.116 317.689,46.407 317.907,46.770 317.907 C 47.134 317.907,47.424 317.689,47.424 317.416 C 47.424 317.144,47.134 316.926,46.770 316.926 C 46.407 316.926,46.116 317.144,46.116 317.416 M28.019 318.779 C 27.538 319.259,27.849 319.586,28.700 319.497 C 29.195 319.445,29.784 319.516,30.008 319.655 C 30.760 320.120,30.428 320.523,29.296 320.523 C 28.337 320.523,27.146 321.182,27.146 321.713 C 27.146 322.712,27.935 323.140,29.774 323.140 L 31.725 323.140 31.725 321.483 C 31.725 319.095,31.345 318.561,29.642 318.561 C 28.869 318.561,28.138 318.659,28.019 318.779 M37.939 320.860 C 37.939 322.922,38.002 323.140,38.594 323.140 C 39.157 323.140,39.248 322.922,39.248 321.570 C 39.248 319.920,39.677 319.149,40.432 319.439 C 40.738 319.556,40.883 320.179,40.883 321.376 C 40.883 323.986,42.106 324.027,42.256 321.423 C 42.412 318.719,43.827 318.625,43.827 321.318 C 43.827 322.922,43.905 323.140,44.481 323.140 C 45.054 323.140,45.135 322.922,45.135 321.368 C 45.135 318.536,45.217 318.596,41.345 318.588 L 37.939 318.581 37.939 320.860 M46.116 320.850 C 46.116 322.922,46.178 323.140,46.770 323.140 C 47.362 323.140,47.424 322.922,47.424 320.850 C 47.424 318.779,47.362 318.561,46.770 318.561 C 46.178 318.561,46.116 318.779,46.116 320.850 M48.406 320.893 C 48.406 322.922,48.469 323.140,49.060 323.140 C 49.626 323.140,49.714 322.922,49.714 321.516 C 49.714 320.272,49.855 319.817,50.318 319.569 C 51.222 319.085,51.676 319.755,51.676 321.570 C 51.676 322.922,51.767 323.140,52.330 323.140 C 52.898 323.140,52.984 322.922,52.984 321.483 C 52.984 318.903,52.663 318.550,50.356 318.602 L 48.406 318.646 48.406 320.893 M35.650 320.850 C 35.650 321.955,34.687 322.700,34.065 322.078 C 33.088 321.101,33.922 318.967,35.046 319.569 C 35.422 319.770,35.650 320.253,35.650 320.850 M30.417 321.493 C 30.417 321.988,29.185 322.547,28.946 322.160 C 28.834 321.979,28.834 321.684,28.945 321.504 C 29.204 321.086,30.417 321.076,30.417 321.493 " stroke="none" fill="#c35275" fill-rule="evenodd"></path><path id="path3" d="M118.818 196.402 C 118.820 197.302,118.884 197.631,118.959 197.134 C 119.034 196.637,119.032 195.901,118.955 195.498 C 118.877 195.096,118.816 195.503,118.818 196.402 M122.105 197.220 C 122.105 198.569,122.163 199.121,122.233 198.446 C 122.304 197.772,122.304 196.668,122.233 195.993 C 122.163 195.319,122.105 195.871,122.105 197.220 M127.665 197.220 C 127.665 198.569,127.723 199.121,127.793 198.446 C 127.864 197.772,127.864 196.668,127.793 195.993 C 127.723 195.319,127.665 195.871,127.665 197.220 M129.955 197.220 C 129.955 198.569,130.012 199.121,130.083 198.446 C 130.153 197.772,130.153 196.668,130.083 195.993 C 130.012 195.319,129.955 195.871,129.955 197.220 M144.639 195.921 C 144.052 196.456,143.693 196.893,143.842 196.893 C 143.991 196.893,144.536 196.451,145.053 195.912 C 146.255 194.657,146.023 194.662,144.639 195.921 M145.705 195.914 C 144.927 196.726,144.839 196.968,145.201 197.304 C 145.553 197.630,145.591 197.625,145.392 197.275 C 145.238 197.003,145.487 196.483,146.060 195.885 C 146.563 195.360,146.901 194.930,146.811 194.930 C 146.721 194.930,146.223 195.373,145.705 195.914 M133.213 197.874 C 133.213 198.863,133.275 199.268,133.350 198.774 C 133.424 198.279,133.424 197.469,133.350 196.975 C 133.275 196.480,133.213 196.885,133.213 197.874 M147.255 197.220 C 147.255 197.850,147.322 198.107,147.405 197.792 C 147.487 197.478,147.487 196.962,147.405 196.648 C 147.322 196.333,147.255 196.590,147.255 197.220 M37.776 256.228 C 32.056 258.781,33.931 267.539,40.197 267.539 C 45.410 267.539,48.093 261.403,44.542 257.605 C 42.894 255.843,39.972 255.248,37.776 256.228 M167.457 278.955 L 167.457 280.232 166.193 280.063 C 164.185 279.793,163.105 282.015,164.368 283.819 C 164.791 284.423,165.148 284.533,166.494 284.474 L 168.111 284.404 168.111 281.041 C 168.111 279.017,167.981 277.678,167.784 277.678 C 167.604 277.678,167.457 278.253,167.457 278.955 M114.473 278.823 C 114.473 279.095,114.763 279.313,115.127 279.313 C 115.490 279.313,115.781 279.095,115.781 278.823 C 115.781 278.550,115.490 278.332,115.127 278.332 C 114.763 278.332,114.473 278.550,114.473 278.823 M104.661 281.624 C 104.661 284.204,104.982 284.557,107.289 284.505 L 109.240 284.461 109.240 282.214 C 109.240 280.185,109.176 279.967,108.585 279.967 C 108.021 279.967,107.931 280.185,107.931 281.563 C 107.931 283.394,107.296 284.259,106.460 283.565 C 106.146 283.305,105.969 282.582,105.969 281.563 C 105.969 280.185,105.880 279.967,105.315 279.967 C 104.747 279.967,104.661 280.185,104.661 281.624 M110.237 280.438 C 109.643 281.154,110.023 281.846,111.362 282.484 C 112.807 283.174,112.666 283.760,111.086 283.633 C 110.188 283.560,109.894 283.661,109.894 284.041 C 109.894 284.426,110.267 284.546,111.464 284.546 C 114.137 284.546,114.713 283.053,112.479 281.914 C 111.025 281.172,111.043 280.785,112.531 280.785 C 114.095 280.785,113.771 280.138,112.155 280.033 C 111.110 279.965,110.527 280.089,110.237 280.438 M114.473 282.257 C 114.473 284.328,114.535 284.546,115.127 284.546 C 115.719 284.546,115.781 284.328,115.781 282.257 C 115.781 280.185,115.719 279.967,115.127 279.967 C 114.535 279.967,114.473 280.185,114.473 282.257 M116.762 282.299 C 116.762 284.328,116.826 284.546,117.416 284.546 C 117.990 284.546,118.070 284.328,118.070 282.769 C 118.070 281.282,118.177 280.959,118.722 280.786 C 119.760 280.456,120.033 280.868,120.033 282.767 C 120.033 284.130,120.147 284.546,120.523 284.546 C 121.178 284.546,121.225 280.877,120.577 280.339 C 120.337 280.140,119.380 279.994,118.451 280.015 L 116.762 280.053 116.762 282.299 M122.534 280.568 C 121.142 282.106,122.323 284.764,124.272 284.478 C 125.066 284.362,125.266 284.451,125.266 284.924 C 125.266 285.613,124.025 286.024,122.961 285.686 C 122.438 285.520,122.284 285.578,122.391 285.902 C 122.617 286.592,124.891 286.653,125.625 285.989 C 126.139 285.524,126.247 284.965,126.247 282.768 L 126.247 280.110 124.660 280.041 C 123.479 279.989,122.936 280.124,122.534 280.568 M129.845 283.281 C 129.845 285.932,129.932 286.509,130.335 286.509 C 130.673 286.509,130.826 286.170,130.826 285.421 C 130.826 284.394,130.882 284.341,131.820 284.478 C 133.211 284.683,134.096 283.808,134.096 282.229 C 134.096 280.525,133.438 279.972,131.463 280.016 L 129.845 280.053 129.845 283.281 M135.623 280.185 C 135.103 280.705,135.482 280.983,136.427 280.776 C 137.133 280.621,137.536 280.689,137.730 280.995 C 138.210 281.753,138.059 281.930,136.927 281.930 C 135.489 281.930,134.547 282.900,135.057 283.854 C 135.359 284.418,135.708 284.517,137.244 284.477 L 139.073 284.429 138.933 282.499 C 138.847 281.310,138.614 280.456,138.326 280.273 C 137.780 279.928,135.940 279.868,135.623 280.185 M140.186 280.466 C 139.494 281.157,139.888 281.877,141.330 282.558 C 142.762 283.234,142.577 283.745,140.929 283.664 C 139.219 283.581,139.373 284.341,141.095 284.486 C 143.511 284.689,144.061 283.009,141.934 281.924 C 140.510 281.197,140.488 280.527,141.894 280.686 C 142.372 280.741,142.837 280.638,142.927 280.458 C 143.217 279.878,140.766 279.885,140.186 280.466 M144.239 280.454 C 143.647 281.167,144.069 281.894,145.398 282.449 C 146.864 283.061,146.694 283.741,145.088 283.690 C 143.486 283.639,143.717 284.349,145.347 284.486 C 147.765 284.689,148.383 282.875,146.188 282.014 C 144.668 281.416,144.648 280.763,146.151 280.833 C 146.836 280.865,147.179 280.729,147.179 280.424 C 147.179 279.790,144.770 279.814,144.239 280.454 M148.031 280.806 C 149.085 285.005,149.916 285.602,150.732 282.747 L 151.199 281.112 151.752 282.747 C 152.541 285.083,153.225 285.064,153.913 282.687 C 154.216 281.641,154.533 280.601,154.617 280.376 C 154.702 280.151,154.541 279.967,154.259 279.967 C 153.929 279.967,153.618 280.465,153.388 281.357 C 153.192 282.122,152.990 282.895,152.939 283.074 C 152.888 283.254,152.588 282.621,152.270 281.667 C 151.542 279.477,150.866 279.509,150.194 281.766 L 149.707 283.401 149.219 281.684 C 148.718 279.923,147.603 279.099,148.031 280.806 M155.683 280.621 C 154.267 282.037,155.313 284.546,157.318 284.546 C 158.577 284.546,159.608 283.516,159.608 282.257 C 159.608 280.998,158.577 279.967,157.318 279.967 C 156.773 279.967,156.046 280.258,155.683 280.621 M160.589 282.309 C 160.589 284.080,160.691 284.546,161.079 284.546 C 161.451 284.546,161.570 284.143,161.570 282.882 C 161.570 281.334,161.638 281.193,162.551 280.848 C 163.948 280.321,163.766 280.023,162.061 280.049 L 160.589 280.071 160.589 282.309 M62.469 281.276 C 62.469 281.923,62.687 281.930,82.584 281.930 C 102.480 281.930,102.698 281.923,102.698 281.276 C 102.698 280.629,102.480 280.621,82.584 280.621 C 62.687 280.621,62.469 280.629,62.469 281.276 M124.873 281.014 C 126.049 282.190,124.687 284.583,123.322 283.740 C 122.464 283.210,123.128 280.621,124.121 280.621 C 124.319 280.621,124.657 280.798,124.873 281.014 M132.598 280.820 C 133.423 281.136,133.301 283.462,132.445 283.734 C 131.555 284.016,130.826 283.363,130.826 282.282 C 130.826 280.967,131.510 280.402,132.598 280.820 M158.283 281.092 C 159.265 282.275,157.973 284.462,156.746 283.694 C 155.552 282.946,155.985 280.621,157.318 280.621 C 157.634 280.621,158.068 280.833,158.283 281.092 M167.158 281.512 C 167.792 283.181,166.377 284.643,165.233 283.500 C 165.017 283.284,164.841 282.724,164.841 282.257 C 164.841 280.539,166.576 279.981,167.158 281.512 M171.055 281.276 C 171.055 281.930,171.194 281.934,190.924 281.850 C 208.330 281.777,210.793 281.705,210.793 281.276 C 210.793 280.846,208.330 280.775,190.924 280.701 C 171.194 280.617,171.055 280.621,171.055 281.276 M138.021 282.845 C 138.021 283.302,137.257 283.892,136.667 283.892 C 136.005 283.892,135.604 283.382,135.895 282.911 C 136.135 282.524,138.021 282.466,138.021 282.845 " stroke="none" fill="#dfa9d0" fill-rule="evenodd"></path><path id="path4" d="M118.070 54.947 C 118.070 97.247,118.074 97.465,118.724 97.465 C 119.375 97.465,119.379 97.247,119.379 55.601 L 119.379 13.737 252.821 13.737 L 386.263 13.737 386.263 176.615 L 386.263 339.493 252.821 339.493 L 119.379 339.493 119.379 310.022 C 119.379 283.283,119.331 280.570,118.861 280.750 C 118.577 280.859,118.282 280.948,118.207 280.948 C 118.132 280.948,118.070 294.415,118.070 310.875 L 118.070 340.801 252.821 340.801 L 387.572 340.801 387.572 176.615 L 387.572 12.428 252.821 12.428 L 118.070 12.428 118.070 54.947 M252.286 25.675 C 252.287 27.473,252.342 28.168,252.408 27.217 C 252.475 26.267,252.474 24.795,252.407 23.947 C 252.340 23.098,252.285 23.876,252.286 25.675 M246.852 38.830 C 247.437 38.903,248.393 38.903,248.978 38.830 C 249.563 38.758,249.084 38.698,247.915 38.698 C 246.746 38.698,246.267 38.758,246.852 38.830 M256.664 38.830 C 257.249 38.903,258.205 38.903,258.790 38.830 C 259.374 38.758,258.896 38.698,257.727 38.698 C 256.558 38.698,256.079 38.758,256.664 38.830 M245.747 60.834 C 245.747 62.723,245.801 63.496,245.867 62.551 C 245.933 61.607,245.933 60.061,245.867 59.117 C 245.801 58.173,245.747 58.945,245.747 60.834 M246.996 59.404 C 246.947 60.974,247.058 61.505,247.506 61.857 C 248.008 62.250,248.030 62.244,247.688 61.804 C 247.473 61.528,247.244 60.424,247.178 59.351 L 247.057 57.400 246.996 59.404 M259.526 58.219 C 258.961 58.463,258.995 58.495,259.771 58.452 C 260.266 58.424,260.670 58.287,260.670 58.146 C 260.670 57.832,260.378 57.851,259.526 58.219 M244.689 59.869 C 244.664 60.328,244.534 60.844,244.399 61.016 C 244.264 61.188,244.350 61.163,244.591 60.960 C 244.831 60.757,244.962 60.241,244.881 59.813 C 244.735 59.043,244.733 59.044,244.689 59.869 M258.143 60.834 C 258.143 61.643,258.207 61.975,258.285 61.570 C 258.363 61.165,258.363 60.503,258.285 60.098 C 258.207 59.693,258.143 60.025,258.143 60.834 M261.789 61.594 C 261.892 61.921,261.825 62.473,261.639 62.820 C 261.453 63.167,261.375 63.451,261.465 63.451 C 261.948 63.451,262.309 62.096,261.968 61.566 C 261.628 61.037,261.615 61.039,261.789 61.594 M244.563 61.733 C 244.498 61.868,244.543 62.494,244.665 63.123 L 244.885 64.268 244.928 62.878 C 244.969 61.574,244.839 61.167,244.563 61.733 M246.852 79.059 C 247.437 79.132,248.393 79.132,248.978 79.059 C 249.563 78.987,249.084 78.927,247.915 78.927 C 246.746 78.927,246.267 78.987,246.852 79.059 M256.664 79.059 C 257.249 79.132,258.205 79.132,258.790 79.059 C 259.374 78.987,258.896 78.927,257.727 78.927 C 256.558 78.927,256.079 78.987,256.664 79.059 M246.852 97.702 C 247.437 97.774,248.393 97.774,248.978 97.702 C 249.563 97.629,249.084 97.570,247.915 97.570 C 246.746 97.570,246.267 97.629,246.852 97.702 M256.664 97.702 C 257.249 97.774,258.205 97.774,258.790 97.702 C 259.374 97.629,258.896 97.570,257.727 97.570 C 256.558 97.570,256.079 97.629,256.664 97.702 M118.070 108.422 L 118.070 118.070 124.693 117.996 L 131.316 117.922 125.348 117.825 L 119.379 117.728 119.379 108.251 C 119.379 98.992,119.364 98.774,118.724 98.774 C 118.085 98.774,118.070 98.992,118.070 108.422 M242.465 118.724 C 242.465 120.074,242.523 120.626,242.593 119.951 C 242.664 119.276,242.664 118.173,242.593 117.498 C 242.523 116.823,242.465 117.375,242.465 118.724 M243.446 118.724 C 243.446 120.074,243.504 120.626,243.574 119.951 C 243.645 119.276,243.645 118.173,243.574 117.498 C 243.504 116.823,243.446 117.375,243.446 118.724 M257.789 118.276 C 257.740 119.845,257.851 120.377,258.299 120.729 C 258.801 121.122,258.823 121.115,258.481 120.676 C 258.266 120.399,258.037 119.296,257.971 118.223 L 257.851 116.271 257.789 118.276 M188.123 117.334 C 191.125 117.388,196.129 117.388,199.243 117.334 C 202.358 117.280,199.902 117.236,193.786 117.236 C 187.670 117.236,185.121 117.280,188.123 117.334 M253.143 119.148 L 253.302 121.177 253.407 119.414 C 253.465 118.444,253.394 117.530,253.248 117.385 C 253.103 117.239,253.056 118.032,253.143 119.148 M151.492 117.661 C 154.493 117.715,159.497 117.715,162.612 117.661 C 165.726 117.607,163.271 117.563,157.155 117.563 C 151.038 117.563,148.490 117.607,151.492 117.661 M254.231 119.215 C 254.232 120.294,254.293 120.696,254.366 120.109 C 254.439 119.521,254.438 118.638,254.363 118.146 C 254.288 117.655,254.229 118.136,254.231 119.215 M184.198 118.642 C 187.200 118.696,192.204 118.696,195.318 118.642 C 198.433 118.588,195.977 118.544,189.861 118.544 C 183.745 118.544,181.197 118.588,184.198 118.642 M250.948 119.706 C 250.948 120.515,251.011 120.846,251.089 120.442 C 251.167 120.037,251.167 119.374,251.089 118.970 C 251.011 118.565,250.948 118.896,250.948 119.706 M148.753 118.969 C 151.688 119.024,156.397 119.023,159.219 118.969 C 162.041 118.915,159.640 118.870,153.884 118.870 C 148.128 118.870,145.819 118.915,148.753 118.969 M118.070 146.852 C 118.070 174.434,118.075 174.652,118.724 174.652 C 119.373 174.652,119.379 174.434,119.379 147.026 L 119.379 119.399 123.385 119.296 L 127.392 119.193 122.731 119.122 L 118.070 119.052 118.070 146.852 M264.030 121.668 C 264.030 122.478,264.094 122.809,264.172 122.404 C 264.250 121.999,264.250 121.337,264.172 120.932 C 264.094 120.527,264.030 120.859,264.030 121.668 M246.852 137.931 C 247.437 138.003,248.393 138.003,248.978 137.931 C 249.563 137.858,249.084 137.799,247.915 137.799 C 246.746 137.799,246.267 137.858,246.852 137.931 M256.664 137.931 C 257.249 138.003,258.205 138.003,258.790 137.931 C 259.374 137.858,258.896 137.799,257.727 137.799 C 256.558 137.799,256.079 137.858,256.664 137.931 M118.070 180.540 C 118.070 184.901,118.101 185.119,118.724 185.119 C 119.347 185.119,119.379 184.901,119.379 180.540 C 119.379 176.179,119.347 175.961,118.724 175.961 C 118.101 175.961,118.070 176.179,118.070 180.540 M246.852 176.197 C 247.437 176.270,248.393 176.270,248.978 176.197 C 249.563 176.125,249.084 176.065,247.915 176.065 C 246.746 176.065,246.267 176.125,246.852 176.197 M256.664 176.197 C 257.249 176.270,258.205 176.270,258.790 176.197 C 259.374 176.125,258.896 176.065,257.727 176.065 C 256.558 176.065,256.079 176.125,256.664 176.197 M118.070 190.679 C 118.070 194.172,118.155 194.930,118.544 194.930 C 118.882 194.930,119.052 195.422,119.137 196.648 C 119.204 197.592,119.285 195.679,119.318 192.396 C 119.377 186.625,119.357 186.427,118.724 186.427 C 118.104 186.427,118.070 186.645,118.070 190.679 M227.702 193.034 C 227.487 193.249,227.330 193.801,227.354 194.260 L 227.399 195.094 227.549 194.276 C 227.632 193.827,227.851 193.275,228.035 193.050 C 228.464 192.528,228.220 192.516,227.702 193.034 M242.804 196.075 C 242.805 198.054,242.859 198.821,242.924 197.780 C 242.989 196.739,242.988 195.120,242.923 194.183 C 242.857 193.245,242.804 194.096,242.804 196.075 M243.663 193.949 C 243.663 194.669,243.777 195.258,243.917 195.258 C 244.057 195.258,244.115 194.669,244.046 193.949 C 243.978 193.230,243.863 192.641,243.792 192.641 C 243.721 192.641,243.663 193.230,243.663 193.949 M238.496 195.323 C 237.954 195.865,238.004 196.404,238.646 196.935 C 239.141 197.344,239.150 197.321,238.748 196.674 C 238.383 196.088,238.380 195.875,238.735 195.448 C 239.238 194.842,239.066 194.753,238.496 195.323 M258.935 195.269 C 259.150 195.545,259.379 196.649,259.445 197.722 L 259.566 199.673 259.627 197.669 C 259.676 196.099,259.565 195.567,259.117 195.216 C 258.616 194.823,258.593 194.829,258.935 195.269 M267.112 195.269 C 267.326 195.545,267.556 196.649,267.622 197.722 L 267.742 199.673 267.804 197.669 C 267.853 196.099,267.742 195.567,267.294 195.216 C 266.792 194.823,266.770 194.829,267.112 195.269 M272.568 195.489 C 272.726 195.724,272.969 196.393,273.107 196.977 C 273.338 197.949,273.362 197.966,273.393 197.174 C 273.411 196.700,273.168 196.030,272.854 195.687 C 272.539 195.344,272.410 195.255,272.568 195.489 M277.251 195.269 C 277.465 195.545,277.695 196.649,277.761 197.722 L 277.881 199.673 277.943 197.669 C 277.992 196.099,277.881 195.567,277.433 195.216 C 276.931 194.823,276.909 194.829,277.251 195.269 M279.052 195.323 C 278.510 195.865,278.560 196.404,279.202 196.935 C 279.697 197.344,279.706 197.321,279.304 196.674 C 278.939 196.088,278.936 195.875,279.291 195.448 C 279.794 194.842,279.622 194.753,279.052 195.323 M227.415 197.547 C 227.415 198.716,227.474 199.195,227.546 198.610 C 227.619 198.025,227.619 197.069,227.546 196.484 C 227.474 195.899,227.415 196.378,227.415 197.547 M260.764 197.056 C 260.766 197.956,260.830 198.285,260.905 197.788 C 260.980 197.291,260.978 196.555,260.901 196.152 C 260.823 195.750,260.762 196.157,260.764 197.056 M261.690 196.955 C 261.669 197.799,261.768 198.562,261.910 198.649 C 262.053 198.737,262.118 198.268,262.055 197.606 C 261.863 195.583,261.729 195.345,261.690 196.955 M243.761 197.874 C 243.761 198.863,243.822 199.268,243.897 198.774 C 243.972 198.279,243.972 197.469,243.897 196.975 C 243.822 196.480,243.761 196.885,243.761 197.874 M250.280 197.220 C 250.280 197.850,250.348 198.107,250.430 197.792 C 250.512 197.478,250.512 196.962,250.430 196.648 C 250.348 196.333,250.280 196.590,250.280 197.220 M246.046 198.038 C 246.049 198.937,246.112 199.266,246.187 198.769 C 246.262 198.272,246.260 197.536,246.183 197.134 C 246.105 196.731,246.044 197.138,246.046 198.038 M219.549 198.201 C 219.549 199.011,219.613 199.342,219.691 198.937 C 219.769 198.532,219.769 197.870,219.691 197.465 C 219.613 197.061,219.549 197.392,219.549 198.201 M230.997 198.201 C 230.997 199.011,231.060 199.342,231.138 198.937 C 231.216 198.532,231.216 197.870,231.138 197.465 C 231.060 197.061,230.997 197.392,230.997 198.201 M118.070 239.575 C 118.070 279.749,118.074 279.967,118.724 279.967 C 119.375 279.967,119.379 279.749,119.379 239.773 C 119.379 197.729,119.421 199.182,118.207 199.182 C 118.132 199.182,118.070 217.359,118.070 239.575 M246.852 216.426 C 247.437 216.499,248.393 216.499,248.978 216.426 C 249.563 216.354,249.084 216.294,247.915 216.294 C 246.746 216.294,246.267 216.354,246.852 216.426 M256.664 216.426 C 257.249 216.499,258.205 216.499,258.790 216.426 C 259.374 216.354,258.896 216.294,257.727 216.294 C 256.558 216.294,256.079 216.354,256.664 216.426 M246.852 261.234 C 247.437 261.307,248.393 261.307,248.978 261.234 C 249.563 261.162,249.084 261.102,247.915 261.102 C 246.746 261.102,246.267 261.162,246.852 261.234 M256.664 261.234 C 257.249 261.307,258.205 261.307,258.790 261.234 C 259.374 261.162,258.896 261.102,257.727 261.102 C 256.558 261.102,256.079 261.162,256.664 261.234 M250.327 281.112 C 250.327 283.091,250.381 283.858,250.446 282.817 C 250.512 281.776,250.511 280.157,250.445 279.219 C 250.379 278.282,250.326 279.133,250.327 281.112 M251.308 281.112 C 251.309 283.091,251.363 283.858,251.428 282.817 C 251.493 281.776,251.492 280.157,251.426 279.219 C 251.360 278.282,251.307 279.133,251.308 281.112 M266.275 279.722 C 266.251 280.936,266.342 281.930,266.478 281.930 C 266.614 281.930,266.682 281.231,266.628 280.376 C 266.458 277.689,266.321 277.434,266.275 279.722 M230.646 280.360 C 230.104 280.901,230.155 281.441,230.797 281.971 C 231.292 282.380,231.301 282.357,230.898 281.711 C 230.533 281.125,230.531 280.912,230.886 280.484 C 231.388 279.879,231.216 279.789,230.646 280.360 M248.469 280.306 C 248.684 280.582,248.913 281.686,248.979 282.759 L 249.100 284.710 249.161 282.706 C 249.210 281.136,249.099 280.604,248.651 280.253 C 248.149 279.859,248.127 279.866,248.469 280.306 M268.354 280.951 C 267.576 281.763,267.489 282.005,267.851 282.341 C 268.202 282.667,268.240 282.661,268.042 282.312 C 267.887 282.039,268.136 281.520,268.709 280.922 C 269.212 280.397,269.550 279.967,269.460 279.967 C 269.370 279.967,268.873 280.410,268.354 280.951 M239.832 282.093 C 239.834 282.993,239.898 283.322,239.973 282.825 C 240.048 282.327,240.046 281.592,239.969 281.189 C 239.891 280.787,239.829 281.194,239.832 282.093 M240.757 281.992 C 240.737 282.836,240.836 283.598,240.978 283.686 C 241.121 283.774,241.186 283.305,241.123 282.643 C 240.931 280.620,240.797 280.382,240.757 281.992 M257.171 282.257 C 257.171 283.246,257.232 283.651,257.307 283.156 C 257.382 282.661,257.382 281.852,257.307 281.357 C 257.232 280.863,257.171 281.267,257.171 282.257 M262.878 280.948 C 263.103 281.200,263.287 281.789,263.287 282.257 C 263.287 282.724,263.103 283.313,262.878 283.566 C 262.530 283.956,262.555 283.959,263.042 283.591 C 263.357 283.353,263.614 282.752,263.614 282.257 C 263.614 281.761,263.357 281.161,263.042 280.923 C 262.555 280.554,262.530 280.558,262.878 280.948 M278.000 282.681 L 278.159 284.710 278.264 282.946 C 278.322 281.976,278.251 281.063,278.105 280.917 C 277.960 280.771,277.913 281.565,278.000 282.681 M279.087 282.747 C 279.089 283.827,279.150 284.229,279.223 283.641 C 279.296 283.053,279.294 282.170,279.220 281.679 C 279.145 281.187,279.086 281.668,279.087 282.747 M264.344 282.257 C 264.344 282.886,264.411 283.144,264.494 282.829 C 264.576 282.514,264.576 281.999,264.494 281.684 C 264.411 281.370,264.344 281.627,264.344 282.257 M223.147 283.238 C 223.147 284.047,223.211 284.379,223.289 283.974 C 223.367 283.569,223.367 282.907,223.289 282.502 C 223.211 282.097,223.147 282.428,223.147 283.238 M275.805 283.238 C 275.805 284.047,275.868 284.379,275.946 283.974 C 276.024 283.569,276.024 282.907,275.946 282.502 C 275.868 282.097,275.805 282.428,275.805 283.238 M266.356 283.055 C 266.257 283.315,266.244 283.793,266.329 284.118 C 266.429 284.505,266.495 284.399,266.520 283.810 C 266.561 282.826,266.837 282.693,267.539 283.320 C 267.929 283.668,267.933 283.643,267.565 283.156 C 267.039 282.461,266.598 282.424,266.356 283.055 M246.852 301.463 C 247.437 301.536,248.393 301.536,248.978 301.463 C 249.563 301.391,249.084 301.331,247.915 301.331 C 246.746 301.331,246.267 301.391,246.852 301.463 M256.664 301.463 C 257.249 301.536,258.205 301.536,258.790 301.463 C 259.374 301.391,258.896 301.331,257.727 301.331 C 256.558 301.331,256.079 301.391,256.664 301.463 " stroke="none" fill="#b4e3db" fill-rule="evenodd"></path></g></svg>