<svg id="x-circle" xmlns="http://www.w3.org/2000/svg" width="51" height="51" viewBox="0 0 51 51">
  <path id="Path_3" data-name="Path 3" d="M25.5,47.813A22.313,22.313,0,1,1,47.813,25.5,22.312,22.312,0,0,1,25.5,47.813ZM25.5,51A25.5,25.5,0,1,0,0,25.5,25.5,25.5,0,0,0,25.5,51Z" fill="#fff"/>
  <path id="Path_4" data-name="Path 4" d="M4.967,4.967a1.594,1.594,0,0,1,2.257,0L15.658,13.4l8.434-8.437a1.6,1.6,0,0,1,2.257,2.257l-8.437,8.434,8.437,8.434a1.6,1.6,0,0,1-2.257,2.257l-8.434-8.437L7.224,26.349a1.6,1.6,0,1,1-2.257-2.257L13.4,15.658,4.967,7.224a1.594,1.594,0,0,1,0-2.257Z" transform="translate(9.842 9.842)" fill="#fff"/>
</svg>
