<svg xmlns="http://www.w3.org/2000/svg" width="30.532" height="24.981" viewBox="0 0 30.532 24.981">
  <path id="list" d="M2.5,26.593a1.388,1.388,0,0,1,1.388-1.388H31.644a1.388,1.388,0,1,1,0,2.776H3.888A1.388,1.388,0,0,1,2.5,26.593Zm0-11.1A1.388,1.388,0,0,1,3.888,14.1H31.644a1.388,1.388,0,1,1,0,2.776H3.888A1.388,1.388,0,0,1,2.5,15.49Zm0-11.1A1.388,1.388,0,0,1,3.888,3H31.644a1.388,1.388,0,1,1,0,2.776H3.888A1.388,1.388,0,0,1,2.5,4.388Z" transform="translate(-2.5 -3)" fill="#74787f" fill-rule="evenodd"/>
</svg>
